%TF.GenerationSoftware,KiCad,Pcbnew,(5.1.10)-1*%
%TF.CreationDate,2022-03-27T19:47:09-06:00*%
%TF.ProjectId,IR_Remote,49525f52-656d-46f7-9465-2e6b69636164,V01*%
%TF.SameCoordinates,Original*%
%TF.FileFunction,Copper,L1,Top*%
%TF.FilePolarity,Positive*%
%FSLAX46Y46*%
G04 Gerber Fmt 4.6, Leading zero omitted, Abs format (unit mm)*
G04 Created by KiCad (PCBNEW (5.1.10)-1) date 2022-03-27 19:47:09*
%MOMM*%
%LPD*%
G01*
G04 APERTURE LIST*
%TA.AperFunction,ComponentPad*%
%ADD10C,1.600000*%
%TD*%
%TA.AperFunction,ComponentPad*%
%ADD11O,1.600000X1.600000*%
%TD*%
%TA.AperFunction,ComponentPad*%
%ADD12C,2.000000*%
%TD*%
%TA.AperFunction,ComponentPad*%
%ADD13R,1.800000X1.800000*%
%TD*%
%TA.AperFunction,ComponentPad*%
%ADD14C,1.800000*%
%TD*%
%TA.AperFunction,ComponentPad*%
%ADD15C,2.020000*%
%TD*%
%TA.AperFunction,ComponentPad*%
%ADD16R,2.200000X2.200000*%
%TD*%
%TA.AperFunction,ComponentPad*%
%ADD17C,2.200000*%
%TD*%
%TA.AperFunction,ComponentPad*%
%ADD18O,1.500000X1.000000*%
%TD*%
%TA.AperFunction,ComponentPad*%
%ADD19R,1.500000X1.000000*%
%TD*%
%TA.AperFunction,ComponentPad*%
%ADD20C,1.524000*%
%TD*%
%TA.AperFunction,Conductor*%
%ADD21C,0.345000*%
%TD*%
%TA.AperFunction,Conductor*%
%ADD22C,0.250000*%
%TD*%
%TA.AperFunction,Conductor*%
%ADD23C,0.254000*%
%TD*%
%TA.AperFunction,Conductor*%
%ADD24C,0.100000*%
%TD*%
G04 APERTURE END LIST*
D10*
%TO.P,R3,1*%
%TO.N,Net-(D1-Pad1)*%
X163450000Y-99700000D03*
D11*
%TO.P,R3,2*%
%TO.N,Net-(Q1-Pad3)*%
X155830000Y-99700000D03*
%TD*%
D12*
%TO.P,BT1,1*%
%TO.N,/3V*%
X139800000Y-135000000D03*
%TO.P,BT1,2*%
%TO.N,GND*%
X157800000Y-135000000D03*
%TD*%
D13*
%TO.P,D1,1*%
%TO.N,Net-(D1-Pad1)*%
X153750000Y-54750000D03*
D14*
%TO.P,D1,2*%
%TO.N,/3V*%
X151210000Y-54750000D03*
%TD*%
D15*
%TO.P,J1,3*%
%TO.N,/SCK*%
X159000000Y-114460000D03*
%TO.P,J1,1*%
%TO.N,Net-(J1-Pad1)*%
X159000000Y-111920000D03*
%TO.P,J1,5*%
%TO.N,/RST*%
X159000000Y-117000000D03*
%TO.P,J1,6*%
%TO.N,GND*%
X161540000Y-117000000D03*
%TO.P,J1,2*%
%TO.N,/3V*%
X161540000Y-111920000D03*
%TO.P,J1,4*%
%TO.N,/MOSI*%
X161540000Y-114460000D03*
%TD*%
D16*
%TO.P,PB1,1*%
%TO.N,GND*%
X163350000Y-66080000D03*
D17*
%TO.P,PB1,2*%
X156850000Y-66080000D03*
%TO.P,PB1,4*%
%TO.N,/RST*%
X156850000Y-61580000D03*
%TO.P,PB1,3*%
X163350000Y-61580000D03*
%TD*%
%TO.P,PB2,3*%
%TO.N,Net-(PB2-Pad3)*%
X148110000Y-61580000D03*
%TO.P,PB2,4*%
X141610000Y-61580000D03*
%TO.P,PB2,2*%
%TO.N,GND*%
X141610000Y-66080000D03*
D16*
%TO.P,PB2,1*%
X148110000Y-66080000D03*
%TD*%
%TO.P,PB3,1*%
%TO.N,GND*%
X148110000Y-78780000D03*
D17*
%TO.P,PB3,2*%
X141610000Y-78780000D03*
%TO.P,PB3,4*%
%TO.N,Net-(PB3-Pad3)*%
X141610000Y-74280000D03*
%TO.P,PB3,3*%
X148110000Y-74280000D03*
%TD*%
%TO.P,PB4,3*%
%TO.N,/MOSI*%
X163350000Y-74280000D03*
%TO.P,PB4,4*%
X156850000Y-74280000D03*
%TO.P,PB4,2*%
%TO.N,GND*%
X156850000Y-78780000D03*
D16*
%TO.P,PB4,1*%
X163350000Y-78780000D03*
%TD*%
%TO.P,PB5,1*%
%TO.N,GND*%
X163350000Y-91480000D03*
D17*
%TO.P,PB5,2*%
X156850000Y-91480000D03*
%TO.P,PB5,4*%
%TO.N,Net-(J1-Pad1)*%
X156850000Y-86980000D03*
%TO.P,PB5,3*%
X163350000Y-86980000D03*
%TD*%
D18*
%TO.P,Q1,2*%
%TO.N,Net-(Q1-Pad2)*%
X148288000Y-101000000D03*
%TO.P,Q1,3*%
%TO.N,Net-(Q1-Pad3)*%
X148288000Y-99730000D03*
D19*
%TO.P,Q1,1*%
%TO.N,GND*%
X148288000Y-102270000D03*
%TD*%
D11*
%TO.P,R1,2*%
%TO.N,/SCK*%
X163470000Y-106100000D03*
D10*
%TO.P,R1,1*%
%TO.N,Net-(Q1-Pad2)*%
X155850000Y-106100000D03*
%TD*%
D11*
%TO.P,R2,2*%
%TO.N,Net-(Q1-Pad3)*%
X155830000Y-102900000D03*
D10*
%TO.P,R2,1*%
%TO.N,Net-(D1-Pad1)*%
X163450000Y-102900000D03*
%TD*%
%TO.P,R4,1*%
%TO.N,Net-(D1-Pad1)*%
X163450000Y-96500000D03*
D11*
%TO.P,R4,2*%
%TO.N,Net-(Q1-Pad3)*%
X155830000Y-96500000D03*
%TD*%
D20*
%TO.P,U1,1*%
%TO.N,/RST*%
X141280000Y-110530000D03*
%TO.P,U1,2*%
%TO.N,Net-(PB2-Pad3)*%
X141280000Y-113070000D03*
%TO.P,U1,3*%
%TO.N,Net-(PB3-Pad3)*%
X141280000Y-115610000D03*
%TO.P,U1,4*%
%TO.N,GND*%
X141280000Y-118150000D03*
%TO.P,U1,5*%
%TO.N,/MOSI*%
X148900000Y-118150000D03*
%TO.P,U1,6*%
%TO.N,Net-(J1-Pad1)*%
X148900000Y-115610000D03*
%TO.P,U1,7*%
%TO.N,/SCK*%
X148900000Y-113070000D03*
%TO.P,U1,8*%
%TO.N,/3V*%
X148900000Y-110530000D03*
%TD*%
D21*
%TO.N,/3V*%
X139800000Y-135000000D02*
X139800000Y-126738000D01*
X139800000Y-126738000D02*
X145748000Y-120790000D01*
X145748000Y-113682000D02*
X148900000Y-110530000D01*
X145748000Y-120790000D02*
X145748000Y-113682000D01*
X148900000Y-110530000D02*
X156008000Y-110530000D01*
X156008000Y-110530000D02*
X156670000Y-109868000D01*
X156670000Y-109868000D02*
X160988000Y-109868000D01*
X161540000Y-110420000D02*
X161540000Y-111920000D01*
X160988000Y-109868000D02*
X161540000Y-110420000D01*
X139800000Y-135000000D02*
X136082000Y-135000000D01*
X136082000Y-135000000D02*
X135080000Y-133998000D01*
X135080000Y-133998000D02*
X135080000Y-61354000D01*
X141684000Y-54750000D02*
X151210000Y-54750000D01*
X135080000Y-61354000D02*
X141684000Y-54750000D01*
%TO.N,Net-(D1-Pad1)*%
X163450000Y-102900000D02*
X163450000Y-96500000D01*
X167498000Y-96500000D02*
X163450000Y-96500000D01*
X168608000Y-95390000D02*
X167498000Y-96500000D01*
X168608000Y-61100000D02*
X168608000Y-95390000D01*
X162258000Y-54750000D02*
X168608000Y-61100000D01*
X153750000Y-54750000D02*
X162258000Y-54750000D01*
D22*
%TO.N,/SCK*%
X148900000Y-113070000D02*
X151490000Y-113070000D01*
X152880000Y-114460000D02*
X159000000Y-114460000D01*
X151490000Y-113070000D02*
X152880000Y-114460000D01*
%TO.N,Net-(J1-Pad1)*%
X156850000Y-86980000D02*
X163350000Y-86980000D01*
%TO.N,/RST*%
X156850000Y-61580000D02*
X163350000Y-61580000D01*
X139044000Y-110530000D02*
X141280000Y-110530000D01*
X138382000Y-109868000D02*
X139044000Y-110530000D01*
X138382000Y-71514000D02*
X138382000Y-109868000D01*
X139906000Y-69990000D02*
X138382000Y-71514000D01*
X149304000Y-69990000D02*
X139906000Y-69990000D01*
X151082000Y-63894000D02*
X151082000Y-68212000D01*
X153396000Y-61580000D02*
X151082000Y-63894000D01*
X151082000Y-68212000D02*
X149304000Y-69990000D01*
X156850000Y-61580000D02*
X153396000Y-61580000D01*
%TO.N,/MOSI*%
X156850000Y-74280000D02*
X163350000Y-74280000D01*
X148900000Y-118150000D02*
X154792000Y-118150000D01*
X154792000Y-118150000D02*
X156162000Y-119520000D01*
X156162000Y-119520000D02*
X163274000Y-119520000D01*
X163274000Y-119520000D02*
X164290000Y-118504000D01*
X164290000Y-118504000D02*
X164290000Y-115202000D01*
X163548000Y-114460000D02*
X161540000Y-114460000D01*
X164290000Y-115202000D02*
X163548000Y-114460000D01*
X160226000Y-95390000D02*
X160226000Y-107582000D01*
X158956000Y-94120000D02*
X160226000Y-95390000D01*
X154892000Y-94120000D02*
X158956000Y-94120000D01*
X153368000Y-92596000D02*
X154892000Y-94120000D01*
X153368000Y-75522000D02*
X153368000Y-92596000D01*
X154610000Y-74280000D02*
X153368000Y-75522000D01*
X156850000Y-74280000D02*
X154610000Y-74280000D01*
X160226000Y-107582000D02*
X160988000Y-108344000D01*
X160988000Y-108344000D02*
X163528000Y-108344000D01*
X164290000Y-113718000D02*
X163548000Y-114460000D01*
X164290000Y-109106000D02*
X164290000Y-113718000D01*
X163528000Y-108344000D02*
X164290000Y-109106000D01*
%TO.N,Net-(PB2-Pad3)*%
X141610000Y-61580000D02*
X148110000Y-61580000D01*
X138028000Y-113070000D02*
X141280000Y-113070000D01*
X136858000Y-111900000D02*
X138028000Y-113070000D01*
X136858000Y-63386000D02*
X136858000Y-111900000D01*
X138664000Y-61580000D02*
X136858000Y-63386000D01*
X141610000Y-61580000D02*
X138664000Y-61580000D01*
%TO.N,Net-(PB3-Pad3)*%
X141610000Y-74280000D02*
X148110000Y-74280000D01*
X148110000Y-74280000D02*
X150038000Y-74280000D01*
X150038000Y-74280000D02*
X151082000Y-75324000D01*
X151082000Y-75324000D02*
X151082000Y-95898000D01*
X151082000Y-95898000D02*
X149558000Y-97422000D01*
X141280000Y-115610000D02*
X142546000Y-115610000D01*
X142546000Y-115610000D02*
X143208000Y-114948000D01*
X143208000Y-98692000D02*
X144478000Y-97422000D01*
X143208000Y-114948000D02*
X143208000Y-98692000D01*
X149558000Y-97422000D02*
X144478000Y-97422000D01*
%TO.N,Net-(Q1-Pad2)*%
X151886000Y-106100000D02*
X155850000Y-106100000D01*
X150828000Y-105042000D02*
X151886000Y-106100000D01*
X150828000Y-101740000D02*
X150828000Y-105042000D01*
X150088000Y-101000000D02*
X150828000Y-101740000D01*
X148288000Y-101000000D02*
X150088000Y-101000000D01*
D21*
%TO.N,Net-(Q1-Pad3)*%
X155830000Y-102900000D02*
X155830000Y-96500000D01*
X155800000Y-99730000D02*
X155830000Y-99700000D01*
X148288000Y-99730000D02*
X155800000Y-99730000D01*
%TD*%
D23*
%TO.N,GND*%
X149255400Y-53942500D02*
X141723657Y-53942500D01*
X141683999Y-53938594D01*
X141644341Y-53942500D01*
X141644332Y-53942500D01*
X141525702Y-53954184D01*
X141373488Y-54000358D01*
X141233206Y-54075340D01*
X141110249Y-54176249D01*
X141084962Y-54207061D01*
X134537056Y-60754967D01*
X134506250Y-60780249D01*
X134480968Y-60811055D01*
X134480962Y-60811061D01*
X134405340Y-60903207D01*
X134330358Y-61043489D01*
X134284184Y-61195703D01*
X134268594Y-61354000D01*
X134272501Y-61393671D01*
X134272500Y-133958339D01*
X134268594Y-133998000D01*
X134272500Y-134037661D01*
X134272500Y-134037667D01*
X134284184Y-134156297D01*
X134330358Y-134308511D01*
X134405340Y-134448793D01*
X134506249Y-134571751D01*
X134537060Y-134597038D01*
X135482967Y-135542945D01*
X135508249Y-135573751D01*
X135539055Y-135599033D01*
X135539060Y-135599038D01*
X135631206Y-135674660D01*
X135771488Y-135749642D01*
X135923702Y-135795816D01*
X136042332Y-135807500D01*
X136042339Y-135807500D01*
X136082000Y-135811406D01*
X136121661Y-135807500D01*
X138373157Y-135807500D01*
X138530013Y-136042252D01*
X138757748Y-136269987D01*
X139025537Y-136448918D01*
X139323088Y-136572168D01*
X139638967Y-136635000D01*
X139961033Y-136635000D01*
X140276912Y-136572168D01*
X140574463Y-136448918D01*
X140842252Y-136269987D01*
X140976826Y-136135413D01*
X156844192Y-136135413D01*
X156939956Y-136399814D01*
X157229571Y-136540704D01*
X157541108Y-136622384D01*
X157862595Y-136641718D01*
X158181675Y-136597961D01*
X158486088Y-136492795D01*
X158660044Y-136399814D01*
X158755808Y-136135413D01*
X157800000Y-135179605D01*
X156844192Y-136135413D01*
X140976826Y-136135413D01*
X141069987Y-136042252D01*
X141248918Y-135774463D01*
X141372168Y-135476912D01*
X141435000Y-135161033D01*
X141435000Y-135062595D01*
X156158282Y-135062595D01*
X156202039Y-135381675D01*
X156307205Y-135686088D01*
X156400186Y-135860044D01*
X156664587Y-135955808D01*
X157620395Y-135000000D01*
X157979605Y-135000000D01*
X158935413Y-135955808D01*
X159199814Y-135860044D01*
X159340704Y-135570429D01*
X159422384Y-135258892D01*
X159441718Y-134937405D01*
X159397961Y-134618325D01*
X159292795Y-134313912D01*
X159199814Y-134139956D01*
X158935413Y-134044192D01*
X157979605Y-135000000D01*
X157620395Y-135000000D01*
X156664587Y-134044192D01*
X156400186Y-134139956D01*
X156259296Y-134429571D01*
X156177616Y-134741108D01*
X156158282Y-135062595D01*
X141435000Y-135062595D01*
X141435000Y-134838967D01*
X141372168Y-134523088D01*
X141248918Y-134225537D01*
X141069987Y-133957748D01*
X140976826Y-133864587D01*
X156844192Y-133864587D01*
X157800000Y-134820395D01*
X158755808Y-133864587D01*
X158660044Y-133600186D01*
X158370429Y-133459296D01*
X158058892Y-133377616D01*
X157737405Y-133358282D01*
X157418325Y-133402039D01*
X157113912Y-133507205D01*
X156939956Y-133600186D01*
X156844192Y-133864587D01*
X140976826Y-133864587D01*
X140842252Y-133730013D01*
X140607500Y-133573157D01*
X140607500Y-130209419D01*
X142595000Y-130209419D01*
X142595000Y-130590581D01*
X142669361Y-130964419D01*
X142815225Y-131316566D01*
X143026987Y-131633491D01*
X143296509Y-131903013D01*
X143613434Y-132114775D01*
X143965581Y-132260639D01*
X144339419Y-132335000D01*
X144720581Y-132335000D01*
X145094419Y-132260639D01*
X145446566Y-132114775D01*
X145763491Y-131903013D01*
X146033013Y-131633491D01*
X146244775Y-131316566D01*
X146390639Y-130964419D01*
X146465000Y-130590581D01*
X146465000Y-130209419D01*
X158525000Y-130209419D01*
X158525000Y-130590581D01*
X158599361Y-130964419D01*
X158745225Y-131316566D01*
X158956987Y-131633491D01*
X159226509Y-131903013D01*
X159543434Y-132114775D01*
X159895581Y-132260639D01*
X160269419Y-132335000D01*
X160650581Y-132335000D01*
X161024419Y-132260639D01*
X161376566Y-132114775D01*
X161693491Y-131903013D01*
X161963013Y-131633491D01*
X162174775Y-131316566D01*
X162320639Y-130964419D01*
X162395000Y-130590581D01*
X162395000Y-130209419D01*
X162320639Y-129835581D01*
X162174775Y-129483434D01*
X161963013Y-129166509D01*
X161693491Y-128896987D01*
X161376566Y-128685225D01*
X161024419Y-128539361D01*
X160650581Y-128465000D01*
X160269419Y-128465000D01*
X159895581Y-128539361D01*
X159543434Y-128685225D01*
X159226509Y-128896987D01*
X158956987Y-129166509D01*
X158745225Y-129483434D01*
X158599361Y-129835581D01*
X158525000Y-130209419D01*
X146465000Y-130209419D01*
X146390639Y-129835581D01*
X146244775Y-129483434D01*
X146033013Y-129166509D01*
X145763491Y-128896987D01*
X145446566Y-128685225D01*
X145094419Y-128539361D01*
X144720581Y-128465000D01*
X144339419Y-128465000D01*
X143965581Y-128539361D01*
X143613434Y-128685225D01*
X143296509Y-128896987D01*
X143026987Y-129166509D01*
X142815225Y-129483434D01*
X142669361Y-129835581D01*
X142595000Y-130209419D01*
X140607500Y-130209419D01*
X140607500Y-127072477D01*
X146290946Y-121389032D01*
X146321751Y-121363751D01*
X146347033Y-121332945D01*
X146347038Y-121332940D01*
X146422660Y-121240794D01*
X146422661Y-121240793D01*
X146497642Y-121100512D01*
X146543816Y-120948298D01*
X146555500Y-120829668D01*
X146555500Y-120829659D01*
X146559406Y-120790001D01*
X146555500Y-120750343D01*
X146555500Y-114016477D01*
X147503000Y-113068977D01*
X147503000Y-113207592D01*
X147556686Y-113477490D01*
X147661995Y-113731727D01*
X147814880Y-113960535D01*
X148009465Y-114155120D01*
X148238273Y-114308005D01*
X148315515Y-114340000D01*
X148238273Y-114371995D01*
X148009465Y-114524880D01*
X147814880Y-114719465D01*
X147661995Y-114948273D01*
X147556686Y-115202510D01*
X147503000Y-115472408D01*
X147503000Y-115747592D01*
X147556686Y-116017490D01*
X147661995Y-116271727D01*
X147814880Y-116500535D01*
X148009465Y-116695120D01*
X148238273Y-116848005D01*
X148315515Y-116880000D01*
X148238273Y-116911995D01*
X148009465Y-117064880D01*
X147814880Y-117259465D01*
X147661995Y-117488273D01*
X147556686Y-117742510D01*
X147503000Y-118012408D01*
X147503000Y-118287592D01*
X147556686Y-118557490D01*
X147661995Y-118811727D01*
X147814880Y-119040535D01*
X148009465Y-119235120D01*
X148238273Y-119388005D01*
X148492510Y-119493314D01*
X148762408Y-119547000D01*
X149037592Y-119547000D01*
X149307490Y-119493314D01*
X149561727Y-119388005D01*
X149790535Y-119235120D01*
X149985120Y-119040535D01*
X150072341Y-118910000D01*
X154477199Y-118910000D01*
X155598201Y-120031003D01*
X155621999Y-120060001D01*
X155650997Y-120083799D01*
X155737724Y-120154974D01*
X155869753Y-120225546D01*
X156013014Y-120269003D01*
X156162000Y-120283677D01*
X156199333Y-120280000D01*
X163236678Y-120280000D01*
X163274000Y-120283676D01*
X163311322Y-120280000D01*
X163311333Y-120280000D01*
X163422986Y-120269003D01*
X163566247Y-120225546D01*
X163698276Y-120154974D01*
X163814001Y-120060001D01*
X163837804Y-120030998D01*
X164801004Y-119067798D01*
X164830001Y-119044001D01*
X164882526Y-118979999D01*
X164924974Y-118928277D01*
X164995546Y-118796247D01*
X164995546Y-118796246D01*
X165039003Y-118652986D01*
X165050000Y-118541333D01*
X165050000Y-118541323D01*
X165053676Y-118504000D01*
X165050000Y-118466678D01*
X165050000Y-115239322D01*
X165053676Y-115201999D01*
X165050000Y-115164676D01*
X165050000Y-115164667D01*
X165039003Y-115053014D01*
X164995546Y-114909753D01*
X164924974Y-114777724D01*
X164904065Y-114752246D01*
X164853799Y-114690996D01*
X164853795Y-114690992D01*
X164830001Y-114661999D01*
X164801008Y-114638205D01*
X164622802Y-114460000D01*
X164801008Y-114281795D01*
X164830001Y-114258001D01*
X164853795Y-114229008D01*
X164853799Y-114229004D01*
X164924973Y-114142277D01*
X164924974Y-114142276D01*
X164995546Y-114010247D01*
X165039003Y-113866986D01*
X165050000Y-113755333D01*
X165050000Y-113755324D01*
X165053676Y-113718001D01*
X165050000Y-113680678D01*
X165050000Y-109143325D01*
X165053676Y-109106000D01*
X165050000Y-109068675D01*
X165050000Y-109068667D01*
X165039003Y-108957014D01*
X164995546Y-108813753D01*
X164924974Y-108681724D01*
X164830001Y-108565999D01*
X164801004Y-108542202D01*
X164091803Y-107833002D01*
X164068001Y-107803999D01*
X163952276Y-107709026D01*
X163820247Y-107638454D01*
X163676986Y-107594997D01*
X163565333Y-107584000D01*
X163565322Y-107584000D01*
X163528000Y-107580324D01*
X163490678Y-107584000D01*
X161302802Y-107584000D01*
X160986000Y-107267199D01*
X160986000Y-105958665D01*
X162035000Y-105958665D01*
X162035000Y-106241335D01*
X162090147Y-106518574D01*
X162198320Y-106779727D01*
X162355363Y-107014759D01*
X162555241Y-107214637D01*
X162790273Y-107371680D01*
X163051426Y-107479853D01*
X163328665Y-107535000D01*
X163611335Y-107535000D01*
X163888574Y-107479853D01*
X164149727Y-107371680D01*
X164384759Y-107214637D01*
X164584637Y-107014759D01*
X164741680Y-106779727D01*
X164849853Y-106518574D01*
X164905000Y-106241335D01*
X164905000Y-105958665D01*
X164849853Y-105681426D01*
X164741680Y-105420273D01*
X164584637Y-105185241D01*
X164384759Y-104985363D01*
X164149727Y-104828320D01*
X163888574Y-104720147D01*
X163611335Y-104665000D01*
X163328665Y-104665000D01*
X163051426Y-104720147D01*
X162790273Y-104828320D01*
X162555241Y-104985363D01*
X162355363Y-105185241D01*
X162198320Y-105420273D01*
X162090147Y-105681426D01*
X162035000Y-105958665D01*
X160986000Y-105958665D01*
X160986000Y-95427322D01*
X160989676Y-95389999D01*
X160986000Y-95352676D01*
X160986000Y-95352667D01*
X160975003Y-95241014D01*
X160931546Y-95097753D01*
X160860974Y-94965724D01*
X160766001Y-94849999D01*
X160737004Y-94826202D01*
X159519804Y-93609003D01*
X159496001Y-93579999D01*
X159380276Y-93485026D01*
X159248247Y-93414454D01*
X159104986Y-93370997D01*
X158993333Y-93360000D01*
X158993322Y-93360000D01*
X158956000Y-93356324D01*
X158918678Y-93360000D01*
X155206803Y-93360000D01*
X154533514Y-92686712D01*
X155822893Y-92686712D01*
X155930726Y-92961338D01*
X156237384Y-93112216D01*
X156567585Y-93200369D01*
X156908639Y-93222409D01*
X157247439Y-93177489D01*
X157570966Y-93067336D01*
X157769274Y-92961338D01*
X157877107Y-92686712D01*
X157770395Y-92580000D01*
X161611928Y-92580000D01*
X161624188Y-92704482D01*
X161660498Y-92824180D01*
X161719463Y-92934494D01*
X161798815Y-93031185D01*
X161895506Y-93110537D01*
X162005820Y-93169502D01*
X162125518Y-93205812D01*
X162250000Y-93218072D01*
X163064250Y-93215000D01*
X163223000Y-93056250D01*
X163223000Y-91607000D01*
X163477000Y-91607000D01*
X163477000Y-93056250D01*
X163635750Y-93215000D01*
X164450000Y-93218072D01*
X164574482Y-93205812D01*
X164694180Y-93169502D01*
X164804494Y-93110537D01*
X164901185Y-93031185D01*
X164980537Y-92934494D01*
X165039502Y-92824180D01*
X165075812Y-92704482D01*
X165088072Y-92580000D01*
X165085000Y-91765750D01*
X164926250Y-91607000D01*
X163477000Y-91607000D01*
X163223000Y-91607000D01*
X161773750Y-91607000D01*
X161615000Y-91765750D01*
X161611928Y-92580000D01*
X157770395Y-92580000D01*
X156850000Y-91659605D01*
X155822893Y-92686712D01*
X154533514Y-92686712D01*
X154128000Y-92281199D01*
X154128000Y-91538639D01*
X155107591Y-91538639D01*
X155152511Y-91877439D01*
X155262664Y-92200966D01*
X155368662Y-92399274D01*
X155643288Y-92507107D01*
X156670395Y-91480000D01*
X157029605Y-91480000D01*
X158056712Y-92507107D01*
X158331338Y-92399274D01*
X158482216Y-92092616D01*
X158570369Y-91762415D01*
X158592409Y-91421361D01*
X158547489Y-91082561D01*
X158437336Y-90759034D01*
X158331338Y-90560726D01*
X158056712Y-90452893D01*
X157029605Y-91480000D01*
X156670395Y-91480000D01*
X155643288Y-90452893D01*
X155368662Y-90560726D01*
X155217784Y-90867384D01*
X155129631Y-91197585D01*
X155107591Y-91538639D01*
X154128000Y-91538639D01*
X154128000Y-90273288D01*
X155822893Y-90273288D01*
X156850000Y-91300395D01*
X157770395Y-90380000D01*
X161611928Y-90380000D01*
X161615000Y-91194250D01*
X161773750Y-91353000D01*
X163223000Y-91353000D01*
X163223000Y-89903750D01*
X163477000Y-89903750D01*
X163477000Y-91353000D01*
X164926250Y-91353000D01*
X165085000Y-91194250D01*
X165088072Y-90380000D01*
X165075812Y-90255518D01*
X165039502Y-90135820D01*
X164980537Y-90025506D01*
X164901185Y-89928815D01*
X164804494Y-89849463D01*
X164694180Y-89790498D01*
X164574482Y-89754188D01*
X164450000Y-89741928D01*
X163635750Y-89745000D01*
X163477000Y-89903750D01*
X163223000Y-89903750D01*
X163064250Y-89745000D01*
X162250000Y-89741928D01*
X162125518Y-89754188D01*
X162005820Y-89790498D01*
X161895506Y-89849463D01*
X161798815Y-89928815D01*
X161719463Y-90025506D01*
X161660498Y-90135820D01*
X161624188Y-90255518D01*
X161611928Y-90380000D01*
X157770395Y-90380000D01*
X157877107Y-90273288D01*
X157769274Y-89998662D01*
X157462616Y-89847784D01*
X157132415Y-89759631D01*
X156791361Y-89737591D01*
X156452561Y-89782511D01*
X156129034Y-89892664D01*
X155930726Y-89998662D01*
X155822893Y-90273288D01*
X154128000Y-90273288D01*
X154128000Y-86809117D01*
X155115000Y-86809117D01*
X155115000Y-87150883D01*
X155181675Y-87486081D01*
X155312463Y-87801831D01*
X155502337Y-88085998D01*
X155744002Y-88327663D01*
X156028169Y-88517537D01*
X156343919Y-88648325D01*
X156679117Y-88715000D01*
X157020883Y-88715000D01*
X157356081Y-88648325D01*
X157671831Y-88517537D01*
X157955998Y-88327663D01*
X158197663Y-88085998D01*
X158387537Y-87801831D01*
X158413148Y-87740000D01*
X161786852Y-87740000D01*
X161812463Y-87801831D01*
X162002337Y-88085998D01*
X162244002Y-88327663D01*
X162528169Y-88517537D01*
X162843919Y-88648325D01*
X163179117Y-88715000D01*
X163520883Y-88715000D01*
X163856081Y-88648325D01*
X164171831Y-88517537D01*
X164455998Y-88327663D01*
X164697663Y-88085998D01*
X164887537Y-87801831D01*
X165018325Y-87486081D01*
X165085000Y-87150883D01*
X165085000Y-86809117D01*
X165018325Y-86473919D01*
X164887537Y-86158169D01*
X164697663Y-85874002D01*
X164455998Y-85632337D01*
X164171831Y-85442463D01*
X163856081Y-85311675D01*
X163520883Y-85245000D01*
X163179117Y-85245000D01*
X162843919Y-85311675D01*
X162528169Y-85442463D01*
X162244002Y-85632337D01*
X162002337Y-85874002D01*
X161812463Y-86158169D01*
X161786852Y-86220000D01*
X158413148Y-86220000D01*
X158387537Y-86158169D01*
X158197663Y-85874002D01*
X157955998Y-85632337D01*
X157671831Y-85442463D01*
X157356081Y-85311675D01*
X157020883Y-85245000D01*
X156679117Y-85245000D01*
X156343919Y-85311675D01*
X156028169Y-85442463D01*
X155744002Y-85632337D01*
X155502337Y-85874002D01*
X155312463Y-86158169D01*
X155181675Y-86473919D01*
X155115000Y-86809117D01*
X154128000Y-86809117D01*
X154128000Y-79986712D01*
X155822893Y-79986712D01*
X155930726Y-80261338D01*
X156237384Y-80412216D01*
X156567585Y-80500369D01*
X156908639Y-80522409D01*
X157247439Y-80477489D01*
X157570966Y-80367336D01*
X157769274Y-80261338D01*
X157877107Y-79986712D01*
X157770395Y-79880000D01*
X161611928Y-79880000D01*
X161624188Y-80004482D01*
X161660498Y-80124180D01*
X161719463Y-80234494D01*
X161798815Y-80331185D01*
X161895506Y-80410537D01*
X162005820Y-80469502D01*
X162125518Y-80505812D01*
X162250000Y-80518072D01*
X163064250Y-80515000D01*
X163223000Y-80356250D01*
X163223000Y-78907000D01*
X163477000Y-78907000D01*
X163477000Y-80356250D01*
X163635750Y-80515000D01*
X164450000Y-80518072D01*
X164574482Y-80505812D01*
X164694180Y-80469502D01*
X164804494Y-80410537D01*
X164901185Y-80331185D01*
X164980537Y-80234494D01*
X165039502Y-80124180D01*
X165075812Y-80004482D01*
X165088072Y-79880000D01*
X165085000Y-79065750D01*
X164926250Y-78907000D01*
X163477000Y-78907000D01*
X163223000Y-78907000D01*
X161773750Y-78907000D01*
X161615000Y-79065750D01*
X161611928Y-79880000D01*
X157770395Y-79880000D01*
X156850000Y-78959605D01*
X155822893Y-79986712D01*
X154128000Y-79986712D01*
X154128000Y-78838639D01*
X155107591Y-78838639D01*
X155152511Y-79177439D01*
X155262664Y-79500966D01*
X155368662Y-79699274D01*
X155643288Y-79807107D01*
X156670395Y-78780000D01*
X157029605Y-78780000D01*
X158056712Y-79807107D01*
X158331338Y-79699274D01*
X158482216Y-79392616D01*
X158570369Y-79062415D01*
X158592409Y-78721361D01*
X158547489Y-78382561D01*
X158437336Y-78059034D01*
X158331338Y-77860726D01*
X158056712Y-77752893D01*
X157029605Y-78780000D01*
X156670395Y-78780000D01*
X155643288Y-77752893D01*
X155368662Y-77860726D01*
X155217784Y-78167384D01*
X155129631Y-78497585D01*
X155107591Y-78838639D01*
X154128000Y-78838639D01*
X154128000Y-77573288D01*
X155822893Y-77573288D01*
X156850000Y-78600395D01*
X157770395Y-77680000D01*
X161611928Y-77680000D01*
X161615000Y-78494250D01*
X161773750Y-78653000D01*
X163223000Y-78653000D01*
X163223000Y-77203750D01*
X163477000Y-77203750D01*
X163477000Y-78653000D01*
X164926250Y-78653000D01*
X165085000Y-78494250D01*
X165088072Y-77680000D01*
X165075812Y-77555518D01*
X165039502Y-77435820D01*
X164980537Y-77325506D01*
X164901185Y-77228815D01*
X164804494Y-77149463D01*
X164694180Y-77090498D01*
X164574482Y-77054188D01*
X164450000Y-77041928D01*
X163635750Y-77045000D01*
X163477000Y-77203750D01*
X163223000Y-77203750D01*
X163064250Y-77045000D01*
X162250000Y-77041928D01*
X162125518Y-77054188D01*
X162005820Y-77090498D01*
X161895506Y-77149463D01*
X161798815Y-77228815D01*
X161719463Y-77325506D01*
X161660498Y-77435820D01*
X161624188Y-77555518D01*
X161611928Y-77680000D01*
X157770395Y-77680000D01*
X157877107Y-77573288D01*
X157769274Y-77298662D01*
X157462616Y-77147784D01*
X157132415Y-77059631D01*
X156791361Y-77037591D01*
X156452561Y-77082511D01*
X156129034Y-77192664D01*
X155930726Y-77298662D01*
X155822893Y-77573288D01*
X154128000Y-77573288D01*
X154128000Y-75836801D01*
X154924802Y-75040000D01*
X155286852Y-75040000D01*
X155312463Y-75101831D01*
X155502337Y-75385998D01*
X155744002Y-75627663D01*
X156028169Y-75817537D01*
X156343919Y-75948325D01*
X156679117Y-76015000D01*
X157020883Y-76015000D01*
X157356081Y-75948325D01*
X157671831Y-75817537D01*
X157955998Y-75627663D01*
X158197663Y-75385998D01*
X158387537Y-75101831D01*
X158413148Y-75040000D01*
X161786852Y-75040000D01*
X161812463Y-75101831D01*
X162002337Y-75385998D01*
X162244002Y-75627663D01*
X162528169Y-75817537D01*
X162843919Y-75948325D01*
X163179117Y-76015000D01*
X163520883Y-76015000D01*
X163856081Y-75948325D01*
X164171831Y-75817537D01*
X164455998Y-75627663D01*
X164697663Y-75385998D01*
X164887537Y-75101831D01*
X165018325Y-74786081D01*
X165085000Y-74450883D01*
X165085000Y-74109117D01*
X165018325Y-73773919D01*
X164887537Y-73458169D01*
X164697663Y-73174002D01*
X164455998Y-72932337D01*
X164171831Y-72742463D01*
X163856081Y-72611675D01*
X163520883Y-72545000D01*
X163179117Y-72545000D01*
X162843919Y-72611675D01*
X162528169Y-72742463D01*
X162244002Y-72932337D01*
X162002337Y-73174002D01*
X161812463Y-73458169D01*
X161786852Y-73520000D01*
X158413148Y-73520000D01*
X158387537Y-73458169D01*
X158197663Y-73174002D01*
X157955998Y-72932337D01*
X157671831Y-72742463D01*
X157356081Y-72611675D01*
X157020883Y-72545000D01*
X156679117Y-72545000D01*
X156343919Y-72611675D01*
X156028169Y-72742463D01*
X155744002Y-72932337D01*
X155502337Y-73174002D01*
X155312463Y-73458169D01*
X155286852Y-73520000D01*
X154647322Y-73520000D01*
X154609999Y-73516324D01*
X154572676Y-73520000D01*
X154572667Y-73520000D01*
X154461014Y-73530997D01*
X154317753Y-73574454D01*
X154185724Y-73645026D01*
X154069999Y-73739999D01*
X154046201Y-73768997D01*
X152857003Y-74958196D01*
X152827999Y-74981999D01*
X152787167Y-75031754D01*
X152733026Y-75097724D01*
X152691713Y-75175015D01*
X152662454Y-75229754D01*
X152618997Y-75373015D01*
X152608000Y-75484668D01*
X152608000Y-75484678D01*
X152604324Y-75522000D01*
X152608000Y-75559322D01*
X152608001Y-92558667D01*
X152604324Y-92596000D01*
X152608001Y-92633333D01*
X152613259Y-92686712D01*
X152618998Y-92744985D01*
X152662454Y-92888246D01*
X152733026Y-93020276D01*
X152771648Y-93067336D01*
X152828000Y-93136001D01*
X152856998Y-93159799D01*
X154328205Y-94631008D01*
X154351999Y-94660001D01*
X154380992Y-94683795D01*
X154380996Y-94683799D01*
X154451685Y-94741811D01*
X154467724Y-94754974D01*
X154599753Y-94825546D01*
X154743014Y-94869003D01*
X154854667Y-94880000D01*
X154854676Y-94880000D01*
X154891999Y-94883676D01*
X154929322Y-94880000D01*
X158641199Y-94880000D01*
X159466000Y-95704802D01*
X159466001Y-107544668D01*
X159462324Y-107582000D01*
X159476998Y-107730985D01*
X159520454Y-107874246D01*
X159591026Y-108006276D01*
X159662201Y-108093002D01*
X159686000Y-108122001D01*
X159714998Y-108145799D01*
X160424201Y-108855002D01*
X160447999Y-108884001D01*
X160563724Y-108978974D01*
X160695753Y-109049546D01*
X160731864Y-109060500D01*
X156709657Y-109060500D01*
X156669999Y-109056594D01*
X156630341Y-109060500D01*
X156630332Y-109060500D01*
X156511702Y-109072184D01*
X156359488Y-109118358D01*
X156219206Y-109193340D01*
X156096249Y-109294249D01*
X156070962Y-109325061D01*
X155673523Y-109722500D01*
X150040602Y-109722500D01*
X149985120Y-109639465D01*
X149790535Y-109444880D01*
X149561727Y-109291995D01*
X149307490Y-109186686D01*
X149037592Y-109133000D01*
X148762408Y-109133000D01*
X148492510Y-109186686D01*
X148238273Y-109291995D01*
X148009465Y-109444880D01*
X147814880Y-109639465D01*
X147661995Y-109868273D01*
X147556686Y-110122510D01*
X147503000Y-110392408D01*
X147503000Y-110667592D01*
X147522483Y-110765539D01*
X145205056Y-113082967D01*
X145174250Y-113108249D01*
X145148968Y-113139055D01*
X145148962Y-113139061D01*
X145073340Y-113231207D01*
X144998358Y-113371489D01*
X144952184Y-113523703D01*
X144936594Y-113682000D01*
X144940501Y-113721671D01*
X144940500Y-120455522D01*
X139257056Y-126138967D01*
X139226250Y-126164249D01*
X139200968Y-126195055D01*
X139200962Y-126195061D01*
X139125340Y-126287207D01*
X139050358Y-126427489D01*
X139004184Y-126579703D01*
X138988594Y-126738000D01*
X138992501Y-126777671D01*
X138992500Y-133573157D01*
X138757748Y-133730013D01*
X138530013Y-133957748D01*
X138373157Y-134192500D01*
X136416478Y-134192500D01*
X135887500Y-133663523D01*
X135887500Y-119115565D01*
X140494040Y-119115565D01*
X140561020Y-119355656D01*
X140810048Y-119472756D01*
X141077135Y-119539023D01*
X141352017Y-119551910D01*
X141624133Y-119510922D01*
X141883023Y-119417636D01*
X141998980Y-119355656D01*
X142065960Y-119115565D01*
X141280000Y-118329605D01*
X140494040Y-119115565D01*
X135887500Y-119115565D01*
X135887500Y-118222017D01*
X139878090Y-118222017D01*
X139919078Y-118494133D01*
X140012364Y-118753023D01*
X140074344Y-118868980D01*
X140314435Y-118935960D01*
X141100395Y-118150000D01*
X141459605Y-118150000D01*
X142245565Y-118935960D01*
X142485656Y-118868980D01*
X142602756Y-118619952D01*
X142669023Y-118352865D01*
X142681910Y-118077983D01*
X142640922Y-117805867D01*
X142547636Y-117546977D01*
X142485656Y-117431020D01*
X142245565Y-117364040D01*
X141459605Y-118150000D01*
X141100395Y-118150000D01*
X140314435Y-117364040D01*
X140074344Y-117431020D01*
X139957244Y-117680048D01*
X139890977Y-117947135D01*
X139878090Y-118222017D01*
X135887500Y-118222017D01*
X135887500Y-63386000D01*
X136094324Y-63386000D01*
X136098000Y-63423322D01*
X136098001Y-111862667D01*
X136094324Y-111900000D01*
X136108998Y-112048985D01*
X136152454Y-112192246D01*
X136223026Y-112324276D01*
X136294201Y-112411002D01*
X136318000Y-112440001D01*
X136346998Y-112463799D01*
X137464200Y-113581002D01*
X137487999Y-113610001D01*
X137603724Y-113704974D01*
X137735753Y-113775546D01*
X137879014Y-113819003D01*
X137990667Y-113830000D01*
X137990677Y-113830000D01*
X138028000Y-113833676D01*
X138065323Y-113830000D01*
X140107659Y-113830000D01*
X140194880Y-113960535D01*
X140389465Y-114155120D01*
X140618273Y-114308005D01*
X140695515Y-114340000D01*
X140618273Y-114371995D01*
X140389465Y-114524880D01*
X140194880Y-114719465D01*
X140041995Y-114948273D01*
X139936686Y-115202510D01*
X139883000Y-115472408D01*
X139883000Y-115747592D01*
X139936686Y-116017490D01*
X140041995Y-116271727D01*
X140194880Y-116500535D01*
X140389465Y-116695120D01*
X140618273Y-116848005D01*
X140689943Y-116877692D01*
X140676977Y-116882364D01*
X140561020Y-116944344D01*
X140494040Y-117184435D01*
X141280000Y-117970395D01*
X142065960Y-117184435D01*
X141998980Y-116944344D01*
X141863240Y-116880515D01*
X141941727Y-116848005D01*
X142170535Y-116695120D01*
X142365120Y-116500535D01*
X142452341Y-116370000D01*
X142508678Y-116370000D01*
X142546000Y-116373676D01*
X142583322Y-116370000D01*
X142583333Y-116370000D01*
X142694986Y-116359003D01*
X142838247Y-116315546D01*
X142970276Y-116244974D01*
X143086001Y-116150001D01*
X143109803Y-116120998D01*
X143719009Y-115511794D01*
X143748001Y-115488001D01*
X143771795Y-115459008D01*
X143771799Y-115459004D01*
X143842973Y-115372277D01*
X143842974Y-115372276D01*
X143913546Y-115240247D01*
X143957003Y-115096986D01*
X143968000Y-114985333D01*
X143968000Y-114985324D01*
X143971676Y-114948001D01*
X143968000Y-114910678D01*
X143968000Y-102770000D01*
X146899928Y-102770000D01*
X146912188Y-102894482D01*
X146948498Y-103014180D01*
X147007463Y-103124494D01*
X147086815Y-103221185D01*
X147183506Y-103300537D01*
X147293820Y-103359502D01*
X147413518Y-103395812D01*
X147538000Y-103408072D01*
X148002250Y-103405000D01*
X148161000Y-103246250D01*
X148161000Y-102397000D01*
X148415000Y-102397000D01*
X148415000Y-103246250D01*
X148573750Y-103405000D01*
X149038000Y-103408072D01*
X149162482Y-103395812D01*
X149282180Y-103359502D01*
X149392494Y-103300537D01*
X149489185Y-103221185D01*
X149568537Y-103124494D01*
X149627502Y-103014180D01*
X149663812Y-102894482D01*
X149676072Y-102770000D01*
X149673000Y-102555750D01*
X149514250Y-102397000D01*
X148415000Y-102397000D01*
X148161000Y-102397000D01*
X147061750Y-102397000D01*
X146903000Y-102555750D01*
X146899928Y-102770000D01*
X143968000Y-102770000D01*
X143968000Y-99730000D01*
X146897509Y-99730000D01*
X146919423Y-99952499D01*
X146984324Y-100166447D01*
X147089716Y-100363623D01*
X147090846Y-100365000D01*
X147089716Y-100366377D01*
X146984324Y-100563553D01*
X146919423Y-100777501D01*
X146897509Y-101000000D01*
X146919423Y-101222499D01*
X146984324Y-101436447D01*
X146990297Y-101447621D01*
X146948498Y-101525820D01*
X146912188Y-101645518D01*
X146899928Y-101770000D01*
X146903000Y-101984250D01*
X147061750Y-102143000D01*
X148161000Y-102143000D01*
X148161000Y-102135000D01*
X148415000Y-102135000D01*
X148415000Y-102143000D01*
X149514250Y-102143000D01*
X149673000Y-101984250D01*
X149676072Y-101770000D01*
X149675087Y-101760000D01*
X149773199Y-101760000D01*
X150068000Y-102054802D01*
X150068001Y-105004668D01*
X150064324Y-105042000D01*
X150078998Y-105190985D01*
X150122454Y-105334246D01*
X150193026Y-105466276D01*
X150264201Y-105553002D01*
X150288000Y-105582001D01*
X150316998Y-105605799D01*
X151322201Y-106611003D01*
X151345999Y-106640001D01*
X151374997Y-106663799D01*
X151461723Y-106734974D01*
X151593753Y-106805546D01*
X151737014Y-106849003D01*
X151848667Y-106860000D01*
X151848677Y-106860000D01*
X151886000Y-106863676D01*
X151923323Y-106860000D01*
X154631957Y-106860000D01*
X154735363Y-107014759D01*
X154935241Y-107214637D01*
X155170273Y-107371680D01*
X155431426Y-107479853D01*
X155708665Y-107535000D01*
X155991335Y-107535000D01*
X156268574Y-107479853D01*
X156529727Y-107371680D01*
X156764759Y-107214637D01*
X156964637Y-107014759D01*
X157121680Y-106779727D01*
X157229853Y-106518574D01*
X157285000Y-106241335D01*
X157285000Y-105958665D01*
X157229853Y-105681426D01*
X157121680Y-105420273D01*
X156964637Y-105185241D01*
X156764759Y-104985363D01*
X156529727Y-104828320D01*
X156268574Y-104720147D01*
X155991335Y-104665000D01*
X155708665Y-104665000D01*
X155431426Y-104720147D01*
X155170273Y-104828320D01*
X154935241Y-104985363D01*
X154735363Y-105185241D01*
X154631957Y-105340000D01*
X152200802Y-105340000D01*
X151588000Y-104727199D01*
X151588000Y-101777322D01*
X151591676Y-101739999D01*
X151588000Y-101702676D01*
X151588000Y-101702667D01*
X151577003Y-101591014D01*
X151533546Y-101447753D01*
X151516309Y-101415506D01*
X151462974Y-101315723D01*
X151391799Y-101228997D01*
X151368001Y-101199999D01*
X151339004Y-101176202D01*
X150700301Y-100537500D01*
X154663740Y-100537500D01*
X154715363Y-100614759D01*
X154915241Y-100814637D01*
X155022500Y-100886305D01*
X155022500Y-101713695D01*
X154915241Y-101785363D01*
X154715363Y-101985241D01*
X154558320Y-102220273D01*
X154450147Y-102481426D01*
X154395000Y-102758665D01*
X154395000Y-103041335D01*
X154450147Y-103318574D01*
X154558320Y-103579727D01*
X154715363Y-103814759D01*
X154915241Y-104014637D01*
X155150273Y-104171680D01*
X155411426Y-104279853D01*
X155688665Y-104335000D01*
X155971335Y-104335000D01*
X156248574Y-104279853D01*
X156509727Y-104171680D01*
X156744759Y-104014637D01*
X156944637Y-103814759D01*
X157101680Y-103579727D01*
X157209853Y-103318574D01*
X157265000Y-103041335D01*
X157265000Y-102758665D01*
X157209853Y-102481426D01*
X157101680Y-102220273D01*
X156944637Y-101985241D01*
X156744759Y-101785363D01*
X156637500Y-101713695D01*
X156637500Y-100886305D01*
X156744759Y-100814637D01*
X156944637Y-100614759D01*
X157101680Y-100379727D01*
X157209853Y-100118574D01*
X157265000Y-99841335D01*
X157265000Y-99558665D01*
X157209853Y-99281426D01*
X157101680Y-99020273D01*
X156944637Y-98785241D01*
X156744759Y-98585363D01*
X156637500Y-98513695D01*
X156637500Y-97686305D01*
X156744759Y-97614637D01*
X156944637Y-97414759D01*
X157101680Y-97179727D01*
X157209853Y-96918574D01*
X157265000Y-96641335D01*
X157265000Y-96358665D01*
X157209853Y-96081426D01*
X157101680Y-95820273D01*
X156944637Y-95585241D01*
X156744759Y-95385363D01*
X156509727Y-95228320D01*
X156248574Y-95120147D01*
X155971335Y-95065000D01*
X155688665Y-95065000D01*
X155411426Y-95120147D01*
X155150273Y-95228320D01*
X154915241Y-95385363D01*
X154715363Y-95585241D01*
X154558320Y-95820273D01*
X154450147Y-96081426D01*
X154395000Y-96358665D01*
X154395000Y-96641335D01*
X154450147Y-96918574D01*
X154558320Y-97179727D01*
X154715363Y-97414759D01*
X154915241Y-97614637D01*
X155022501Y-97686306D01*
X155022501Y-98513695D01*
X154915241Y-98585363D01*
X154715363Y-98785241D01*
X154623650Y-98922500D01*
X149343168Y-98922500D01*
X149171623Y-98781716D01*
X148974447Y-98676324D01*
X148760499Y-98611423D01*
X148593752Y-98595000D01*
X147982248Y-98595000D01*
X147815501Y-98611423D01*
X147601553Y-98676324D01*
X147404377Y-98781716D01*
X147231551Y-98923551D01*
X147089716Y-99096377D01*
X146984324Y-99293553D01*
X146919423Y-99507501D01*
X146897509Y-99730000D01*
X143968000Y-99730000D01*
X143968000Y-99006801D01*
X144792802Y-98182000D01*
X149520678Y-98182000D01*
X149558000Y-98185676D01*
X149595322Y-98182000D01*
X149595333Y-98182000D01*
X149706986Y-98171003D01*
X149850247Y-98127546D01*
X149982276Y-98056974D01*
X150098001Y-97962001D01*
X150121803Y-97932998D01*
X151593008Y-96461795D01*
X151622001Y-96438001D01*
X151645795Y-96409008D01*
X151645799Y-96409004D01*
X151716973Y-96322277D01*
X151716974Y-96322276D01*
X151787546Y-96190247D01*
X151831003Y-96046986D01*
X151842000Y-95935333D01*
X151842000Y-95935324D01*
X151845676Y-95898001D01*
X151842000Y-95860678D01*
X151842000Y-75361323D01*
X151845676Y-75324000D01*
X151842000Y-75286677D01*
X151842000Y-75286667D01*
X151831003Y-75175014D01*
X151787546Y-75031753D01*
X151776452Y-75010998D01*
X151716974Y-74899723D01*
X151645799Y-74812997D01*
X151622001Y-74783999D01*
X151593004Y-74760202D01*
X150601804Y-73769002D01*
X150578001Y-73739999D01*
X150462276Y-73645026D01*
X150330247Y-73574454D01*
X150186986Y-73530997D01*
X150075333Y-73520000D01*
X150075322Y-73520000D01*
X150038000Y-73516324D01*
X150000678Y-73520000D01*
X149673148Y-73520000D01*
X149647537Y-73458169D01*
X149457663Y-73174002D01*
X149215998Y-72932337D01*
X148931831Y-72742463D01*
X148616081Y-72611675D01*
X148280883Y-72545000D01*
X147939117Y-72545000D01*
X147603919Y-72611675D01*
X147288169Y-72742463D01*
X147004002Y-72932337D01*
X146762337Y-73174002D01*
X146572463Y-73458169D01*
X146546852Y-73520000D01*
X143173148Y-73520000D01*
X143147537Y-73458169D01*
X142957663Y-73174002D01*
X142715998Y-72932337D01*
X142431831Y-72742463D01*
X142116081Y-72611675D01*
X141780883Y-72545000D01*
X141439117Y-72545000D01*
X141103919Y-72611675D01*
X140788169Y-72742463D01*
X140504002Y-72932337D01*
X140262337Y-73174002D01*
X140072463Y-73458169D01*
X139941675Y-73773919D01*
X139875000Y-74109117D01*
X139875000Y-74450883D01*
X139941675Y-74786081D01*
X140072463Y-75101831D01*
X140262337Y-75385998D01*
X140504002Y-75627663D01*
X140788169Y-75817537D01*
X141103919Y-75948325D01*
X141439117Y-76015000D01*
X141780883Y-76015000D01*
X142116081Y-75948325D01*
X142431831Y-75817537D01*
X142715998Y-75627663D01*
X142957663Y-75385998D01*
X143147537Y-75101831D01*
X143173148Y-75040000D01*
X146546852Y-75040000D01*
X146572463Y-75101831D01*
X146762337Y-75385998D01*
X147004002Y-75627663D01*
X147288169Y-75817537D01*
X147603919Y-75948325D01*
X147939117Y-76015000D01*
X148280883Y-76015000D01*
X148616081Y-75948325D01*
X148931831Y-75817537D01*
X149215998Y-75627663D01*
X149457663Y-75385998D01*
X149647537Y-75101831D01*
X149673148Y-75040000D01*
X149723199Y-75040000D01*
X150322000Y-75638802D01*
X150322001Y-95583196D01*
X149243199Y-96662000D01*
X144515322Y-96662000D01*
X144477999Y-96658324D01*
X144440676Y-96662000D01*
X144440667Y-96662000D01*
X144329014Y-96672997D01*
X144185753Y-96716454D01*
X144053724Y-96787026D01*
X143937999Y-96881999D01*
X143914201Y-96910997D01*
X142696998Y-98128201D01*
X142668000Y-98151999D01*
X142644202Y-98180997D01*
X142644201Y-98180998D01*
X142573026Y-98267724D01*
X142502454Y-98399754D01*
X142458998Y-98543015D01*
X142444324Y-98692000D01*
X142448001Y-98729333D01*
X142448000Y-109763504D01*
X142365120Y-109639465D01*
X142170535Y-109444880D01*
X141941727Y-109291995D01*
X141687490Y-109186686D01*
X141417592Y-109133000D01*
X141142408Y-109133000D01*
X140872510Y-109186686D01*
X140618273Y-109291995D01*
X140389465Y-109444880D01*
X140194880Y-109639465D01*
X140107659Y-109770000D01*
X139358802Y-109770000D01*
X139142000Y-109553198D01*
X139142000Y-79986712D01*
X140582893Y-79986712D01*
X140690726Y-80261338D01*
X140997384Y-80412216D01*
X141327585Y-80500369D01*
X141668639Y-80522409D01*
X142007439Y-80477489D01*
X142330966Y-80367336D01*
X142529274Y-80261338D01*
X142637107Y-79986712D01*
X142530395Y-79880000D01*
X146371928Y-79880000D01*
X146384188Y-80004482D01*
X146420498Y-80124180D01*
X146479463Y-80234494D01*
X146558815Y-80331185D01*
X146655506Y-80410537D01*
X146765820Y-80469502D01*
X146885518Y-80505812D01*
X147010000Y-80518072D01*
X147824250Y-80515000D01*
X147983000Y-80356250D01*
X147983000Y-78907000D01*
X148237000Y-78907000D01*
X148237000Y-80356250D01*
X148395750Y-80515000D01*
X149210000Y-80518072D01*
X149334482Y-80505812D01*
X149454180Y-80469502D01*
X149564494Y-80410537D01*
X149661185Y-80331185D01*
X149740537Y-80234494D01*
X149799502Y-80124180D01*
X149835812Y-80004482D01*
X149848072Y-79880000D01*
X149845000Y-79065750D01*
X149686250Y-78907000D01*
X148237000Y-78907000D01*
X147983000Y-78907000D01*
X146533750Y-78907000D01*
X146375000Y-79065750D01*
X146371928Y-79880000D01*
X142530395Y-79880000D01*
X141610000Y-78959605D01*
X140582893Y-79986712D01*
X139142000Y-79986712D01*
X139142000Y-78838639D01*
X139867591Y-78838639D01*
X139912511Y-79177439D01*
X140022664Y-79500966D01*
X140128662Y-79699274D01*
X140403288Y-79807107D01*
X141430395Y-78780000D01*
X141789605Y-78780000D01*
X142816712Y-79807107D01*
X143091338Y-79699274D01*
X143242216Y-79392616D01*
X143330369Y-79062415D01*
X143352409Y-78721361D01*
X143307489Y-78382561D01*
X143197336Y-78059034D01*
X143091338Y-77860726D01*
X142816712Y-77752893D01*
X141789605Y-78780000D01*
X141430395Y-78780000D01*
X140403288Y-77752893D01*
X140128662Y-77860726D01*
X139977784Y-78167384D01*
X139889631Y-78497585D01*
X139867591Y-78838639D01*
X139142000Y-78838639D01*
X139142000Y-77573288D01*
X140582893Y-77573288D01*
X141610000Y-78600395D01*
X142530395Y-77680000D01*
X146371928Y-77680000D01*
X146375000Y-78494250D01*
X146533750Y-78653000D01*
X147983000Y-78653000D01*
X147983000Y-77203750D01*
X148237000Y-77203750D01*
X148237000Y-78653000D01*
X149686250Y-78653000D01*
X149845000Y-78494250D01*
X149848072Y-77680000D01*
X149835812Y-77555518D01*
X149799502Y-77435820D01*
X149740537Y-77325506D01*
X149661185Y-77228815D01*
X149564494Y-77149463D01*
X149454180Y-77090498D01*
X149334482Y-77054188D01*
X149210000Y-77041928D01*
X148395750Y-77045000D01*
X148237000Y-77203750D01*
X147983000Y-77203750D01*
X147824250Y-77045000D01*
X147010000Y-77041928D01*
X146885518Y-77054188D01*
X146765820Y-77090498D01*
X146655506Y-77149463D01*
X146558815Y-77228815D01*
X146479463Y-77325506D01*
X146420498Y-77435820D01*
X146384188Y-77555518D01*
X146371928Y-77680000D01*
X142530395Y-77680000D01*
X142637107Y-77573288D01*
X142529274Y-77298662D01*
X142222616Y-77147784D01*
X141892415Y-77059631D01*
X141551361Y-77037591D01*
X141212561Y-77082511D01*
X140889034Y-77192664D01*
X140690726Y-77298662D01*
X140582893Y-77573288D01*
X139142000Y-77573288D01*
X139142000Y-71828801D01*
X140220803Y-70750000D01*
X149266678Y-70750000D01*
X149304000Y-70753676D01*
X149341322Y-70750000D01*
X149341333Y-70750000D01*
X149452986Y-70739003D01*
X149596247Y-70695546D01*
X149728276Y-70624974D01*
X149844001Y-70530001D01*
X149867804Y-70500997D01*
X151593003Y-68775799D01*
X151622001Y-68752001D01*
X151716974Y-68636276D01*
X151787546Y-68504247D01*
X151831003Y-68360986D01*
X151842000Y-68249333D01*
X151842000Y-68249325D01*
X151845676Y-68212000D01*
X151842000Y-68174675D01*
X151842000Y-67286712D01*
X155822893Y-67286712D01*
X155930726Y-67561338D01*
X156237384Y-67712216D01*
X156567585Y-67800369D01*
X156908639Y-67822409D01*
X157247439Y-67777489D01*
X157570966Y-67667336D01*
X157769274Y-67561338D01*
X157877107Y-67286712D01*
X157770395Y-67180000D01*
X161611928Y-67180000D01*
X161624188Y-67304482D01*
X161660498Y-67424180D01*
X161719463Y-67534494D01*
X161798815Y-67631185D01*
X161895506Y-67710537D01*
X162005820Y-67769502D01*
X162125518Y-67805812D01*
X162250000Y-67818072D01*
X163064250Y-67815000D01*
X163223000Y-67656250D01*
X163223000Y-66207000D01*
X163477000Y-66207000D01*
X163477000Y-67656250D01*
X163635750Y-67815000D01*
X164450000Y-67818072D01*
X164574482Y-67805812D01*
X164694180Y-67769502D01*
X164804494Y-67710537D01*
X164901185Y-67631185D01*
X164980537Y-67534494D01*
X165039502Y-67424180D01*
X165075812Y-67304482D01*
X165088072Y-67180000D01*
X165085000Y-66365750D01*
X164926250Y-66207000D01*
X163477000Y-66207000D01*
X163223000Y-66207000D01*
X161773750Y-66207000D01*
X161615000Y-66365750D01*
X161611928Y-67180000D01*
X157770395Y-67180000D01*
X156850000Y-66259605D01*
X155822893Y-67286712D01*
X151842000Y-67286712D01*
X151842000Y-66138639D01*
X155107591Y-66138639D01*
X155152511Y-66477439D01*
X155262664Y-66800966D01*
X155368662Y-66999274D01*
X155643288Y-67107107D01*
X156670395Y-66080000D01*
X157029605Y-66080000D01*
X158056712Y-67107107D01*
X158331338Y-66999274D01*
X158482216Y-66692616D01*
X158570369Y-66362415D01*
X158592409Y-66021361D01*
X158547489Y-65682561D01*
X158437336Y-65359034D01*
X158331338Y-65160726D01*
X158056712Y-65052893D01*
X157029605Y-66080000D01*
X156670395Y-66080000D01*
X155643288Y-65052893D01*
X155368662Y-65160726D01*
X155217784Y-65467384D01*
X155129631Y-65797585D01*
X155107591Y-66138639D01*
X151842000Y-66138639D01*
X151842000Y-64873288D01*
X155822893Y-64873288D01*
X156850000Y-65900395D01*
X157770395Y-64980000D01*
X161611928Y-64980000D01*
X161615000Y-65794250D01*
X161773750Y-65953000D01*
X163223000Y-65953000D01*
X163223000Y-64503750D01*
X163477000Y-64503750D01*
X163477000Y-65953000D01*
X164926250Y-65953000D01*
X165085000Y-65794250D01*
X165088072Y-64980000D01*
X165075812Y-64855518D01*
X165039502Y-64735820D01*
X164980537Y-64625506D01*
X164901185Y-64528815D01*
X164804494Y-64449463D01*
X164694180Y-64390498D01*
X164574482Y-64354188D01*
X164450000Y-64341928D01*
X163635750Y-64345000D01*
X163477000Y-64503750D01*
X163223000Y-64503750D01*
X163064250Y-64345000D01*
X162250000Y-64341928D01*
X162125518Y-64354188D01*
X162005820Y-64390498D01*
X161895506Y-64449463D01*
X161798815Y-64528815D01*
X161719463Y-64625506D01*
X161660498Y-64735820D01*
X161624188Y-64855518D01*
X161611928Y-64980000D01*
X157770395Y-64980000D01*
X157877107Y-64873288D01*
X157769274Y-64598662D01*
X157462616Y-64447784D01*
X157132415Y-64359631D01*
X156791361Y-64337591D01*
X156452561Y-64382511D01*
X156129034Y-64492664D01*
X155930726Y-64598662D01*
X155822893Y-64873288D01*
X151842000Y-64873288D01*
X151842000Y-64208801D01*
X153710802Y-62340000D01*
X155286852Y-62340000D01*
X155312463Y-62401831D01*
X155502337Y-62685998D01*
X155744002Y-62927663D01*
X156028169Y-63117537D01*
X156343919Y-63248325D01*
X156679117Y-63315000D01*
X157020883Y-63315000D01*
X157356081Y-63248325D01*
X157671831Y-63117537D01*
X157955998Y-62927663D01*
X158197663Y-62685998D01*
X158387537Y-62401831D01*
X158413148Y-62340000D01*
X161786852Y-62340000D01*
X161812463Y-62401831D01*
X162002337Y-62685998D01*
X162244002Y-62927663D01*
X162528169Y-63117537D01*
X162843919Y-63248325D01*
X163179117Y-63315000D01*
X163520883Y-63315000D01*
X163856081Y-63248325D01*
X164171831Y-63117537D01*
X164455998Y-62927663D01*
X164697663Y-62685998D01*
X164887537Y-62401831D01*
X165018325Y-62086081D01*
X165085000Y-61750883D01*
X165085000Y-61409117D01*
X165018325Y-61073919D01*
X164887537Y-60758169D01*
X164697663Y-60474002D01*
X164455998Y-60232337D01*
X164171831Y-60042463D01*
X163856081Y-59911675D01*
X163520883Y-59845000D01*
X163179117Y-59845000D01*
X162843919Y-59911675D01*
X162528169Y-60042463D01*
X162244002Y-60232337D01*
X162002337Y-60474002D01*
X161812463Y-60758169D01*
X161786852Y-60820000D01*
X158413148Y-60820000D01*
X158387537Y-60758169D01*
X158197663Y-60474002D01*
X157955998Y-60232337D01*
X157671831Y-60042463D01*
X157356081Y-59911675D01*
X157020883Y-59845000D01*
X156679117Y-59845000D01*
X156343919Y-59911675D01*
X156028169Y-60042463D01*
X155744002Y-60232337D01*
X155502337Y-60474002D01*
X155312463Y-60758169D01*
X155286852Y-60820000D01*
X153433322Y-60820000D01*
X153395999Y-60816324D01*
X153358676Y-60820000D01*
X153358667Y-60820000D01*
X153247014Y-60830997D01*
X153103753Y-60874454D01*
X152971724Y-60945026D01*
X152855999Y-61039999D01*
X152832201Y-61068997D01*
X150571003Y-63330196D01*
X150541999Y-63353999D01*
X150515737Y-63386000D01*
X150447026Y-63469724D01*
X150412143Y-63534985D01*
X150376454Y-63601754D01*
X150332997Y-63745015D01*
X150322000Y-63856668D01*
X150322000Y-63856678D01*
X150318324Y-63894000D01*
X150322000Y-63931323D01*
X150322001Y-67897197D01*
X148989199Y-69230000D01*
X139943322Y-69230000D01*
X139905999Y-69226324D01*
X139868676Y-69230000D01*
X139868667Y-69230000D01*
X139757014Y-69240997D01*
X139613753Y-69284454D01*
X139481724Y-69355026D01*
X139481722Y-69355027D01*
X139481723Y-69355027D01*
X139394996Y-69426201D01*
X139394992Y-69426205D01*
X139365999Y-69449999D01*
X139342205Y-69478992D01*
X137871002Y-70950197D01*
X137841999Y-70973999D01*
X137786871Y-71041174D01*
X137747026Y-71089724D01*
X137676455Y-71221753D01*
X137676454Y-71221754D01*
X137632997Y-71365015D01*
X137622000Y-71476668D01*
X137622000Y-71476678D01*
X137618324Y-71514000D01*
X137622000Y-71551322D01*
X137622001Y-109830667D01*
X137618324Y-109868000D01*
X137622001Y-109905333D01*
X137632998Y-110016986D01*
X137635823Y-110026298D01*
X137676454Y-110160246D01*
X137747026Y-110292276D01*
X137812210Y-110371702D01*
X137842000Y-110408001D01*
X137870997Y-110431798D01*
X138480205Y-111041008D01*
X138503999Y-111070001D01*
X138532992Y-111093795D01*
X138532996Y-111093799D01*
X138584814Y-111136324D01*
X138619724Y-111164974D01*
X138751753Y-111235546D01*
X138895014Y-111279003D01*
X139006667Y-111290000D01*
X139006676Y-111290000D01*
X139043999Y-111293676D01*
X139081322Y-111290000D01*
X140107659Y-111290000D01*
X140194880Y-111420535D01*
X140389465Y-111615120D01*
X140618273Y-111768005D01*
X140695515Y-111800000D01*
X140618273Y-111831995D01*
X140389465Y-111984880D01*
X140194880Y-112179465D01*
X140107659Y-112310000D01*
X138342802Y-112310000D01*
X137618000Y-111585199D01*
X137618000Y-67286712D01*
X140582893Y-67286712D01*
X140690726Y-67561338D01*
X140997384Y-67712216D01*
X141327585Y-67800369D01*
X141668639Y-67822409D01*
X142007439Y-67777489D01*
X142330966Y-67667336D01*
X142529274Y-67561338D01*
X142637107Y-67286712D01*
X142530395Y-67180000D01*
X146371928Y-67180000D01*
X146384188Y-67304482D01*
X146420498Y-67424180D01*
X146479463Y-67534494D01*
X146558815Y-67631185D01*
X146655506Y-67710537D01*
X146765820Y-67769502D01*
X146885518Y-67805812D01*
X147010000Y-67818072D01*
X147824250Y-67815000D01*
X147983000Y-67656250D01*
X147983000Y-66207000D01*
X148237000Y-66207000D01*
X148237000Y-67656250D01*
X148395750Y-67815000D01*
X149210000Y-67818072D01*
X149334482Y-67805812D01*
X149454180Y-67769502D01*
X149564494Y-67710537D01*
X149661185Y-67631185D01*
X149740537Y-67534494D01*
X149799502Y-67424180D01*
X149835812Y-67304482D01*
X149848072Y-67180000D01*
X149845000Y-66365750D01*
X149686250Y-66207000D01*
X148237000Y-66207000D01*
X147983000Y-66207000D01*
X146533750Y-66207000D01*
X146375000Y-66365750D01*
X146371928Y-67180000D01*
X142530395Y-67180000D01*
X141610000Y-66259605D01*
X140582893Y-67286712D01*
X137618000Y-67286712D01*
X137618000Y-66138639D01*
X139867591Y-66138639D01*
X139912511Y-66477439D01*
X140022664Y-66800966D01*
X140128662Y-66999274D01*
X140403288Y-67107107D01*
X141430395Y-66080000D01*
X141789605Y-66080000D01*
X142816712Y-67107107D01*
X143091338Y-66999274D01*
X143242216Y-66692616D01*
X143330369Y-66362415D01*
X143352409Y-66021361D01*
X143307489Y-65682561D01*
X143197336Y-65359034D01*
X143091338Y-65160726D01*
X142816712Y-65052893D01*
X141789605Y-66080000D01*
X141430395Y-66080000D01*
X140403288Y-65052893D01*
X140128662Y-65160726D01*
X139977784Y-65467384D01*
X139889631Y-65797585D01*
X139867591Y-66138639D01*
X137618000Y-66138639D01*
X137618000Y-64873288D01*
X140582893Y-64873288D01*
X141610000Y-65900395D01*
X142530395Y-64980000D01*
X146371928Y-64980000D01*
X146375000Y-65794250D01*
X146533750Y-65953000D01*
X147983000Y-65953000D01*
X147983000Y-64503750D01*
X148237000Y-64503750D01*
X148237000Y-65953000D01*
X149686250Y-65953000D01*
X149845000Y-65794250D01*
X149848072Y-64980000D01*
X149835812Y-64855518D01*
X149799502Y-64735820D01*
X149740537Y-64625506D01*
X149661185Y-64528815D01*
X149564494Y-64449463D01*
X149454180Y-64390498D01*
X149334482Y-64354188D01*
X149210000Y-64341928D01*
X148395750Y-64345000D01*
X148237000Y-64503750D01*
X147983000Y-64503750D01*
X147824250Y-64345000D01*
X147010000Y-64341928D01*
X146885518Y-64354188D01*
X146765820Y-64390498D01*
X146655506Y-64449463D01*
X146558815Y-64528815D01*
X146479463Y-64625506D01*
X146420498Y-64735820D01*
X146384188Y-64855518D01*
X146371928Y-64980000D01*
X142530395Y-64980000D01*
X142637107Y-64873288D01*
X142529274Y-64598662D01*
X142222616Y-64447784D01*
X141892415Y-64359631D01*
X141551361Y-64337591D01*
X141212561Y-64382511D01*
X140889034Y-64492664D01*
X140690726Y-64598662D01*
X140582893Y-64873288D01*
X137618000Y-64873288D01*
X137618000Y-63700801D01*
X138978802Y-62340000D01*
X140046852Y-62340000D01*
X140072463Y-62401831D01*
X140262337Y-62685998D01*
X140504002Y-62927663D01*
X140788169Y-63117537D01*
X141103919Y-63248325D01*
X141439117Y-63315000D01*
X141780883Y-63315000D01*
X142116081Y-63248325D01*
X142431831Y-63117537D01*
X142715998Y-62927663D01*
X142957663Y-62685998D01*
X143147537Y-62401831D01*
X143173148Y-62340000D01*
X146546852Y-62340000D01*
X146572463Y-62401831D01*
X146762337Y-62685998D01*
X147004002Y-62927663D01*
X147288169Y-63117537D01*
X147603919Y-63248325D01*
X147939117Y-63315000D01*
X148280883Y-63315000D01*
X148616081Y-63248325D01*
X148931831Y-63117537D01*
X149215998Y-62927663D01*
X149457663Y-62685998D01*
X149647537Y-62401831D01*
X149778325Y-62086081D01*
X149845000Y-61750883D01*
X149845000Y-61409117D01*
X149778325Y-61073919D01*
X149647537Y-60758169D01*
X149457663Y-60474002D01*
X149215998Y-60232337D01*
X148931831Y-60042463D01*
X148616081Y-59911675D01*
X148280883Y-59845000D01*
X147939117Y-59845000D01*
X147603919Y-59911675D01*
X147288169Y-60042463D01*
X147004002Y-60232337D01*
X146762337Y-60474002D01*
X146572463Y-60758169D01*
X146546852Y-60820000D01*
X143173148Y-60820000D01*
X143147537Y-60758169D01*
X142957663Y-60474002D01*
X142715998Y-60232337D01*
X142431831Y-60042463D01*
X142116081Y-59911675D01*
X141780883Y-59845000D01*
X141439117Y-59845000D01*
X141103919Y-59911675D01*
X140788169Y-60042463D01*
X140504002Y-60232337D01*
X140262337Y-60474002D01*
X140072463Y-60758169D01*
X140046852Y-60820000D01*
X138701325Y-60820000D01*
X138664000Y-60816324D01*
X138626675Y-60820000D01*
X138626667Y-60820000D01*
X138515014Y-60830997D01*
X138371753Y-60874454D01*
X138239724Y-60945026D01*
X138123999Y-61039999D01*
X138100201Y-61068997D01*
X136347003Y-62822196D01*
X136317999Y-62845999D01*
X136262871Y-62913174D01*
X136223026Y-62961724D01*
X136152455Y-63093753D01*
X136152454Y-63093754D01*
X136108997Y-63237015D01*
X136098000Y-63348668D01*
X136098000Y-63348678D01*
X136094324Y-63386000D01*
X135887500Y-63386000D01*
X135887500Y-61688477D01*
X142018477Y-55557500D01*
X149289046Y-55557500D01*
X149304028Y-56276645D01*
X149306440Y-56298776D01*
X149313667Y-56322601D01*
X149325403Y-56344557D01*
X149341197Y-56363803D01*
X149360443Y-56379597D01*
X149382399Y-56391333D01*
X149406224Y-56398560D01*
X149431000Y-56401000D01*
X155781000Y-56401000D01*
X155808366Y-56398017D01*
X155832034Y-56390295D01*
X155853742Y-56378104D01*
X155872654Y-56361913D01*
X155888043Y-56342343D01*
X155899320Y-56320146D01*
X155906049Y-56296177D01*
X155907972Y-56271355D01*
X155893100Y-55557500D01*
X161923523Y-55557500D01*
X167800500Y-61434478D01*
X167800501Y-95055521D01*
X167163523Y-95692500D01*
X164636305Y-95692500D01*
X164564637Y-95585241D01*
X164364759Y-95385363D01*
X164129727Y-95228320D01*
X163868574Y-95120147D01*
X163591335Y-95065000D01*
X163308665Y-95065000D01*
X163031426Y-95120147D01*
X162770273Y-95228320D01*
X162535241Y-95385363D01*
X162335363Y-95585241D01*
X162178320Y-95820273D01*
X162070147Y-96081426D01*
X162015000Y-96358665D01*
X162015000Y-96641335D01*
X162070147Y-96918574D01*
X162178320Y-97179727D01*
X162335363Y-97414759D01*
X162535241Y-97614637D01*
X162642501Y-97686306D01*
X162642501Y-98513695D01*
X162535241Y-98585363D01*
X162335363Y-98785241D01*
X162178320Y-99020273D01*
X162070147Y-99281426D01*
X162015000Y-99558665D01*
X162015000Y-99841335D01*
X162070147Y-100118574D01*
X162178320Y-100379727D01*
X162335363Y-100614759D01*
X162535241Y-100814637D01*
X162642500Y-100886305D01*
X162642500Y-101713695D01*
X162535241Y-101785363D01*
X162335363Y-101985241D01*
X162178320Y-102220273D01*
X162070147Y-102481426D01*
X162015000Y-102758665D01*
X162015000Y-103041335D01*
X162070147Y-103318574D01*
X162178320Y-103579727D01*
X162335363Y-103814759D01*
X162535241Y-104014637D01*
X162770273Y-104171680D01*
X163031426Y-104279853D01*
X163308665Y-104335000D01*
X163591335Y-104335000D01*
X163868574Y-104279853D01*
X164129727Y-104171680D01*
X164364759Y-104014637D01*
X164564637Y-103814759D01*
X164721680Y-103579727D01*
X164829853Y-103318574D01*
X164885000Y-103041335D01*
X164885000Y-102758665D01*
X164829853Y-102481426D01*
X164721680Y-102220273D01*
X164564637Y-101985241D01*
X164364759Y-101785363D01*
X164257500Y-101713695D01*
X164257500Y-100886305D01*
X164364759Y-100814637D01*
X164564637Y-100614759D01*
X164721680Y-100379727D01*
X164829853Y-100118574D01*
X164885000Y-99841335D01*
X164885000Y-99558665D01*
X164829853Y-99281426D01*
X164721680Y-99020273D01*
X164564637Y-98785241D01*
X164364759Y-98585363D01*
X164257500Y-98513695D01*
X164257500Y-97686305D01*
X164364759Y-97614637D01*
X164564637Y-97414759D01*
X164636305Y-97307500D01*
X167458339Y-97307500D01*
X167498000Y-97311406D01*
X167537661Y-97307500D01*
X167537668Y-97307500D01*
X167656298Y-97295816D01*
X167808512Y-97249642D01*
X167948794Y-97174660D01*
X168071751Y-97073751D01*
X168097038Y-97042940D01*
X169150945Y-95989033D01*
X169181751Y-95963751D01*
X169207033Y-95932945D01*
X169207038Y-95932940D01*
X169282660Y-95840794D01*
X169357642Y-95700512D01*
X169403816Y-95548298D01*
X169404733Y-95538985D01*
X169415500Y-95429668D01*
X169415500Y-95429662D01*
X169419406Y-95390001D01*
X169415500Y-95350340D01*
X169415500Y-61139660D01*
X169419406Y-61099999D01*
X169415500Y-61060338D01*
X169415500Y-61060332D01*
X169403816Y-60941702D01*
X169357642Y-60789488D01*
X169282660Y-60649206D01*
X169207960Y-60558184D01*
X169207038Y-60557060D01*
X169207033Y-60557055D01*
X169181751Y-60526249D01*
X169150946Y-60500968D01*
X163396604Y-54746626D01*
X167427447Y-54746626D01*
X167427447Y-55253374D01*
X167526309Y-55750386D01*
X167720234Y-56218561D01*
X168001768Y-56639907D01*
X168360093Y-56998232D01*
X168781439Y-57279766D01*
X169249614Y-57473691D01*
X169746626Y-57572553D01*
X170253374Y-57572553D01*
X170750386Y-57473691D01*
X171218561Y-57279766D01*
X171639907Y-56998232D01*
X171998232Y-56639907D01*
X172279766Y-56218561D01*
X172473691Y-55750386D01*
X172572553Y-55253374D01*
X172572553Y-54746626D01*
X172473691Y-54249614D01*
X172279766Y-53781439D01*
X171998232Y-53360093D01*
X171639907Y-53001768D01*
X171218561Y-52720234D01*
X170750386Y-52526309D01*
X170253374Y-52427447D01*
X169746626Y-52427447D01*
X169249614Y-52526309D01*
X168781439Y-52720234D01*
X168360093Y-53001768D01*
X168001768Y-53360093D01*
X167720234Y-53781439D01*
X167526309Y-54249614D01*
X167427447Y-54746626D01*
X163396604Y-54746626D01*
X162857038Y-54207061D01*
X162831751Y-54176249D01*
X162708794Y-54075340D01*
X162568512Y-54000358D01*
X162416298Y-53954184D01*
X162297668Y-53942500D01*
X162297661Y-53942500D01*
X162258000Y-53938594D01*
X162218339Y-53942500D01*
X155859454Y-53942500D01*
X155791069Y-50660000D01*
X174340001Y-50660000D01*
X174340000Y-149340000D01*
X130660000Y-149340000D01*
X130660000Y-144746626D01*
X132427447Y-144746626D01*
X132427447Y-145253374D01*
X132526309Y-145750386D01*
X132720234Y-146218561D01*
X133001768Y-146639907D01*
X133360093Y-146998232D01*
X133781439Y-147279766D01*
X134249614Y-147473691D01*
X134746626Y-147572553D01*
X135253374Y-147572553D01*
X135750386Y-147473691D01*
X136218561Y-147279766D01*
X136639907Y-146998232D01*
X136998232Y-146639907D01*
X137279766Y-146218561D01*
X137473691Y-145750386D01*
X137572553Y-145253374D01*
X137572553Y-144746626D01*
X137473691Y-144249614D01*
X137374199Y-144009419D01*
X150565000Y-144009419D01*
X150565000Y-144390581D01*
X150639361Y-144764419D01*
X150785225Y-145116566D01*
X150996987Y-145433491D01*
X151266509Y-145703013D01*
X151583434Y-145914775D01*
X151935581Y-146060639D01*
X152309419Y-146135000D01*
X152690581Y-146135000D01*
X153064419Y-146060639D01*
X153416566Y-145914775D01*
X153733491Y-145703013D01*
X154003013Y-145433491D01*
X154214775Y-145116566D01*
X154360639Y-144764419D01*
X154364178Y-144746626D01*
X167427447Y-144746626D01*
X167427447Y-145253374D01*
X167526309Y-145750386D01*
X167720234Y-146218561D01*
X168001768Y-146639907D01*
X168360093Y-146998232D01*
X168781439Y-147279766D01*
X169249614Y-147473691D01*
X169746626Y-147572553D01*
X170253374Y-147572553D01*
X170750386Y-147473691D01*
X171218561Y-147279766D01*
X171639907Y-146998232D01*
X171998232Y-146639907D01*
X172279766Y-146218561D01*
X172473691Y-145750386D01*
X172572553Y-145253374D01*
X172572553Y-144746626D01*
X172473691Y-144249614D01*
X172279766Y-143781439D01*
X171998232Y-143360093D01*
X171639907Y-143001768D01*
X171218561Y-142720234D01*
X170750386Y-142526309D01*
X170253374Y-142427447D01*
X169746626Y-142427447D01*
X169249614Y-142526309D01*
X168781439Y-142720234D01*
X168360093Y-143001768D01*
X168001768Y-143360093D01*
X167720234Y-143781439D01*
X167526309Y-144249614D01*
X167427447Y-144746626D01*
X154364178Y-144746626D01*
X154435000Y-144390581D01*
X154435000Y-144009419D01*
X154360639Y-143635581D01*
X154214775Y-143283434D01*
X154003013Y-142966509D01*
X153733491Y-142696987D01*
X153416566Y-142485225D01*
X153064419Y-142339361D01*
X152690581Y-142265000D01*
X152309419Y-142265000D01*
X151935581Y-142339361D01*
X151583434Y-142485225D01*
X151266509Y-142696987D01*
X150996987Y-142966509D01*
X150785225Y-143283434D01*
X150639361Y-143635581D01*
X150565000Y-144009419D01*
X137374199Y-144009419D01*
X137279766Y-143781439D01*
X136998232Y-143360093D01*
X136639907Y-143001768D01*
X136218561Y-142720234D01*
X135750386Y-142526309D01*
X135253374Y-142427447D01*
X134746626Y-142427447D01*
X134249614Y-142526309D01*
X133781439Y-142720234D01*
X133360093Y-143001768D01*
X133001768Y-143360093D01*
X132720234Y-143781439D01*
X132526309Y-144249614D01*
X132427447Y-144746626D01*
X130660000Y-144746626D01*
X130660000Y-54746626D01*
X132427447Y-54746626D01*
X132427447Y-55253374D01*
X132526309Y-55750386D01*
X132720234Y-56218561D01*
X133001768Y-56639907D01*
X133360093Y-56998232D01*
X133781439Y-57279766D01*
X134249614Y-57473691D01*
X134746626Y-57572553D01*
X135253374Y-57572553D01*
X135750386Y-57473691D01*
X136218561Y-57279766D01*
X136639907Y-56998232D01*
X136998232Y-56639907D01*
X137279766Y-56218561D01*
X137473691Y-55750386D01*
X137572553Y-55253374D01*
X137572553Y-54746626D01*
X137473691Y-54249614D01*
X137279766Y-53781439D01*
X136998232Y-53360093D01*
X136639907Y-53001768D01*
X136218561Y-52720234D01*
X135750386Y-52526309D01*
X135253374Y-52427447D01*
X134746626Y-52427447D01*
X134249614Y-52526309D01*
X133781439Y-52720234D01*
X133360093Y-53001768D01*
X133001768Y-53360093D01*
X132720234Y-53781439D01*
X132526309Y-54249614D01*
X132427447Y-54746626D01*
X130660000Y-54746626D01*
X130660000Y-50660000D01*
X149187015Y-50660000D01*
X149255400Y-53942500D01*
%TA.AperFunction,Conductor*%
D24*
G36*
X149255400Y-53942500D02*
G01*
X141723657Y-53942500D01*
X141683999Y-53938594D01*
X141644341Y-53942500D01*
X141644332Y-53942500D01*
X141525702Y-53954184D01*
X141373488Y-54000358D01*
X141233206Y-54075340D01*
X141110249Y-54176249D01*
X141084962Y-54207061D01*
X134537056Y-60754967D01*
X134506250Y-60780249D01*
X134480968Y-60811055D01*
X134480962Y-60811061D01*
X134405340Y-60903207D01*
X134330358Y-61043489D01*
X134284184Y-61195703D01*
X134268594Y-61354000D01*
X134272501Y-61393671D01*
X134272500Y-133958339D01*
X134268594Y-133998000D01*
X134272500Y-134037661D01*
X134272500Y-134037667D01*
X134284184Y-134156297D01*
X134330358Y-134308511D01*
X134405340Y-134448793D01*
X134506249Y-134571751D01*
X134537060Y-134597038D01*
X135482967Y-135542945D01*
X135508249Y-135573751D01*
X135539055Y-135599033D01*
X135539060Y-135599038D01*
X135631206Y-135674660D01*
X135771488Y-135749642D01*
X135923702Y-135795816D01*
X136042332Y-135807500D01*
X136042339Y-135807500D01*
X136082000Y-135811406D01*
X136121661Y-135807500D01*
X138373157Y-135807500D01*
X138530013Y-136042252D01*
X138757748Y-136269987D01*
X139025537Y-136448918D01*
X139323088Y-136572168D01*
X139638967Y-136635000D01*
X139961033Y-136635000D01*
X140276912Y-136572168D01*
X140574463Y-136448918D01*
X140842252Y-136269987D01*
X140976826Y-136135413D01*
X156844192Y-136135413D01*
X156939956Y-136399814D01*
X157229571Y-136540704D01*
X157541108Y-136622384D01*
X157862595Y-136641718D01*
X158181675Y-136597961D01*
X158486088Y-136492795D01*
X158660044Y-136399814D01*
X158755808Y-136135413D01*
X157800000Y-135179605D01*
X156844192Y-136135413D01*
X140976826Y-136135413D01*
X141069987Y-136042252D01*
X141248918Y-135774463D01*
X141372168Y-135476912D01*
X141435000Y-135161033D01*
X141435000Y-135062595D01*
X156158282Y-135062595D01*
X156202039Y-135381675D01*
X156307205Y-135686088D01*
X156400186Y-135860044D01*
X156664587Y-135955808D01*
X157620395Y-135000000D01*
X157979605Y-135000000D01*
X158935413Y-135955808D01*
X159199814Y-135860044D01*
X159340704Y-135570429D01*
X159422384Y-135258892D01*
X159441718Y-134937405D01*
X159397961Y-134618325D01*
X159292795Y-134313912D01*
X159199814Y-134139956D01*
X158935413Y-134044192D01*
X157979605Y-135000000D01*
X157620395Y-135000000D01*
X156664587Y-134044192D01*
X156400186Y-134139956D01*
X156259296Y-134429571D01*
X156177616Y-134741108D01*
X156158282Y-135062595D01*
X141435000Y-135062595D01*
X141435000Y-134838967D01*
X141372168Y-134523088D01*
X141248918Y-134225537D01*
X141069987Y-133957748D01*
X140976826Y-133864587D01*
X156844192Y-133864587D01*
X157800000Y-134820395D01*
X158755808Y-133864587D01*
X158660044Y-133600186D01*
X158370429Y-133459296D01*
X158058892Y-133377616D01*
X157737405Y-133358282D01*
X157418325Y-133402039D01*
X157113912Y-133507205D01*
X156939956Y-133600186D01*
X156844192Y-133864587D01*
X140976826Y-133864587D01*
X140842252Y-133730013D01*
X140607500Y-133573157D01*
X140607500Y-130209419D01*
X142595000Y-130209419D01*
X142595000Y-130590581D01*
X142669361Y-130964419D01*
X142815225Y-131316566D01*
X143026987Y-131633491D01*
X143296509Y-131903013D01*
X143613434Y-132114775D01*
X143965581Y-132260639D01*
X144339419Y-132335000D01*
X144720581Y-132335000D01*
X145094419Y-132260639D01*
X145446566Y-132114775D01*
X145763491Y-131903013D01*
X146033013Y-131633491D01*
X146244775Y-131316566D01*
X146390639Y-130964419D01*
X146465000Y-130590581D01*
X146465000Y-130209419D01*
X158525000Y-130209419D01*
X158525000Y-130590581D01*
X158599361Y-130964419D01*
X158745225Y-131316566D01*
X158956987Y-131633491D01*
X159226509Y-131903013D01*
X159543434Y-132114775D01*
X159895581Y-132260639D01*
X160269419Y-132335000D01*
X160650581Y-132335000D01*
X161024419Y-132260639D01*
X161376566Y-132114775D01*
X161693491Y-131903013D01*
X161963013Y-131633491D01*
X162174775Y-131316566D01*
X162320639Y-130964419D01*
X162395000Y-130590581D01*
X162395000Y-130209419D01*
X162320639Y-129835581D01*
X162174775Y-129483434D01*
X161963013Y-129166509D01*
X161693491Y-128896987D01*
X161376566Y-128685225D01*
X161024419Y-128539361D01*
X160650581Y-128465000D01*
X160269419Y-128465000D01*
X159895581Y-128539361D01*
X159543434Y-128685225D01*
X159226509Y-128896987D01*
X158956987Y-129166509D01*
X158745225Y-129483434D01*
X158599361Y-129835581D01*
X158525000Y-130209419D01*
X146465000Y-130209419D01*
X146390639Y-129835581D01*
X146244775Y-129483434D01*
X146033013Y-129166509D01*
X145763491Y-128896987D01*
X145446566Y-128685225D01*
X145094419Y-128539361D01*
X144720581Y-128465000D01*
X144339419Y-128465000D01*
X143965581Y-128539361D01*
X143613434Y-128685225D01*
X143296509Y-128896987D01*
X143026987Y-129166509D01*
X142815225Y-129483434D01*
X142669361Y-129835581D01*
X142595000Y-130209419D01*
X140607500Y-130209419D01*
X140607500Y-127072477D01*
X146290946Y-121389032D01*
X146321751Y-121363751D01*
X146347033Y-121332945D01*
X146347038Y-121332940D01*
X146422660Y-121240794D01*
X146422661Y-121240793D01*
X146497642Y-121100512D01*
X146543816Y-120948298D01*
X146555500Y-120829668D01*
X146555500Y-120829659D01*
X146559406Y-120790001D01*
X146555500Y-120750343D01*
X146555500Y-114016477D01*
X147503000Y-113068977D01*
X147503000Y-113207592D01*
X147556686Y-113477490D01*
X147661995Y-113731727D01*
X147814880Y-113960535D01*
X148009465Y-114155120D01*
X148238273Y-114308005D01*
X148315515Y-114340000D01*
X148238273Y-114371995D01*
X148009465Y-114524880D01*
X147814880Y-114719465D01*
X147661995Y-114948273D01*
X147556686Y-115202510D01*
X147503000Y-115472408D01*
X147503000Y-115747592D01*
X147556686Y-116017490D01*
X147661995Y-116271727D01*
X147814880Y-116500535D01*
X148009465Y-116695120D01*
X148238273Y-116848005D01*
X148315515Y-116880000D01*
X148238273Y-116911995D01*
X148009465Y-117064880D01*
X147814880Y-117259465D01*
X147661995Y-117488273D01*
X147556686Y-117742510D01*
X147503000Y-118012408D01*
X147503000Y-118287592D01*
X147556686Y-118557490D01*
X147661995Y-118811727D01*
X147814880Y-119040535D01*
X148009465Y-119235120D01*
X148238273Y-119388005D01*
X148492510Y-119493314D01*
X148762408Y-119547000D01*
X149037592Y-119547000D01*
X149307490Y-119493314D01*
X149561727Y-119388005D01*
X149790535Y-119235120D01*
X149985120Y-119040535D01*
X150072341Y-118910000D01*
X154477199Y-118910000D01*
X155598201Y-120031003D01*
X155621999Y-120060001D01*
X155650997Y-120083799D01*
X155737724Y-120154974D01*
X155869753Y-120225546D01*
X156013014Y-120269003D01*
X156162000Y-120283677D01*
X156199333Y-120280000D01*
X163236678Y-120280000D01*
X163274000Y-120283676D01*
X163311322Y-120280000D01*
X163311333Y-120280000D01*
X163422986Y-120269003D01*
X163566247Y-120225546D01*
X163698276Y-120154974D01*
X163814001Y-120060001D01*
X163837804Y-120030998D01*
X164801004Y-119067798D01*
X164830001Y-119044001D01*
X164882526Y-118979999D01*
X164924974Y-118928277D01*
X164995546Y-118796247D01*
X164995546Y-118796246D01*
X165039003Y-118652986D01*
X165050000Y-118541333D01*
X165050000Y-118541323D01*
X165053676Y-118504000D01*
X165050000Y-118466678D01*
X165050000Y-115239322D01*
X165053676Y-115201999D01*
X165050000Y-115164676D01*
X165050000Y-115164667D01*
X165039003Y-115053014D01*
X164995546Y-114909753D01*
X164924974Y-114777724D01*
X164904065Y-114752246D01*
X164853799Y-114690996D01*
X164853795Y-114690992D01*
X164830001Y-114661999D01*
X164801008Y-114638205D01*
X164622802Y-114460000D01*
X164801008Y-114281795D01*
X164830001Y-114258001D01*
X164853795Y-114229008D01*
X164853799Y-114229004D01*
X164924973Y-114142277D01*
X164924974Y-114142276D01*
X164995546Y-114010247D01*
X165039003Y-113866986D01*
X165050000Y-113755333D01*
X165050000Y-113755324D01*
X165053676Y-113718001D01*
X165050000Y-113680678D01*
X165050000Y-109143325D01*
X165053676Y-109106000D01*
X165050000Y-109068675D01*
X165050000Y-109068667D01*
X165039003Y-108957014D01*
X164995546Y-108813753D01*
X164924974Y-108681724D01*
X164830001Y-108565999D01*
X164801004Y-108542202D01*
X164091803Y-107833002D01*
X164068001Y-107803999D01*
X163952276Y-107709026D01*
X163820247Y-107638454D01*
X163676986Y-107594997D01*
X163565333Y-107584000D01*
X163565322Y-107584000D01*
X163528000Y-107580324D01*
X163490678Y-107584000D01*
X161302802Y-107584000D01*
X160986000Y-107267199D01*
X160986000Y-105958665D01*
X162035000Y-105958665D01*
X162035000Y-106241335D01*
X162090147Y-106518574D01*
X162198320Y-106779727D01*
X162355363Y-107014759D01*
X162555241Y-107214637D01*
X162790273Y-107371680D01*
X163051426Y-107479853D01*
X163328665Y-107535000D01*
X163611335Y-107535000D01*
X163888574Y-107479853D01*
X164149727Y-107371680D01*
X164384759Y-107214637D01*
X164584637Y-107014759D01*
X164741680Y-106779727D01*
X164849853Y-106518574D01*
X164905000Y-106241335D01*
X164905000Y-105958665D01*
X164849853Y-105681426D01*
X164741680Y-105420273D01*
X164584637Y-105185241D01*
X164384759Y-104985363D01*
X164149727Y-104828320D01*
X163888574Y-104720147D01*
X163611335Y-104665000D01*
X163328665Y-104665000D01*
X163051426Y-104720147D01*
X162790273Y-104828320D01*
X162555241Y-104985363D01*
X162355363Y-105185241D01*
X162198320Y-105420273D01*
X162090147Y-105681426D01*
X162035000Y-105958665D01*
X160986000Y-105958665D01*
X160986000Y-95427322D01*
X160989676Y-95389999D01*
X160986000Y-95352676D01*
X160986000Y-95352667D01*
X160975003Y-95241014D01*
X160931546Y-95097753D01*
X160860974Y-94965724D01*
X160766001Y-94849999D01*
X160737004Y-94826202D01*
X159519804Y-93609003D01*
X159496001Y-93579999D01*
X159380276Y-93485026D01*
X159248247Y-93414454D01*
X159104986Y-93370997D01*
X158993333Y-93360000D01*
X158993322Y-93360000D01*
X158956000Y-93356324D01*
X158918678Y-93360000D01*
X155206803Y-93360000D01*
X154533514Y-92686712D01*
X155822893Y-92686712D01*
X155930726Y-92961338D01*
X156237384Y-93112216D01*
X156567585Y-93200369D01*
X156908639Y-93222409D01*
X157247439Y-93177489D01*
X157570966Y-93067336D01*
X157769274Y-92961338D01*
X157877107Y-92686712D01*
X157770395Y-92580000D01*
X161611928Y-92580000D01*
X161624188Y-92704482D01*
X161660498Y-92824180D01*
X161719463Y-92934494D01*
X161798815Y-93031185D01*
X161895506Y-93110537D01*
X162005820Y-93169502D01*
X162125518Y-93205812D01*
X162250000Y-93218072D01*
X163064250Y-93215000D01*
X163223000Y-93056250D01*
X163223000Y-91607000D01*
X163477000Y-91607000D01*
X163477000Y-93056250D01*
X163635750Y-93215000D01*
X164450000Y-93218072D01*
X164574482Y-93205812D01*
X164694180Y-93169502D01*
X164804494Y-93110537D01*
X164901185Y-93031185D01*
X164980537Y-92934494D01*
X165039502Y-92824180D01*
X165075812Y-92704482D01*
X165088072Y-92580000D01*
X165085000Y-91765750D01*
X164926250Y-91607000D01*
X163477000Y-91607000D01*
X163223000Y-91607000D01*
X161773750Y-91607000D01*
X161615000Y-91765750D01*
X161611928Y-92580000D01*
X157770395Y-92580000D01*
X156850000Y-91659605D01*
X155822893Y-92686712D01*
X154533514Y-92686712D01*
X154128000Y-92281199D01*
X154128000Y-91538639D01*
X155107591Y-91538639D01*
X155152511Y-91877439D01*
X155262664Y-92200966D01*
X155368662Y-92399274D01*
X155643288Y-92507107D01*
X156670395Y-91480000D01*
X157029605Y-91480000D01*
X158056712Y-92507107D01*
X158331338Y-92399274D01*
X158482216Y-92092616D01*
X158570369Y-91762415D01*
X158592409Y-91421361D01*
X158547489Y-91082561D01*
X158437336Y-90759034D01*
X158331338Y-90560726D01*
X158056712Y-90452893D01*
X157029605Y-91480000D01*
X156670395Y-91480000D01*
X155643288Y-90452893D01*
X155368662Y-90560726D01*
X155217784Y-90867384D01*
X155129631Y-91197585D01*
X155107591Y-91538639D01*
X154128000Y-91538639D01*
X154128000Y-90273288D01*
X155822893Y-90273288D01*
X156850000Y-91300395D01*
X157770395Y-90380000D01*
X161611928Y-90380000D01*
X161615000Y-91194250D01*
X161773750Y-91353000D01*
X163223000Y-91353000D01*
X163223000Y-89903750D01*
X163477000Y-89903750D01*
X163477000Y-91353000D01*
X164926250Y-91353000D01*
X165085000Y-91194250D01*
X165088072Y-90380000D01*
X165075812Y-90255518D01*
X165039502Y-90135820D01*
X164980537Y-90025506D01*
X164901185Y-89928815D01*
X164804494Y-89849463D01*
X164694180Y-89790498D01*
X164574482Y-89754188D01*
X164450000Y-89741928D01*
X163635750Y-89745000D01*
X163477000Y-89903750D01*
X163223000Y-89903750D01*
X163064250Y-89745000D01*
X162250000Y-89741928D01*
X162125518Y-89754188D01*
X162005820Y-89790498D01*
X161895506Y-89849463D01*
X161798815Y-89928815D01*
X161719463Y-90025506D01*
X161660498Y-90135820D01*
X161624188Y-90255518D01*
X161611928Y-90380000D01*
X157770395Y-90380000D01*
X157877107Y-90273288D01*
X157769274Y-89998662D01*
X157462616Y-89847784D01*
X157132415Y-89759631D01*
X156791361Y-89737591D01*
X156452561Y-89782511D01*
X156129034Y-89892664D01*
X155930726Y-89998662D01*
X155822893Y-90273288D01*
X154128000Y-90273288D01*
X154128000Y-86809117D01*
X155115000Y-86809117D01*
X155115000Y-87150883D01*
X155181675Y-87486081D01*
X155312463Y-87801831D01*
X155502337Y-88085998D01*
X155744002Y-88327663D01*
X156028169Y-88517537D01*
X156343919Y-88648325D01*
X156679117Y-88715000D01*
X157020883Y-88715000D01*
X157356081Y-88648325D01*
X157671831Y-88517537D01*
X157955998Y-88327663D01*
X158197663Y-88085998D01*
X158387537Y-87801831D01*
X158413148Y-87740000D01*
X161786852Y-87740000D01*
X161812463Y-87801831D01*
X162002337Y-88085998D01*
X162244002Y-88327663D01*
X162528169Y-88517537D01*
X162843919Y-88648325D01*
X163179117Y-88715000D01*
X163520883Y-88715000D01*
X163856081Y-88648325D01*
X164171831Y-88517537D01*
X164455998Y-88327663D01*
X164697663Y-88085998D01*
X164887537Y-87801831D01*
X165018325Y-87486081D01*
X165085000Y-87150883D01*
X165085000Y-86809117D01*
X165018325Y-86473919D01*
X164887537Y-86158169D01*
X164697663Y-85874002D01*
X164455998Y-85632337D01*
X164171831Y-85442463D01*
X163856081Y-85311675D01*
X163520883Y-85245000D01*
X163179117Y-85245000D01*
X162843919Y-85311675D01*
X162528169Y-85442463D01*
X162244002Y-85632337D01*
X162002337Y-85874002D01*
X161812463Y-86158169D01*
X161786852Y-86220000D01*
X158413148Y-86220000D01*
X158387537Y-86158169D01*
X158197663Y-85874002D01*
X157955998Y-85632337D01*
X157671831Y-85442463D01*
X157356081Y-85311675D01*
X157020883Y-85245000D01*
X156679117Y-85245000D01*
X156343919Y-85311675D01*
X156028169Y-85442463D01*
X155744002Y-85632337D01*
X155502337Y-85874002D01*
X155312463Y-86158169D01*
X155181675Y-86473919D01*
X155115000Y-86809117D01*
X154128000Y-86809117D01*
X154128000Y-79986712D01*
X155822893Y-79986712D01*
X155930726Y-80261338D01*
X156237384Y-80412216D01*
X156567585Y-80500369D01*
X156908639Y-80522409D01*
X157247439Y-80477489D01*
X157570966Y-80367336D01*
X157769274Y-80261338D01*
X157877107Y-79986712D01*
X157770395Y-79880000D01*
X161611928Y-79880000D01*
X161624188Y-80004482D01*
X161660498Y-80124180D01*
X161719463Y-80234494D01*
X161798815Y-80331185D01*
X161895506Y-80410537D01*
X162005820Y-80469502D01*
X162125518Y-80505812D01*
X162250000Y-80518072D01*
X163064250Y-80515000D01*
X163223000Y-80356250D01*
X163223000Y-78907000D01*
X163477000Y-78907000D01*
X163477000Y-80356250D01*
X163635750Y-80515000D01*
X164450000Y-80518072D01*
X164574482Y-80505812D01*
X164694180Y-80469502D01*
X164804494Y-80410537D01*
X164901185Y-80331185D01*
X164980537Y-80234494D01*
X165039502Y-80124180D01*
X165075812Y-80004482D01*
X165088072Y-79880000D01*
X165085000Y-79065750D01*
X164926250Y-78907000D01*
X163477000Y-78907000D01*
X163223000Y-78907000D01*
X161773750Y-78907000D01*
X161615000Y-79065750D01*
X161611928Y-79880000D01*
X157770395Y-79880000D01*
X156850000Y-78959605D01*
X155822893Y-79986712D01*
X154128000Y-79986712D01*
X154128000Y-78838639D01*
X155107591Y-78838639D01*
X155152511Y-79177439D01*
X155262664Y-79500966D01*
X155368662Y-79699274D01*
X155643288Y-79807107D01*
X156670395Y-78780000D01*
X157029605Y-78780000D01*
X158056712Y-79807107D01*
X158331338Y-79699274D01*
X158482216Y-79392616D01*
X158570369Y-79062415D01*
X158592409Y-78721361D01*
X158547489Y-78382561D01*
X158437336Y-78059034D01*
X158331338Y-77860726D01*
X158056712Y-77752893D01*
X157029605Y-78780000D01*
X156670395Y-78780000D01*
X155643288Y-77752893D01*
X155368662Y-77860726D01*
X155217784Y-78167384D01*
X155129631Y-78497585D01*
X155107591Y-78838639D01*
X154128000Y-78838639D01*
X154128000Y-77573288D01*
X155822893Y-77573288D01*
X156850000Y-78600395D01*
X157770395Y-77680000D01*
X161611928Y-77680000D01*
X161615000Y-78494250D01*
X161773750Y-78653000D01*
X163223000Y-78653000D01*
X163223000Y-77203750D01*
X163477000Y-77203750D01*
X163477000Y-78653000D01*
X164926250Y-78653000D01*
X165085000Y-78494250D01*
X165088072Y-77680000D01*
X165075812Y-77555518D01*
X165039502Y-77435820D01*
X164980537Y-77325506D01*
X164901185Y-77228815D01*
X164804494Y-77149463D01*
X164694180Y-77090498D01*
X164574482Y-77054188D01*
X164450000Y-77041928D01*
X163635750Y-77045000D01*
X163477000Y-77203750D01*
X163223000Y-77203750D01*
X163064250Y-77045000D01*
X162250000Y-77041928D01*
X162125518Y-77054188D01*
X162005820Y-77090498D01*
X161895506Y-77149463D01*
X161798815Y-77228815D01*
X161719463Y-77325506D01*
X161660498Y-77435820D01*
X161624188Y-77555518D01*
X161611928Y-77680000D01*
X157770395Y-77680000D01*
X157877107Y-77573288D01*
X157769274Y-77298662D01*
X157462616Y-77147784D01*
X157132415Y-77059631D01*
X156791361Y-77037591D01*
X156452561Y-77082511D01*
X156129034Y-77192664D01*
X155930726Y-77298662D01*
X155822893Y-77573288D01*
X154128000Y-77573288D01*
X154128000Y-75836801D01*
X154924802Y-75040000D01*
X155286852Y-75040000D01*
X155312463Y-75101831D01*
X155502337Y-75385998D01*
X155744002Y-75627663D01*
X156028169Y-75817537D01*
X156343919Y-75948325D01*
X156679117Y-76015000D01*
X157020883Y-76015000D01*
X157356081Y-75948325D01*
X157671831Y-75817537D01*
X157955998Y-75627663D01*
X158197663Y-75385998D01*
X158387537Y-75101831D01*
X158413148Y-75040000D01*
X161786852Y-75040000D01*
X161812463Y-75101831D01*
X162002337Y-75385998D01*
X162244002Y-75627663D01*
X162528169Y-75817537D01*
X162843919Y-75948325D01*
X163179117Y-76015000D01*
X163520883Y-76015000D01*
X163856081Y-75948325D01*
X164171831Y-75817537D01*
X164455998Y-75627663D01*
X164697663Y-75385998D01*
X164887537Y-75101831D01*
X165018325Y-74786081D01*
X165085000Y-74450883D01*
X165085000Y-74109117D01*
X165018325Y-73773919D01*
X164887537Y-73458169D01*
X164697663Y-73174002D01*
X164455998Y-72932337D01*
X164171831Y-72742463D01*
X163856081Y-72611675D01*
X163520883Y-72545000D01*
X163179117Y-72545000D01*
X162843919Y-72611675D01*
X162528169Y-72742463D01*
X162244002Y-72932337D01*
X162002337Y-73174002D01*
X161812463Y-73458169D01*
X161786852Y-73520000D01*
X158413148Y-73520000D01*
X158387537Y-73458169D01*
X158197663Y-73174002D01*
X157955998Y-72932337D01*
X157671831Y-72742463D01*
X157356081Y-72611675D01*
X157020883Y-72545000D01*
X156679117Y-72545000D01*
X156343919Y-72611675D01*
X156028169Y-72742463D01*
X155744002Y-72932337D01*
X155502337Y-73174002D01*
X155312463Y-73458169D01*
X155286852Y-73520000D01*
X154647322Y-73520000D01*
X154609999Y-73516324D01*
X154572676Y-73520000D01*
X154572667Y-73520000D01*
X154461014Y-73530997D01*
X154317753Y-73574454D01*
X154185724Y-73645026D01*
X154069999Y-73739999D01*
X154046201Y-73768997D01*
X152857003Y-74958196D01*
X152827999Y-74981999D01*
X152787167Y-75031754D01*
X152733026Y-75097724D01*
X152691713Y-75175015D01*
X152662454Y-75229754D01*
X152618997Y-75373015D01*
X152608000Y-75484668D01*
X152608000Y-75484678D01*
X152604324Y-75522000D01*
X152608000Y-75559322D01*
X152608001Y-92558667D01*
X152604324Y-92596000D01*
X152608001Y-92633333D01*
X152613259Y-92686712D01*
X152618998Y-92744985D01*
X152662454Y-92888246D01*
X152733026Y-93020276D01*
X152771648Y-93067336D01*
X152828000Y-93136001D01*
X152856998Y-93159799D01*
X154328205Y-94631008D01*
X154351999Y-94660001D01*
X154380992Y-94683795D01*
X154380996Y-94683799D01*
X154451685Y-94741811D01*
X154467724Y-94754974D01*
X154599753Y-94825546D01*
X154743014Y-94869003D01*
X154854667Y-94880000D01*
X154854676Y-94880000D01*
X154891999Y-94883676D01*
X154929322Y-94880000D01*
X158641199Y-94880000D01*
X159466000Y-95704802D01*
X159466001Y-107544668D01*
X159462324Y-107582000D01*
X159476998Y-107730985D01*
X159520454Y-107874246D01*
X159591026Y-108006276D01*
X159662201Y-108093002D01*
X159686000Y-108122001D01*
X159714998Y-108145799D01*
X160424201Y-108855002D01*
X160447999Y-108884001D01*
X160563724Y-108978974D01*
X160695753Y-109049546D01*
X160731864Y-109060500D01*
X156709657Y-109060500D01*
X156669999Y-109056594D01*
X156630341Y-109060500D01*
X156630332Y-109060500D01*
X156511702Y-109072184D01*
X156359488Y-109118358D01*
X156219206Y-109193340D01*
X156096249Y-109294249D01*
X156070962Y-109325061D01*
X155673523Y-109722500D01*
X150040602Y-109722500D01*
X149985120Y-109639465D01*
X149790535Y-109444880D01*
X149561727Y-109291995D01*
X149307490Y-109186686D01*
X149037592Y-109133000D01*
X148762408Y-109133000D01*
X148492510Y-109186686D01*
X148238273Y-109291995D01*
X148009465Y-109444880D01*
X147814880Y-109639465D01*
X147661995Y-109868273D01*
X147556686Y-110122510D01*
X147503000Y-110392408D01*
X147503000Y-110667592D01*
X147522483Y-110765539D01*
X145205056Y-113082967D01*
X145174250Y-113108249D01*
X145148968Y-113139055D01*
X145148962Y-113139061D01*
X145073340Y-113231207D01*
X144998358Y-113371489D01*
X144952184Y-113523703D01*
X144936594Y-113682000D01*
X144940501Y-113721671D01*
X144940500Y-120455522D01*
X139257056Y-126138967D01*
X139226250Y-126164249D01*
X139200968Y-126195055D01*
X139200962Y-126195061D01*
X139125340Y-126287207D01*
X139050358Y-126427489D01*
X139004184Y-126579703D01*
X138988594Y-126738000D01*
X138992501Y-126777671D01*
X138992500Y-133573157D01*
X138757748Y-133730013D01*
X138530013Y-133957748D01*
X138373157Y-134192500D01*
X136416478Y-134192500D01*
X135887500Y-133663523D01*
X135887500Y-119115565D01*
X140494040Y-119115565D01*
X140561020Y-119355656D01*
X140810048Y-119472756D01*
X141077135Y-119539023D01*
X141352017Y-119551910D01*
X141624133Y-119510922D01*
X141883023Y-119417636D01*
X141998980Y-119355656D01*
X142065960Y-119115565D01*
X141280000Y-118329605D01*
X140494040Y-119115565D01*
X135887500Y-119115565D01*
X135887500Y-118222017D01*
X139878090Y-118222017D01*
X139919078Y-118494133D01*
X140012364Y-118753023D01*
X140074344Y-118868980D01*
X140314435Y-118935960D01*
X141100395Y-118150000D01*
X141459605Y-118150000D01*
X142245565Y-118935960D01*
X142485656Y-118868980D01*
X142602756Y-118619952D01*
X142669023Y-118352865D01*
X142681910Y-118077983D01*
X142640922Y-117805867D01*
X142547636Y-117546977D01*
X142485656Y-117431020D01*
X142245565Y-117364040D01*
X141459605Y-118150000D01*
X141100395Y-118150000D01*
X140314435Y-117364040D01*
X140074344Y-117431020D01*
X139957244Y-117680048D01*
X139890977Y-117947135D01*
X139878090Y-118222017D01*
X135887500Y-118222017D01*
X135887500Y-63386000D01*
X136094324Y-63386000D01*
X136098000Y-63423322D01*
X136098001Y-111862667D01*
X136094324Y-111900000D01*
X136108998Y-112048985D01*
X136152454Y-112192246D01*
X136223026Y-112324276D01*
X136294201Y-112411002D01*
X136318000Y-112440001D01*
X136346998Y-112463799D01*
X137464200Y-113581002D01*
X137487999Y-113610001D01*
X137603724Y-113704974D01*
X137735753Y-113775546D01*
X137879014Y-113819003D01*
X137990667Y-113830000D01*
X137990677Y-113830000D01*
X138028000Y-113833676D01*
X138065323Y-113830000D01*
X140107659Y-113830000D01*
X140194880Y-113960535D01*
X140389465Y-114155120D01*
X140618273Y-114308005D01*
X140695515Y-114340000D01*
X140618273Y-114371995D01*
X140389465Y-114524880D01*
X140194880Y-114719465D01*
X140041995Y-114948273D01*
X139936686Y-115202510D01*
X139883000Y-115472408D01*
X139883000Y-115747592D01*
X139936686Y-116017490D01*
X140041995Y-116271727D01*
X140194880Y-116500535D01*
X140389465Y-116695120D01*
X140618273Y-116848005D01*
X140689943Y-116877692D01*
X140676977Y-116882364D01*
X140561020Y-116944344D01*
X140494040Y-117184435D01*
X141280000Y-117970395D01*
X142065960Y-117184435D01*
X141998980Y-116944344D01*
X141863240Y-116880515D01*
X141941727Y-116848005D01*
X142170535Y-116695120D01*
X142365120Y-116500535D01*
X142452341Y-116370000D01*
X142508678Y-116370000D01*
X142546000Y-116373676D01*
X142583322Y-116370000D01*
X142583333Y-116370000D01*
X142694986Y-116359003D01*
X142838247Y-116315546D01*
X142970276Y-116244974D01*
X143086001Y-116150001D01*
X143109803Y-116120998D01*
X143719009Y-115511794D01*
X143748001Y-115488001D01*
X143771795Y-115459008D01*
X143771799Y-115459004D01*
X143842973Y-115372277D01*
X143842974Y-115372276D01*
X143913546Y-115240247D01*
X143957003Y-115096986D01*
X143968000Y-114985333D01*
X143968000Y-114985324D01*
X143971676Y-114948001D01*
X143968000Y-114910678D01*
X143968000Y-102770000D01*
X146899928Y-102770000D01*
X146912188Y-102894482D01*
X146948498Y-103014180D01*
X147007463Y-103124494D01*
X147086815Y-103221185D01*
X147183506Y-103300537D01*
X147293820Y-103359502D01*
X147413518Y-103395812D01*
X147538000Y-103408072D01*
X148002250Y-103405000D01*
X148161000Y-103246250D01*
X148161000Y-102397000D01*
X148415000Y-102397000D01*
X148415000Y-103246250D01*
X148573750Y-103405000D01*
X149038000Y-103408072D01*
X149162482Y-103395812D01*
X149282180Y-103359502D01*
X149392494Y-103300537D01*
X149489185Y-103221185D01*
X149568537Y-103124494D01*
X149627502Y-103014180D01*
X149663812Y-102894482D01*
X149676072Y-102770000D01*
X149673000Y-102555750D01*
X149514250Y-102397000D01*
X148415000Y-102397000D01*
X148161000Y-102397000D01*
X147061750Y-102397000D01*
X146903000Y-102555750D01*
X146899928Y-102770000D01*
X143968000Y-102770000D01*
X143968000Y-99730000D01*
X146897509Y-99730000D01*
X146919423Y-99952499D01*
X146984324Y-100166447D01*
X147089716Y-100363623D01*
X147090846Y-100365000D01*
X147089716Y-100366377D01*
X146984324Y-100563553D01*
X146919423Y-100777501D01*
X146897509Y-101000000D01*
X146919423Y-101222499D01*
X146984324Y-101436447D01*
X146990297Y-101447621D01*
X146948498Y-101525820D01*
X146912188Y-101645518D01*
X146899928Y-101770000D01*
X146903000Y-101984250D01*
X147061750Y-102143000D01*
X148161000Y-102143000D01*
X148161000Y-102135000D01*
X148415000Y-102135000D01*
X148415000Y-102143000D01*
X149514250Y-102143000D01*
X149673000Y-101984250D01*
X149676072Y-101770000D01*
X149675087Y-101760000D01*
X149773199Y-101760000D01*
X150068000Y-102054802D01*
X150068001Y-105004668D01*
X150064324Y-105042000D01*
X150078998Y-105190985D01*
X150122454Y-105334246D01*
X150193026Y-105466276D01*
X150264201Y-105553002D01*
X150288000Y-105582001D01*
X150316998Y-105605799D01*
X151322201Y-106611003D01*
X151345999Y-106640001D01*
X151374997Y-106663799D01*
X151461723Y-106734974D01*
X151593753Y-106805546D01*
X151737014Y-106849003D01*
X151848667Y-106860000D01*
X151848677Y-106860000D01*
X151886000Y-106863676D01*
X151923323Y-106860000D01*
X154631957Y-106860000D01*
X154735363Y-107014759D01*
X154935241Y-107214637D01*
X155170273Y-107371680D01*
X155431426Y-107479853D01*
X155708665Y-107535000D01*
X155991335Y-107535000D01*
X156268574Y-107479853D01*
X156529727Y-107371680D01*
X156764759Y-107214637D01*
X156964637Y-107014759D01*
X157121680Y-106779727D01*
X157229853Y-106518574D01*
X157285000Y-106241335D01*
X157285000Y-105958665D01*
X157229853Y-105681426D01*
X157121680Y-105420273D01*
X156964637Y-105185241D01*
X156764759Y-104985363D01*
X156529727Y-104828320D01*
X156268574Y-104720147D01*
X155991335Y-104665000D01*
X155708665Y-104665000D01*
X155431426Y-104720147D01*
X155170273Y-104828320D01*
X154935241Y-104985363D01*
X154735363Y-105185241D01*
X154631957Y-105340000D01*
X152200802Y-105340000D01*
X151588000Y-104727199D01*
X151588000Y-101777322D01*
X151591676Y-101739999D01*
X151588000Y-101702676D01*
X151588000Y-101702667D01*
X151577003Y-101591014D01*
X151533546Y-101447753D01*
X151516309Y-101415506D01*
X151462974Y-101315723D01*
X151391799Y-101228997D01*
X151368001Y-101199999D01*
X151339004Y-101176202D01*
X150700301Y-100537500D01*
X154663740Y-100537500D01*
X154715363Y-100614759D01*
X154915241Y-100814637D01*
X155022500Y-100886305D01*
X155022500Y-101713695D01*
X154915241Y-101785363D01*
X154715363Y-101985241D01*
X154558320Y-102220273D01*
X154450147Y-102481426D01*
X154395000Y-102758665D01*
X154395000Y-103041335D01*
X154450147Y-103318574D01*
X154558320Y-103579727D01*
X154715363Y-103814759D01*
X154915241Y-104014637D01*
X155150273Y-104171680D01*
X155411426Y-104279853D01*
X155688665Y-104335000D01*
X155971335Y-104335000D01*
X156248574Y-104279853D01*
X156509727Y-104171680D01*
X156744759Y-104014637D01*
X156944637Y-103814759D01*
X157101680Y-103579727D01*
X157209853Y-103318574D01*
X157265000Y-103041335D01*
X157265000Y-102758665D01*
X157209853Y-102481426D01*
X157101680Y-102220273D01*
X156944637Y-101985241D01*
X156744759Y-101785363D01*
X156637500Y-101713695D01*
X156637500Y-100886305D01*
X156744759Y-100814637D01*
X156944637Y-100614759D01*
X157101680Y-100379727D01*
X157209853Y-100118574D01*
X157265000Y-99841335D01*
X157265000Y-99558665D01*
X157209853Y-99281426D01*
X157101680Y-99020273D01*
X156944637Y-98785241D01*
X156744759Y-98585363D01*
X156637500Y-98513695D01*
X156637500Y-97686305D01*
X156744759Y-97614637D01*
X156944637Y-97414759D01*
X157101680Y-97179727D01*
X157209853Y-96918574D01*
X157265000Y-96641335D01*
X157265000Y-96358665D01*
X157209853Y-96081426D01*
X157101680Y-95820273D01*
X156944637Y-95585241D01*
X156744759Y-95385363D01*
X156509727Y-95228320D01*
X156248574Y-95120147D01*
X155971335Y-95065000D01*
X155688665Y-95065000D01*
X155411426Y-95120147D01*
X155150273Y-95228320D01*
X154915241Y-95385363D01*
X154715363Y-95585241D01*
X154558320Y-95820273D01*
X154450147Y-96081426D01*
X154395000Y-96358665D01*
X154395000Y-96641335D01*
X154450147Y-96918574D01*
X154558320Y-97179727D01*
X154715363Y-97414759D01*
X154915241Y-97614637D01*
X155022501Y-97686306D01*
X155022501Y-98513695D01*
X154915241Y-98585363D01*
X154715363Y-98785241D01*
X154623650Y-98922500D01*
X149343168Y-98922500D01*
X149171623Y-98781716D01*
X148974447Y-98676324D01*
X148760499Y-98611423D01*
X148593752Y-98595000D01*
X147982248Y-98595000D01*
X147815501Y-98611423D01*
X147601553Y-98676324D01*
X147404377Y-98781716D01*
X147231551Y-98923551D01*
X147089716Y-99096377D01*
X146984324Y-99293553D01*
X146919423Y-99507501D01*
X146897509Y-99730000D01*
X143968000Y-99730000D01*
X143968000Y-99006801D01*
X144792802Y-98182000D01*
X149520678Y-98182000D01*
X149558000Y-98185676D01*
X149595322Y-98182000D01*
X149595333Y-98182000D01*
X149706986Y-98171003D01*
X149850247Y-98127546D01*
X149982276Y-98056974D01*
X150098001Y-97962001D01*
X150121803Y-97932998D01*
X151593008Y-96461795D01*
X151622001Y-96438001D01*
X151645795Y-96409008D01*
X151645799Y-96409004D01*
X151716973Y-96322277D01*
X151716974Y-96322276D01*
X151787546Y-96190247D01*
X151831003Y-96046986D01*
X151842000Y-95935333D01*
X151842000Y-95935324D01*
X151845676Y-95898001D01*
X151842000Y-95860678D01*
X151842000Y-75361323D01*
X151845676Y-75324000D01*
X151842000Y-75286677D01*
X151842000Y-75286667D01*
X151831003Y-75175014D01*
X151787546Y-75031753D01*
X151776452Y-75010998D01*
X151716974Y-74899723D01*
X151645799Y-74812997D01*
X151622001Y-74783999D01*
X151593004Y-74760202D01*
X150601804Y-73769002D01*
X150578001Y-73739999D01*
X150462276Y-73645026D01*
X150330247Y-73574454D01*
X150186986Y-73530997D01*
X150075333Y-73520000D01*
X150075322Y-73520000D01*
X150038000Y-73516324D01*
X150000678Y-73520000D01*
X149673148Y-73520000D01*
X149647537Y-73458169D01*
X149457663Y-73174002D01*
X149215998Y-72932337D01*
X148931831Y-72742463D01*
X148616081Y-72611675D01*
X148280883Y-72545000D01*
X147939117Y-72545000D01*
X147603919Y-72611675D01*
X147288169Y-72742463D01*
X147004002Y-72932337D01*
X146762337Y-73174002D01*
X146572463Y-73458169D01*
X146546852Y-73520000D01*
X143173148Y-73520000D01*
X143147537Y-73458169D01*
X142957663Y-73174002D01*
X142715998Y-72932337D01*
X142431831Y-72742463D01*
X142116081Y-72611675D01*
X141780883Y-72545000D01*
X141439117Y-72545000D01*
X141103919Y-72611675D01*
X140788169Y-72742463D01*
X140504002Y-72932337D01*
X140262337Y-73174002D01*
X140072463Y-73458169D01*
X139941675Y-73773919D01*
X139875000Y-74109117D01*
X139875000Y-74450883D01*
X139941675Y-74786081D01*
X140072463Y-75101831D01*
X140262337Y-75385998D01*
X140504002Y-75627663D01*
X140788169Y-75817537D01*
X141103919Y-75948325D01*
X141439117Y-76015000D01*
X141780883Y-76015000D01*
X142116081Y-75948325D01*
X142431831Y-75817537D01*
X142715998Y-75627663D01*
X142957663Y-75385998D01*
X143147537Y-75101831D01*
X143173148Y-75040000D01*
X146546852Y-75040000D01*
X146572463Y-75101831D01*
X146762337Y-75385998D01*
X147004002Y-75627663D01*
X147288169Y-75817537D01*
X147603919Y-75948325D01*
X147939117Y-76015000D01*
X148280883Y-76015000D01*
X148616081Y-75948325D01*
X148931831Y-75817537D01*
X149215998Y-75627663D01*
X149457663Y-75385998D01*
X149647537Y-75101831D01*
X149673148Y-75040000D01*
X149723199Y-75040000D01*
X150322000Y-75638802D01*
X150322001Y-95583196D01*
X149243199Y-96662000D01*
X144515322Y-96662000D01*
X144477999Y-96658324D01*
X144440676Y-96662000D01*
X144440667Y-96662000D01*
X144329014Y-96672997D01*
X144185753Y-96716454D01*
X144053724Y-96787026D01*
X143937999Y-96881999D01*
X143914201Y-96910997D01*
X142696998Y-98128201D01*
X142668000Y-98151999D01*
X142644202Y-98180997D01*
X142644201Y-98180998D01*
X142573026Y-98267724D01*
X142502454Y-98399754D01*
X142458998Y-98543015D01*
X142444324Y-98692000D01*
X142448001Y-98729333D01*
X142448000Y-109763504D01*
X142365120Y-109639465D01*
X142170535Y-109444880D01*
X141941727Y-109291995D01*
X141687490Y-109186686D01*
X141417592Y-109133000D01*
X141142408Y-109133000D01*
X140872510Y-109186686D01*
X140618273Y-109291995D01*
X140389465Y-109444880D01*
X140194880Y-109639465D01*
X140107659Y-109770000D01*
X139358802Y-109770000D01*
X139142000Y-109553198D01*
X139142000Y-79986712D01*
X140582893Y-79986712D01*
X140690726Y-80261338D01*
X140997384Y-80412216D01*
X141327585Y-80500369D01*
X141668639Y-80522409D01*
X142007439Y-80477489D01*
X142330966Y-80367336D01*
X142529274Y-80261338D01*
X142637107Y-79986712D01*
X142530395Y-79880000D01*
X146371928Y-79880000D01*
X146384188Y-80004482D01*
X146420498Y-80124180D01*
X146479463Y-80234494D01*
X146558815Y-80331185D01*
X146655506Y-80410537D01*
X146765820Y-80469502D01*
X146885518Y-80505812D01*
X147010000Y-80518072D01*
X147824250Y-80515000D01*
X147983000Y-80356250D01*
X147983000Y-78907000D01*
X148237000Y-78907000D01*
X148237000Y-80356250D01*
X148395750Y-80515000D01*
X149210000Y-80518072D01*
X149334482Y-80505812D01*
X149454180Y-80469502D01*
X149564494Y-80410537D01*
X149661185Y-80331185D01*
X149740537Y-80234494D01*
X149799502Y-80124180D01*
X149835812Y-80004482D01*
X149848072Y-79880000D01*
X149845000Y-79065750D01*
X149686250Y-78907000D01*
X148237000Y-78907000D01*
X147983000Y-78907000D01*
X146533750Y-78907000D01*
X146375000Y-79065750D01*
X146371928Y-79880000D01*
X142530395Y-79880000D01*
X141610000Y-78959605D01*
X140582893Y-79986712D01*
X139142000Y-79986712D01*
X139142000Y-78838639D01*
X139867591Y-78838639D01*
X139912511Y-79177439D01*
X140022664Y-79500966D01*
X140128662Y-79699274D01*
X140403288Y-79807107D01*
X141430395Y-78780000D01*
X141789605Y-78780000D01*
X142816712Y-79807107D01*
X143091338Y-79699274D01*
X143242216Y-79392616D01*
X143330369Y-79062415D01*
X143352409Y-78721361D01*
X143307489Y-78382561D01*
X143197336Y-78059034D01*
X143091338Y-77860726D01*
X142816712Y-77752893D01*
X141789605Y-78780000D01*
X141430395Y-78780000D01*
X140403288Y-77752893D01*
X140128662Y-77860726D01*
X139977784Y-78167384D01*
X139889631Y-78497585D01*
X139867591Y-78838639D01*
X139142000Y-78838639D01*
X139142000Y-77573288D01*
X140582893Y-77573288D01*
X141610000Y-78600395D01*
X142530395Y-77680000D01*
X146371928Y-77680000D01*
X146375000Y-78494250D01*
X146533750Y-78653000D01*
X147983000Y-78653000D01*
X147983000Y-77203750D01*
X148237000Y-77203750D01*
X148237000Y-78653000D01*
X149686250Y-78653000D01*
X149845000Y-78494250D01*
X149848072Y-77680000D01*
X149835812Y-77555518D01*
X149799502Y-77435820D01*
X149740537Y-77325506D01*
X149661185Y-77228815D01*
X149564494Y-77149463D01*
X149454180Y-77090498D01*
X149334482Y-77054188D01*
X149210000Y-77041928D01*
X148395750Y-77045000D01*
X148237000Y-77203750D01*
X147983000Y-77203750D01*
X147824250Y-77045000D01*
X147010000Y-77041928D01*
X146885518Y-77054188D01*
X146765820Y-77090498D01*
X146655506Y-77149463D01*
X146558815Y-77228815D01*
X146479463Y-77325506D01*
X146420498Y-77435820D01*
X146384188Y-77555518D01*
X146371928Y-77680000D01*
X142530395Y-77680000D01*
X142637107Y-77573288D01*
X142529274Y-77298662D01*
X142222616Y-77147784D01*
X141892415Y-77059631D01*
X141551361Y-77037591D01*
X141212561Y-77082511D01*
X140889034Y-77192664D01*
X140690726Y-77298662D01*
X140582893Y-77573288D01*
X139142000Y-77573288D01*
X139142000Y-71828801D01*
X140220803Y-70750000D01*
X149266678Y-70750000D01*
X149304000Y-70753676D01*
X149341322Y-70750000D01*
X149341333Y-70750000D01*
X149452986Y-70739003D01*
X149596247Y-70695546D01*
X149728276Y-70624974D01*
X149844001Y-70530001D01*
X149867804Y-70500997D01*
X151593003Y-68775799D01*
X151622001Y-68752001D01*
X151716974Y-68636276D01*
X151787546Y-68504247D01*
X151831003Y-68360986D01*
X151842000Y-68249333D01*
X151842000Y-68249325D01*
X151845676Y-68212000D01*
X151842000Y-68174675D01*
X151842000Y-67286712D01*
X155822893Y-67286712D01*
X155930726Y-67561338D01*
X156237384Y-67712216D01*
X156567585Y-67800369D01*
X156908639Y-67822409D01*
X157247439Y-67777489D01*
X157570966Y-67667336D01*
X157769274Y-67561338D01*
X157877107Y-67286712D01*
X157770395Y-67180000D01*
X161611928Y-67180000D01*
X161624188Y-67304482D01*
X161660498Y-67424180D01*
X161719463Y-67534494D01*
X161798815Y-67631185D01*
X161895506Y-67710537D01*
X162005820Y-67769502D01*
X162125518Y-67805812D01*
X162250000Y-67818072D01*
X163064250Y-67815000D01*
X163223000Y-67656250D01*
X163223000Y-66207000D01*
X163477000Y-66207000D01*
X163477000Y-67656250D01*
X163635750Y-67815000D01*
X164450000Y-67818072D01*
X164574482Y-67805812D01*
X164694180Y-67769502D01*
X164804494Y-67710537D01*
X164901185Y-67631185D01*
X164980537Y-67534494D01*
X165039502Y-67424180D01*
X165075812Y-67304482D01*
X165088072Y-67180000D01*
X165085000Y-66365750D01*
X164926250Y-66207000D01*
X163477000Y-66207000D01*
X163223000Y-66207000D01*
X161773750Y-66207000D01*
X161615000Y-66365750D01*
X161611928Y-67180000D01*
X157770395Y-67180000D01*
X156850000Y-66259605D01*
X155822893Y-67286712D01*
X151842000Y-67286712D01*
X151842000Y-66138639D01*
X155107591Y-66138639D01*
X155152511Y-66477439D01*
X155262664Y-66800966D01*
X155368662Y-66999274D01*
X155643288Y-67107107D01*
X156670395Y-66080000D01*
X157029605Y-66080000D01*
X158056712Y-67107107D01*
X158331338Y-66999274D01*
X158482216Y-66692616D01*
X158570369Y-66362415D01*
X158592409Y-66021361D01*
X158547489Y-65682561D01*
X158437336Y-65359034D01*
X158331338Y-65160726D01*
X158056712Y-65052893D01*
X157029605Y-66080000D01*
X156670395Y-66080000D01*
X155643288Y-65052893D01*
X155368662Y-65160726D01*
X155217784Y-65467384D01*
X155129631Y-65797585D01*
X155107591Y-66138639D01*
X151842000Y-66138639D01*
X151842000Y-64873288D01*
X155822893Y-64873288D01*
X156850000Y-65900395D01*
X157770395Y-64980000D01*
X161611928Y-64980000D01*
X161615000Y-65794250D01*
X161773750Y-65953000D01*
X163223000Y-65953000D01*
X163223000Y-64503750D01*
X163477000Y-64503750D01*
X163477000Y-65953000D01*
X164926250Y-65953000D01*
X165085000Y-65794250D01*
X165088072Y-64980000D01*
X165075812Y-64855518D01*
X165039502Y-64735820D01*
X164980537Y-64625506D01*
X164901185Y-64528815D01*
X164804494Y-64449463D01*
X164694180Y-64390498D01*
X164574482Y-64354188D01*
X164450000Y-64341928D01*
X163635750Y-64345000D01*
X163477000Y-64503750D01*
X163223000Y-64503750D01*
X163064250Y-64345000D01*
X162250000Y-64341928D01*
X162125518Y-64354188D01*
X162005820Y-64390498D01*
X161895506Y-64449463D01*
X161798815Y-64528815D01*
X161719463Y-64625506D01*
X161660498Y-64735820D01*
X161624188Y-64855518D01*
X161611928Y-64980000D01*
X157770395Y-64980000D01*
X157877107Y-64873288D01*
X157769274Y-64598662D01*
X157462616Y-64447784D01*
X157132415Y-64359631D01*
X156791361Y-64337591D01*
X156452561Y-64382511D01*
X156129034Y-64492664D01*
X155930726Y-64598662D01*
X155822893Y-64873288D01*
X151842000Y-64873288D01*
X151842000Y-64208801D01*
X153710802Y-62340000D01*
X155286852Y-62340000D01*
X155312463Y-62401831D01*
X155502337Y-62685998D01*
X155744002Y-62927663D01*
X156028169Y-63117537D01*
X156343919Y-63248325D01*
X156679117Y-63315000D01*
X157020883Y-63315000D01*
X157356081Y-63248325D01*
X157671831Y-63117537D01*
X157955998Y-62927663D01*
X158197663Y-62685998D01*
X158387537Y-62401831D01*
X158413148Y-62340000D01*
X161786852Y-62340000D01*
X161812463Y-62401831D01*
X162002337Y-62685998D01*
X162244002Y-62927663D01*
X162528169Y-63117537D01*
X162843919Y-63248325D01*
X163179117Y-63315000D01*
X163520883Y-63315000D01*
X163856081Y-63248325D01*
X164171831Y-63117537D01*
X164455998Y-62927663D01*
X164697663Y-62685998D01*
X164887537Y-62401831D01*
X165018325Y-62086081D01*
X165085000Y-61750883D01*
X165085000Y-61409117D01*
X165018325Y-61073919D01*
X164887537Y-60758169D01*
X164697663Y-60474002D01*
X164455998Y-60232337D01*
X164171831Y-60042463D01*
X163856081Y-59911675D01*
X163520883Y-59845000D01*
X163179117Y-59845000D01*
X162843919Y-59911675D01*
X162528169Y-60042463D01*
X162244002Y-60232337D01*
X162002337Y-60474002D01*
X161812463Y-60758169D01*
X161786852Y-60820000D01*
X158413148Y-60820000D01*
X158387537Y-60758169D01*
X158197663Y-60474002D01*
X157955998Y-60232337D01*
X157671831Y-60042463D01*
X157356081Y-59911675D01*
X157020883Y-59845000D01*
X156679117Y-59845000D01*
X156343919Y-59911675D01*
X156028169Y-60042463D01*
X155744002Y-60232337D01*
X155502337Y-60474002D01*
X155312463Y-60758169D01*
X155286852Y-60820000D01*
X153433322Y-60820000D01*
X153395999Y-60816324D01*
X153358676Y-60820000D01*
X153358667Y-60820000D01*
X153247014Y-60830997D01*
X153103753Y-60874454D01*
X152971724Y-60945026D01*
X152855999Y-61039999D01*
X152832201Y-61068997D01*
X150571003Y-63330196D01*
X150541999Y-63353999D01*
X150515737Y-63386000D01*
X150447026Y-63469724D01*
X150412143Y-63534985D01*
X150376454Y-63601754D01*
X150332997Y-63745015D01*
X150322000Y-63856668D01*
X150322000Y-63856678D01*
X150318324Y-63894000D01*
X150322000Y-63931323D01*
X150322001Y-67897197D01*
X148989199Y-69230000D01*
X139943322Y-69230000D01*
X139905999Y-69226324D01*
X139868676Y-69230000D01*
X139868667Y-69230000D01*
X139757014Y-69240997D01*
X139613753Y-69284454D01*
X139481724Y-69355026D01*
X139481722Y-69355027D01*
X139481723Y-69355027D01*
X139394996Y-69426201D01*
X139394992Y-69426205D01*
X139365999Y-69449999D01*
X139342205Y-69478992D01*
X137871002Y-70950197D01*
X137841999Y-70973999D01*
X137786871Y-71041174D01*
X137747026Y-71089724D01*
X137676455Y-71221753D01*
X137676454Y-71221754D01*
X137632997Y-71365015D01*
X137622000Y-71476668D01*
X137622000Y-71476678D01*
X137618324Y-71514000D01*
X137622000Y-71551322D01*
X137622001Y-109830667D01*
X137618324Y-109868000D01*
X137622001Y-109905333D01*
X137632998Y-110016986D01*
X137635823Y-110026298D01*
X137676454Y-110160246D01*
X137747026Y-110292276D01*
X137812210Y-110371702D01*
X137842000Y-110408001D01*
X137870997Y-110431798D01*
X138480205Y-111041008D01*
X138503999Y-111070001D01*
X138532992Y-111093795D01*
X138532996Y-111093799D01*
X138584814Y-111136324D01*
X138619724Y-111164974D01*
X138751753Y-111235546D01*
X138895014Y-111279003D01*
X139006667Y-111290000D01*
X139006676Y-111290000D01*
X139043999Y-111293676D01*
X139081322Y-111290000D01*
X140107659Y-111290000D01*
X140194880Y-111420535D01*
X140389465Y-111615120D01*
X140618273Y-111768005D01*
X140695515Y-111800000D01*
X140618273Y-111831995D01*
X140389465Y-111984880D01*
X140194880Y-112179465D01*
X140107659Y-112310000D01*
X138342802Y-112310000D01*
X137618000Y-111585199D01*
X137618000Y-67286712D01*
X140582893Y-67286712D01*
X140690726Y-67561338D01*
X140997384Y-67712216D01*
X141327585Y-67800369D01*
X141668639Y-67822409D01*
X142007439Y-67777489D01*
X142330966Y-67667336D01*
X142529274Y-67561338D01*
X142637107Y-67286712D01*
X142530395Y-67180000D01*
X146371928Y-67180000D01*
X146384188Y-67304482D01*
X146420498Y-67424180D01*
X146479463Y-67534494D01*
X146558815Y-67631185D01*
X146655506Y-67710537D01*
X146765820Y-67769502D01*
X146885518Y-67805812D01*
X147010000Y-67818072D01*
X147824250Y-67815000D01*
X147983000Y-67656250D01*
X147983000Y-66207000D01*
X148237000Y-66207000D01*
X148237000Y-67656250D01*
X148395750Y-67815000D01*
X149210000Y-67818072D01*
X149334482Y-67805812D01*
X149454180Y-67769502D01*
X149564494Y-67710537D01*
X149661185Y-67631185D01*
X149740537Y-67534494D01*
X149799502Y-67424180D01*
X149835812Y-67304482D01*
X149848072Y-67180000D01*
X149845000Y-66365750D01*
X149686250Y-66207000D01*
X148237000Y-66207000D01*
X147983000Y-66207000D01*
X146533750Y-66207000D01*
X146375000Y-66365750D01*
X146371928Y-67180000D01*
X142530395Y-67180000D01*
X141610000Y-66259605D01*
X140582893Y-67286712D01*
X137618000Y-67286712D01*
X137618000Y-66138639D01*
X139867591Y-66138639D01*
X139912511Y-66477439D01*
X140022664Y-66800966D01*
X140128662Y-66999274D01*
X140403288Y-67107107D01*
X141430395Y-66080000D01*
X141789605Y-66080000D01*
X142816712Y-67107107D01*
X143091338Y-66999274D01*
X143242216Y-66692616D01*
X143330369Y-66362415D01*
X143352409Y-66021361D01*
X143307489Y-65682561D01*
X143197336Y-65359034D01*
X143091338Y-65160726D01*
X142816712Y-65052893D01*
X141789605Y-66080000D01*
X141430395Y-66080000D01*
X140403288Y-65052893D01*
X140128662Y-65160726D01*
X139977784Y-65467384D01*
X139889631Y-65797585D01*
X139867591Y-66138639D01*
X137618000Y-66138639D01*
X137618000Y-64873288D01*
X140582893Y-64873288D01*
X141610000Y-65900395D01*
X142530395Y-64980000D01*
X146371928Y-64980000D01*
X146375000Y-65794250D01*
X146533750Y-65953000D01*
X147983000Y-65953000D01*
X147983000Y-64503750D01*
X148237000Y-64503750D01*
X148237000Y-65953000D01*
X149686250Y-65953000D01*
X149845000Y-65794250D01*
X149848072Y-64980000D01*
X149835812Y-64855518D01*
X149799502Y-64735820D01*
X149740537Y-64625506D01*
X149661185Y-64528815D01*
X149564494Y-64449463D01*
X149454180Y-64390498D01*
X149334482Y-64354188D01*
X149210000Y-64341928D01*
X148395750Y-64345000D01*
X148237000Y-64503750D01*
X147983000Y-64503750D01*
X147824250Y-64345000D01*
X147010000Y-64341928D01*
X146885518Y-64354188D01*
X146765820Y-64390498D01*
X146655506Y-64449463D01*
X146558815Y-64528815D01*
X146479463Y-64625506D01*
X146420498Y-64735820D01*
X146384188Y-64855518D01*
X146371928Y-64980000D01*
X142530395Y-64980000D01*
X142637107Y-64873288D01*
X142529274Y-64598662D01*
X142222616Y-64447784D01*
X141892415Y-64359631D01*
X141551361Y-64337591D01*
X141212561Y-64382511D01*
X140889034Y-64492664D01*
X140690726Y-64598662D01*
X140582893Y-64873288D01*
X137618000Y-64873288D01*
X137618000Y-63700801D01*
X138978802Y-62340000D01*
X140046852Y-62340000D01*
X140072463Y-62401831D01*
X140262337Y-62685998D01*
X140504002Y-62927663D01*
X140788169Y-63117537D01*
X141103919Y-63248325D01*
X141439117Y-63315000D01*
X141780883Y-63315000D01*
X142116081Y-63248325D01*
X142431831Y-63117537D01*
X142715998Y-62927663D01*
X142957663Y-62685998D01*
X143147537Y-62401831D01*
X143173148Y-62340000D01*
X146546852Y-62340000D01*
X146572463Y-62401831D01*
X146762337Y-62685998D01*
X147004002Y-62927663D01*
X147288169Y-63117537D01*
X147603919Y-63248325D01*
X147939117Y-63315000D01*
X148280883Y-63315000D01*
X148616081Y-63248325D01*
X148931831Y-63117537D01*
X149215998Y-62927663D01*
X149457663Y-62685998D01*
X149647537Y-62401831D01*
X149778325Y-62086081D01*
X149845000Y-61750883D01*
X149845000Y-61409117D01*
X149778325Y-61073919D01*
X149647537Y-60758169D01*
X149457663Y-60474002D01*
X149215998Y-60232337D01*
X148931831Y-60042463D01*
X148616081Y-59911675D01*
X148280883Y-59845000D01*
X147939117Y-59845000D01*
X147603919Y-59911675D01*
X147288169Y-60042463D01*
X147004002Y-60232337D01*
X146762337Y-60474002D01*
X146572463Y-60758169D01*
X146546852Y-60820000D01*
X143173148Y-60820000D01*
X143147537Y-60758169D01*
X142957663Y-60474002D01*
X142715998Y-60232337D01*
X142431831Y-60042463D01*
X142116081Y-59911675D01*
X141780883Y-59845000D01*
X141439117Y-59845000D01*
X141103919Y-59911675D01*
X140788169Y-60042463D01*
X140504002Y-60232337D01*
X140262337Y-60474002D01*
X140072463Y-60758169D01*
X140046852Y-60820000D01*
X138701325Y-60820000D01*
X138664000Y-60816324D01*
X138626675Y-60820000D01*
X138626667Y-60820000D01*
X138515014Y-60830997D01*
X138371753Y-60874454D01*
X138239724Y-60945026D01*
X138123999Y-61039999D01*
X138100201Y-61068997D01*
X136347003Y-62822196D01*
X136317999Y-62845999D01*
X136262871Y-62913174D01*
X136223026Y-62961724D01*
X136152455Y-63093753D01*
X136152454Y-63093754D01*
X136108997Y-63237015D01*
X136098000Y-63348668D01*
X136098000Y-63348678D01*
X136094324Y-63386000D01*
X135887500Y-63386000D01*
X135887500Y-61688477D01*
X142018477Y-55557500D01*
X149289046Y-55557500D01*
X149304028Y-56276645D01*
X149306440Y-56298776D01*
X149313667Y-56322601D01*
X149325403Y-56344557D01*
X149341197Y-56363803D01*
X149360443Y-56379597D01*
X149382399Y-56391333D01*
X149406224Y-56398560D01*
X149431000Y-56401000D01*
X155781000Y-56401000D01*
X155808366Y-56398017D01*
X155832034Y-56390295D01*
X155853742Y-56378104D01*
X155872654Y-56361913D01*
X155888043Y-56342343D01*
X155899320Y-56320146D01*
X155906049Y-56296177D01*
X155907972Y-56271355D01*
X155893100Y-55557500D01*
X161923523Y-55557500D01*
X167800500Y-61434478D01*
X167800501Y-95055521D01*
X167163523Y-95692500D01*
X164636305Y-95692500D01*
X164564637Y-95585241D01*
X164364759Y-95385363D01*
X164129727Y-95228320D01*
X163868574Y-95120147D01*
X163591335Y-95065000D01*
X163308665Y-95065000D01*
X163031426Y-95120147D01*
X162770273Y-95228320D01*
X162535241Y-95385363D01*
X162335363Y-95585241D01*
X162178320Y-95820273D01*
X162070147Y-96081426D01*
X162015000Y-96358665D01*
X162015000Y-96641335D01*
X162070147Y-96918574D01*
X162178320Y-97179727D01*
X162335363Y-97414759D01*
X162535241Y-97614637D01*
X162642501Y-97686306D01*
X162642501Y-98513695D01*
X162535241Y-98585363D01*
X162335363Y-98785241D01*
X162178320Y-99020273D01*
X162070147Y-99281426D01*
X162015000Y-99558665D01*
X162015000Y-99841335D01*
X162070147Y-100118574D01*
X162178320Y-100379727D01*
X162335363Y-100614759D01*
X162535241Y-100814637D01*
X162642500Y-100886305D01*
X162642500Y-101713695D01*
X162535241Y-101785363D01*
X162335363Y-101985241D01*
X162178320Y-102220273D01*
X162070147Y-102481426D01*
X162015000Y-102758665D01*
X162015000Y-103041335D01*
X162070147Y-103318574D01*
X162178320Y-103579727D01*
X162335363Y-103814759D01*
X162535241Y-104014637D01*
X162770273Y-104171680D01*
X163031426Y-104279853D01*
X163308665Y-104335000D01*
X163591335Y-104335000D01*
X163868574Y-104279853D01*
X164129727Y-104171680D01*
X164364759Y-104014637D01*
X164564637Y-103814759D01*
X164721680Y-103579727D01*
X164829853Y-103318574D01*
X164885000Y-103041335D01*
X164885000Y-102758665D01*
X164829853Y-102481426D01*
X164721680Y-102220273D01*
X164564637Y-101985241D01*
X164364759Y-101785363D01*
X164257500Y-101713695D01*
X164257500Y-100886305D01*
X164364759Y-100814637D01*
X164564637Y-100614759D01*
X164721680Y-100379727D01*
X164829853Y-100118574D01*
X164885000Y-99841335D01*
X164885000Y-99558665D01*
X164829853Y-99281426D01*
X164721680Y-99020273D01*
X164564637Y-98785241D01*
X164364759Y-98585363D01*
X164257500Y-98513695D01*
X164257500Y-97686305D01*
X164364759Y-97614637D01*
X164564637Y-97414759D01*
X164636305Y-97307500D01*
X167458339Y-97307500D01*
X167498000Y-97311406D01*
X167537661Y-97307500D01*
X167537668Y-97307500D01*
X167656298Y-97295816D01*
X167808512Y-97249642D01*
X167948794Y-97174660D01*
X168071751Y-97073751D01*
X168097038Y-97042940D01*
X169150945Y-95989033D01*
X169181751Y-95963751D01*
X169207033Y-95932945D01*
X169207038Y-95932940D01*
X169282660Y-95840794D01*
X169357642Y-95700512D01*
X169403816Y-95548298D01*
X169404733Y-95538985D01*
X169415500Y-95429668D01*
X169415500Y-95429662D01*
X169419406Y-95390001D01*
X169415500Y-95350340D01*
X169415500Y-61139660D01*
X169419406Y-61099999D01*
X169415500Y-61060338D01*
X169415500Y-61060332D01*
X169403816Y-60941702D01*
X169357642Y-60789488D01*
X169282660Y-60649206D01*
X169207960Y-60558184D01*
X169207038Y-60557060D01*
X169207033Y-60557055D01*
X169181751Y-60526249D01*
X169150946Y-60500968D01*
X163396604Y-54746626D01*
X167427447Y-54746626D01*
X167427447Y-55253374D01*
X167526309Y-55750386D01*
X167720234Y-56218561D01*
X168001768Y-56639907D01*
X168360093Y-56998232D01*
X168781439Y-57279766D01*
X169249614Y-57473691D01*
X169746626Y-57572553D01*
X170253374Y-57572553D01*
X170750386Y-57473691D01*
X171218561Y-57279766D01*
X171639907Y-56998232D01*
X171998232Y-56639907D01*
X172279766Y-56218561D01*
X172473691Y-55750386D01*
X172572553Y-55253374D01*
X172572553Y-54746626D01*
X172473691Y-54249614D01*
X172279766Y-53781439D01*
X171998232Y-53360093D01*
X171639907Y-53001768D01*
X171218561Y-52720234D01*
X170750386Y-52526309D01*
X170253374Y-52427447D01*
X169746626Y-52427447D01*
X169249614Y-52526309D01*
X168781439Y-52720234D01*
X168360093Y-53001768D01*
X168001768Y-53360093D01*
X167720234Y-53781439D01*
X167526309Y-54249614D01*
X167427447Y-54746626D01*
X163396604Y-54746626D01*
X162857038Y-54207061D01*
X162831751Y-54176249D01*
X162708794Y-54075340D01*
X162568512Y-54000358D01*
X162416298Y-53954184D01*
X162297668Y-53942500D01*
X162297661Y-53942500D01*
X162258000Y-53938594D01*
X162218339Y-53942500D01*
X155859454Y-53942500D01*
X155791069Y-50660000D01*
X174340001Y-50660000D01*
X174340000Y-149340000D01*
X130660000Y-149340000D01*
X130660000Y-144746626D01*
X132427447Y-144746626D01*
X132427447Y-145253374D01*
X132526309Y-145750386D01*
X132720234Y-146218561D01*
X133001768Y-146639907D01*
X133360093Y-146998232D01*
X133781439Y-147279766D01*
X134249614Y-147473691D01*
X134746626Y-147572553D01*
X135253374Y-147572553D01*
X135750386Y-147473691D01*
X136218561Y-147279766D01*
X136639907Y-146998232D01*
X136998232Y-146639907D01*
X137279766Y-146218561D01*
X137473691Y-145750386D01*
X137572553Y-145253374D01*
X137572553Y-144746626D01*
X137473691Y-144249614D01*
X137374199Y-144009419D01*
X150565000Y-144009419D01*
X150565000Y-144390581D01*
X150639361Y-144764419D01*
X150785225Y-145116566D01*
X150996987Y-145433491D01*
X151266509Y-145703013D01*
X151583434Y-145914775D01*
X151935581Y-146060639D01*
X152309419Y-146135000D01*
X152690581Y-146135000D01*
X153064419Y-146060639D01*
X153416566Y-145914775D01*
X153733491Y-145703013D01*
X154003013Y-145433491D01*
X154214775Y-145116566D01*
X154360639Y-144764419D01*
X154364178Y-144746626D01*
X167427447Y-144746626D01*
X167427447Y-145253374D01*
X167526309Y-145750386D01*
X167720234Y-146218561D01*
X168001768Y-146639907D01*
X168360093Y-146998232D01*
X168781439Y-147279766D01*
X169249614Y-147473691D01*
X169746626Y-147572553D01*
X170253374Y-147572553D01*
X170750386Y-147473691D01*
X171218561Y-147279766D01*
X171639907Y-146998232D01*
X171998232Y-146639907D01*
X172279766Y-146218561D01*
X172473691Y-145750386D01*
X172572553Y-145253374D01*
X172572553Y-144746626D01*
X172473691Y-144249614D01*
X172279766Y-143781439D01*
X171998232Y-143360093D01*
X171639907Y-143001768D01*
X171218561Y-142720234D01*
X170750386Y-142526309D01*
X170253374Y-142427447D01*
X169746626Y-142427447D01*
X169249614Y-142526309D01*
X168781439Y-142720234D01*
X168360093Y-143001768D01*
X168001768Y-143360093D01*
X167720234Y-143781439D01*
X167526309Y-144249614D01*
X167427447Y-144746626D01*
X154364178Y-144746626D01*
X154435000Y-144390581D01*
X154435000Y-144009419D01*
X154360639Y-143635581D01*
X154214775Y-143283434D01*
X154003013Y-142966509D01*
X153733491Y-142696987D01*
X153416566Y-142485225D01*
X153064419Y-142339361D01*
X152690581Y-142265000D01*
X152309419Y-142265000D01*
X151935581Y-142339361D01*
X151583434Y-142485225D01*
X151266509Y-142696987D01*
X150996987Y-142966509D01*
X150785225Y-143283434D01*
X150639361Y-143635581D01*
X150565000Y-144009419D01*
X137374199Y-144009419D01*
X137279766Y-143781439D01*
X136998232Y-143360093D01*
X136639907Y-143001768D01*
X136218561Y-142720234D01*
X135750386Y-142526309D01*
X135253374Y-142427447D01*
X134746626Y-142427447D01*
X134249614Y-142526309D01*
X133781439Y-142720234D01*
X133360093Y-143001768D01*
X133001768Y-143360093D01*
X132720234Y-143781439D01*
X132526309Y-144249614D01*
X132427447Y-144746626D01*
X130660000Y-144746626D01*
X130660000Y-54746626D01*
X132427447Y-54746626D01*
X132427447Y-55253374D01*
X132526309Y-55750386D01*
X132720234Y-56218561D01*
X133001768Y-56639907D01*
X133360093Y-56998232D01*
X133781439Y-57279766D01*
X134249614Y-57473691D01*
X134746626Y-57572553D01*
X135253374Y-57572553D01*
X135750386Y-57473691D01*
X136218561Y-57279766D01*
X136639907Y-56998232D01*
X136998232Y-56639907D01*
X137279766Y-56218561D01*
X137473691Y-55750386D01*
X137572553Y-55253374D01*
X137572553Y-54746626D01*
X137473691Y-54249614D01*
X137279766Y-53781439D01*
X136998232Y-53360093D01*
X136639907Y-53001768D01*
X136218561Y-52720234D01*
X135750386Y-52526309D01*
X135253374Y-52427447D01*
X134746626Y-52427447D01*
X134249614Y-52526309D01*
X133781439Y-52720234D01*
X133360093Y-53001768D01*
X133001768Y-53360093D01*
X132720234Y-53781439D01*
X132526309Y-54249614D01*
X132427447Y-54746626D01*
X130660000Y-54746626D01*
X130660000Y-50660000D01*
X149187015Y-50660000D01*
X149255400Y-53942500D01*
G37*
%TD.AperFunction*%
D23*
X152316200Y-114971002D02*
X152339999Y-115000001D01*
X152455724Y-115094974D01*
X152587753Y-115165546D01*
X152731014Y-115209003D01*
X152842667Y-115220000D01*
X152842677Y-115220000D01*
X152880000Y-115223676D01*
X152917323Y-115220000D01*
X157534268Y-115220000D01*
X157542220Y-115239199D01*
X157722245Y-115508626D01*
X157943619Y-115730000D01*
X157722245Y-115951374D01*
X157542220Y-116220801D01*
X157418217Y-116520171D01*
X157355000Y-116837982D01*
X157355000Y-117162018D01*
X157418217Y-117479829D01*
X157542220Y-117779199D01*
X157722245Y-118048626D01*
X157951374Y-118277755D01*
X158220801Y-118457780D01*
X158520171Y-118581783D01*
X158837982Y-118645000D01*
X159162018Y-118645000D01*
X159479829Y-118581783D01*
X159779199Y-118457780D01*
X160048626Y-118277755D01*
X160183836Y-118142545D01*
X160577061Y-118142545D01*
X160674032Y-118407968D01*
X160965353Y-118549856D01*
X161278757Y-118632185D01*
X161602200Y-118651789D01*
X161923253Y-118607916D01*
X162229578Y-118502251D01*
X162405968Y-118407968D01*
X162502939Y-118142545D01*
X161540000Y-117179605D01*
X160577061Y-118142545D01*
X160183836Y-118142545D01*
X160277755Y-118048626D01*
X160347262Y-117944601D01*
X160397455Y-117962939D01*
X161360395Y-117000000D01*
X161719605Y-117000000D01*
X162682545Y-117962939D01*
X162947968Y-117865968D01*
X163089856Y-117574647D01*
X163172185Y-117261243D01*
X163191789Y-116937800D01*
X163147916Y-116616747D01*
X163042251Y-116310422D01*
X162947968Y-116134032D01*
X162682545Y-116037061D01*
X161719605Y-117000000D01*
X161360395Y-117000000D01*
X160397455Y-116037061D01*
X160347262Y-116055399D01*
X160277755Y-115951374D01*
X160056381Y-115730000D01*
X160270000Y-115516381D01*
X160491374Y-115737755D01*
X160595399Y-115807262D01*
X160577061Y-115857455D01*
X161540000Y-116820395D01*
X162502939Y-115857455D01*
X162484601Y-115807262D01*
X162588626Y-115737755D01*
X162817755Y-115508626D01*
X162997780Y-115239199D01*
X163005732Y-115220000D01*
X163233198Y-115220000D01*
X163530001Y-115516803D01*
X163530000Y-118189198D01*
X162959199Y-118760000D01*
X156476802Y-118760000D01*
X155355804Y-117639003D01*
X155332001Y-117609999D01*
X155216276Y-117515026D01*
X155084247Y-117444454D01*
X154940986Y-117400997D01*
X154829333Y-117390000D01*
X154829322Y-117390000D01*
X154792000Y-117386324D01*
X154754678Y-117390000D01*
X150072341Y-117390000D01*
X149985120Y-117259465D01*
X149790535Y-117064880D01*
X149561727Y-116911995D01*
X149484485Y-116880000D01*
X149561727Y-116848005D01*
X149790535Y-116695120D01*
X149985120Y-116500535D01*
X150138005Y-116271727D01*
X150243314Y-116017490D01*
X150297000Y-115747592D01*
X150297000Y-115472408D01*
X150243314Y-115202510D01*
X150138005Y-114948273D01*
X149985120Y-114719465D01*
X149790535Y-114524880D01*
X149561727Y-114371995D01*
X149484485Y-114340000D01*
X149561727Y-114308005D01*
X149790535Y-114155120D01*
X149985120Y-113960535D01*
X150072341Y-113830000D01*
X151175199Y-113830000D01*
X152316200Y-114971002D01*
%TA.AperFunction,Conductor*%
D24*
G36*
X152316200Y-114971002D02*
G01*
X152339999Y-115000001D01*
X152455724Y-115094974D01*
X152587753Y-115165546D01*
X152731014Y-115209003D01*
X152842667Y-115220000D01*
X152842677Y-115220000D01*
X152880000Y-115223676D01*
X152917323Y-115220000D01*
X157534268Y-115220000D01*
X157542220Y-115239199D01*
X157722245Y-115508626D01*
X157943619Y-115730000D01*
X157722245Y-115951374D01*
X157542220Y-116220801D01*
X157418217Y-116520171D01*
X157355000Y-116837982D01*
X157355000Y-117162018D01*
X157418217Y-117479829D01*
X157542220Y-117779199D01*
X157722245Y-118048626D01*
X157951374Y-118277755D01*
X158220801Y-118457780D01*
X158520171Y-118581783D01*
X158837982Y-118645000D01*
X159162018Y-118645000D01*
X159479829Y-118581783D01*
X159779199Y-118457780D01*
X160048626Y-118277755D01*
X160183836Y-118142545D01*
X160577061Y-118142545D01*
X160674032Y-118407968D01*
X160965353Y-118549856D01*
X161278757Y-118632185D01*
X161602200Y-118651789D01*
X161923253Y-118607916D01*
X162229578Y-118502251D01*
X162405968Y-118407968D01*
X162502939Y-118142545D01*
X161540000Y-117179605D01*
X160577061Y-118142545D01*
X160183836Y-118142545D01*
X160277755Y-118048626D01*
X160347262Y-117944601D01*
X160397455Y-117962939D01*
X161360395Y-117000000D01*
X161719605Y-117000000D01*
X162682545Y-117962939D01*
X162947968Y-117865968D01*
X163089856Y-117574647D01*
X163172185Y-117261243D01*
X163191789Y-116937800D01*
X163147916Y-116616747D01*
X163042251Y-116310422D01*
X162947968Y-116134032D01*
X162682545Y-116037061D01*
X161719605Y-117000000D01*
X161360395Y-117000000D01*
X160397455Y-116037061D01*
X160347262Y-116055399D01*
X160277755Y-115951374D01*
X160056381Y-115730000D01*
X160270000Y-115516381D01*
X160491374Y-115737755D01*
X160595399Y-115807262D01*
X160577061Y-115857455D01*
X161540000Y-116820395D01*
X162502939Y-115857455D01*
X162484601Y-115807262D01*
X162588626Y-115737755D01*
X162817755Y-115508626D01*
X162997780Y-115239199D01*
X163005732Y-115220000D01*
X163233198Y-115220000D01*
X163530001Y-115516803D01*
X163530000Y-118189198D01*
X162959199Y-118760000D01*
X156476802Y-118760000D01*
X155355804Y-117639003D01*
X155332001Y-117609999D01*
X155216276Y-117515026D01*
X155084247Y-117444454D01*
X154940986Y-117400997D01*
X154829333Y-117390000D01*
X154829322Y-117390000D01*
X154792000Y-117386324D01*
X154754678Y-117390000D01*
X150072341Y-117390000D01*
X149985120Y-117259465D01*
X149790535Y-117064880D01*
X149561727Y-116911995D01*
X149484485Y-116880000D01*
X149561727Y-116848005D01*
X149790535Y-116695120D01*
X149985120Y-116500535D01*
X150138005Y-116271727D01*
X150243314Y-116017490D01*
X150297000Y-115747592D01*
X150297000Y-115472408D01*
X150243314Y-115202510D01*
X150138005Y-114948273D01*
X149985120Y-114719465D01*
X149790535Y-114524880D01*
X149561727Y-114371995D01*
X149484485Y-114340000D01*
X149561727Y-114308005D01*
X149790535Y-114155120D01*
X149985120Y-113960535D01*
X150072341Y-113830000D01*
X151175199Y-113830000D01*
X152316200Y-114971002D01*
G37*
%TD.AperFunction*%
%TD*%
M02*
