M48
; DRILL file {KiCad (5.1.10)-1} date 03/27/22 19:47:59
; FORMAT={-:-/ absolute / inch / decimal}
; #@! TF.CreationDate,2022-03-27T19:47:59-06:00
; #@! TF.GenerationSoftware,Kicad,Pcbnew,(5.1.10)-1
; #@! TF.FileFunction,Plated,1,2,PTH
FMAT,2
INCH
T1C0.0217
T2C0.0300
T3C0.0315
T4C0.0354
T5C0.0394
T6C0.0402
T7C0.0472
%
G90
G05
T1
X5.8381Y-3.9264
X5.8381Y-3.9764
X5.8381Y-4.0264
T2
X5.5622Y-4.3516
X5.5622Y-4.4516
X5.5622Y-4.5516
X5.5622Y-4.6516
X5.8622Y-4.3516
X5.8622Y-4.4516
X5.8622Y-4.5516
X5.8622Y-4.6516
T3
X6.135Y-3.7992
X6.135Y-3.9252
X6.135Y-4.0512
X6.1358Y-4.1772
X6.435Y-3.7992
X6.435Y-3.9252
X6.435Y-4.0512
X6.4358Y-4.1772
T4
X5.9531Y-2.1555
X6.0531Y-2.1555
T5
X5.5039Y-5.315
X6.2126Y-5.315
T6
X6.2598Y-4.4063
X6.2598Y-4.5063
X6.2598Y-4.6063
X6.3598Y-4.4063
X6.3598Y-4.5063
X6.3598Y-4.6063
T7
X5.5752Y-2.4244
X5.5752Y-2.6016
X5.5752Y-2.9244
X5.5752Y-3.1016
X5.8311Y-2.4244
X5.8311Y-2.6016
X5.8311Y-2.9244
X5.8311Y-3.1016
X6.1752Y-2.4244
X6.1752Y-2.6016
X6.1752Y-2.9244
X6.1752Y-3.1016
X6.1752Y-3.4244
X6.1752Y-3.6016
X6.4311Y-2.4244
X6.4311Y-2.6016
X6.4311Y-2.9244
X6.4311Y-3.1016
X6.4311Y-3.4244
X6.4311Y-3.6016
T0
M30
