%TF.GenerationSoftware,KiCad,Pcbnew,(5.1.10)-1*%
%TF.CreationDate,2022-03-27T19:47:09-06:00*%
%TF.ProjectId,IR_Remote,49525f52-656d-46f7-9465-2e6b69636164,V01*%
%TF.SameCoordinates,Original*%
%TF.FileFunction,Legend,Top*%
%TF.FilePolarity,Positive*%
%FSLAX46Y46*%
G04 Gerber Fmt 4.6, Leading zero omitted, Abs format (unit mm)*
G04 Created by KiCad (PCBNEW (5.1.10)-1) date 2022-03-27 19:47:09*
%MOMM*%
%LPD*%
G01*
G04 APERTURE LIST*
%ADD10C,0.150000*%
%ADD11C,0.120000*%
%ADD12C,0.200000*%
%ADD13C,0.100000*%
%ADD14C,0.203200*%
G04 APERTURE END LIST*
D10*
X139565142Y-86952380D02*
X139565142Y-85952380D01*
X140612761Y-86952380D02*
X140279428Y-86476190D01*
X140041333Y-86952380D02*
X140041333Y-85952380D01*
X140422285Y-85952380D01*
X140517523Y-86000000D01*
X140565142Y-86047619D01*
X140612761Y-86142857D01*
X140612761Y-86285714D01*
X140565142Y-86380952D01*
X140517523Y-86428571D01*
X140422285Y-86476190D01*
X140041333Y-86476190D01*
X142374666Y-86952380D02*
X142041333Y-86476190D01*
X141803238Y-86952380D02*
X141803238Y-85952380D01*
X142184190Y-85952380D01*
X142279428Y-86000000D01*
X142327047Y-86047619D01*
X142374666Y-86142857D01*
X142374666Y-86285714D01*
X142327047Y-86380952D01*
X142279428Y-86428571D01*
X142184190Y-86476190D01*
X141803238Y-86476190D01*
X143184190Y-86904761D02*
X143088952Y-86952380D01*
X142898476Y-86952380D01*
X142803238Y-86904761D01*
X142755619Y-86809523D01*
X142755619Y-86428571D01*
X142803238Y-86333333D01*
X142898476Y-86285714D01*
X143088952Y-86285714D01*
X143184190Y-86333333D01*
X143231809Y-86428571D01*
X143231809Y-86523809D01*
X142755619Y-86619047D01*
X143660380Y-86952380D02*
X143660380Y-86285714D01*
X143660380Y-86380952D02*
X143708000Y-86333333D01*
X143803238Y-86285714D01*
X143946095Y-86285714D01*
X144041333Y-86333333D01*
X144088952Y-86428571D01*
X144088952Y-86952380D01*
X144088952Y-86428571D02*
X144136571Y-86333333D01*
X144231809Y-86285714D01*
X144374666Y-86285714D01*
X144469904Y-86333333D01*
X144517523Y-86428571D01*
X144517523Y-86952380D01*
X145136571Y-86952380D02*
X145041333Y-86904761D01*
X144993714Y-86857142D01*
X144946095Y-86761904D01*
X144946095Y-86476190D01*
X144993714Y-86380952D01*
X145041333Y-86333333D01*
X145136571Y-86285714D01*
X145279428Y-86285714D01*
X145374666Y-86333333D01*
X145422285Y-86380952D01*
X145469904Y-86476190D01*
X145469904Y-86761904D01*
X145422285Y-86857142D01*
X145374666Y-86904761D01*
X145279428Y-86952380D01*
X145136571Y-86952380D01*
X145755619Y-86285714D02*
X146136571Y-86285714D01*
X145898476Y-85952380D02*
X145898476Y-86809523D01*
X145946095Y-86904761D01*
X146041333Y-86952380D01*
X146136571Y-86952380D01*
X146850857Y-86904761D02*
X146755619Y-86952380D01*
X146565142Y-86952380D01*
X146469904Y-86904761D01*
X146422285Y-86809523D01*
X146422285Y-86428571D01*
X146469904Y-86333333D01*
X146565142Y-86285714D01*
X146755619Y-86285714D01*
X146850857Y-86333333D01*
X146898476Y-86428571D01*
X146898476Y-86523809D01*
X146422285Y-86619047D01*
X139612205Y-84888666D02*
X140088395Y-84888666D01*
X139481252Y-85174380D02*
X139939586Y-84174380D01*
X140147919Y-85174380D01*
X140993157Y-84507714D02*
X140909824Y-85174380D01*
X140564586Y-84507714D02*
X140499110Y-85031523D01*
X140534824Y-85126761D01*
X140624110Y-85174380D01*
X140766967Y-85174380D01*
X140868157Y-85126761D01*
X140921729Y-85079142D01*
X141344348Y-85126761D02*
X141433633Y-85174380D01*
X141624110Y-85174380D01*
X141725300Y-85126761D01*
X141784824Y-85031523D01*
X141790776Y-84983904D01*
X141755062Y-84888666D01*
X141665776Y-84841047D01*
X141522919Y-84841047D01*
X141433633Y-84793428D01*
X141397919Y-84698190D01*
X141403872Y-84650571D01*
X141463395Y-84555333D01*
X141564586Y-84507714D01*
X141707443Y-84507714D01*
X141796729Y-84555333D01*
X142136014Y-84507714D02*
X142516967Y-84507714D01*
X142320538Y-84174380D02*
X142213395Y-85031523D01*
X142249110Y-85126761D01*
X142338395Y-85174380D01*
X142433633Y-85174380D01*
X142766967Y-85174380D02*
X142850300Y-84507714D01*
X142891967Y-84174380D02*
X142838395Y-84222000D01*
X142880062Y-84269619D01*
X142933633Y-84222000D01*
X142891967Y-84174380D01*
X142880062Y-84269619D01*
X143326491Y-84507714D02*
X143243157Y-85174380D01*
X143314586Y-84602952D02*
X143368157Y-84555333D01*
X143469348Y-84507714D01*
X143612205Y-84507714D01*
X143701491Y-84555333D01*
X143737205Y-84650571D01*
X143671729Y-85174380D01*
X144909824Y-85174380D02*
X145034824Y-84174380D01*
X145415776Y-84174380D01*
X145505062Y-84222000D01*
X145546729Y-84269619D01*
X145582443Y-84364857D01*
X145564586Y-84507714D01*
X145505062Y-84602952D01*
X145451491Y-84650571D01*
X145350300Y-84698190D01*
X144969348Y-84698190D01*
X146421729Y-84507714D02*
X146338395Y-85174380D01*
X145993157Y-84507714D02*
X145927681Y-85031523D01*
X145963395Y-85126761D01*
X146052681Y-85174380D01*
X146195538Y-85174380D01*
X146296729Y-85126761D01*
X146350300Y-85079142D01*
X146755062Y-84507714D02*
X147136014Y-84507714D01*
X146939586Y-84174380D02*
X146832443Y-85031523D01*
X146868157Y-85126761D01*
X146957443Y-85174380D01*
X147052681Y-85174380D01*
X147528872Y-85174380D02*
X147439586Y-85126761D01*
X147403872Y-85031523D01*
X147511014Y-84174380D01*
X148338395Y-85174380D02*
X148403872Y-84650571D01*
X148368157Y-84555333D01*
X148278872Y-84507714D01*
X148088395Y-84507714D01*
X147987205Y-84555333D01*
X148344348Y-85126761D02*
X148243157Y-85174380D01*
X148005062Y-85174380D01*
X147915776Y-85126761D01*
X147880062Y-85031523D01*
X147891967Y-84936285D01*
X147951491Y-84841047D01*
X148052681Y-84793428D01*
X148290776Y-84793428D01*
X148391967Y-84745809D01*
X148897919Y-84507714D02*
X148814586Y-85174380D01*
X148886014Y-84602952D02*
X148939586Y-84555333D01*
X149040776Y-84507714D01*
X149183633Y-84507714D01*
X149272919Y-84555333D01*
X149308633Y-84650571D01*
X149243157Y-85174380D01*
X150147919Y-85174380D02*
X150272919Y-84174380D01*
X150153872Y-85126761D02*
X150052681Y-85174380D01*
X149862205Y-85174380D01*
X149772919Y-85126761D01*
X149731252Y-85079142D01*
X149695538Y-84983904D01*
X149731252Y-84698190D01*
X149790776Y-84602952D01*
X149844348Y-84555333D01*
X149945538Y-84507714D01*
X150136014Y-84507714D01*
X150225300Y-84555333D01*
X139795428Y-87476380D02*
X139890666Y-87476380D01*
X139985904Y-87524000D01*
X140033523Y-87571619D01*
X140081142Y-87666857D01*
X140128761Y-87857333D01*
X140128761Y-88095428D01*
X140081142Y-88285904D01*
X140033523Y-88381142D01*
X139985904Y-88428761D01*
X139890666Y-88476380D01*
X139795428Y-88476380D01*
X139700190Y-88428761D01*
X139652571Y-88381142D01*
X139604952Y-88285904D01*
X139557333Y-88095428D01*
X139557333Y-87857333D01*
X139604952Y-87666857D01*
X139652571Y-87571619D01*
X139700190Y-87524000D01*
X139795428Y-87476380D01*
X140462095Y-87476380D02*
X141081142Y-87476380D01*
X140747809Y-87857333D01*
X140890666Y-87857333D01*
X140985904Y-87904952D01*
X141033523Y-87952571D01*
X141081142Y-88047809D01*
X141081142Y-88285904D01*
X141033523Y-88381142D01*
X140985904Y-88428761D01*
X140890666Y-88476380D01*
X140604952Y-88476380D01*
X140509714Y-88428761D01*
X140462095Y-88381142D01*
X142224000Y-87428761D02*
X141366857Y-88714476D01*
X142509714Y-87571619D02*
X142557333Y-87524000D01*
X142652571Y-87476380D01*
X142890666Y-87476380D01*
X142985904Y-87524000D01*
X143033523Y-87571619D01*
X143081142Y-87666857D01*
X143081142Y-87762095D01*
X143033523Y-87904952D01*
X142462095Y-88476380D01*
X143081142Y-88476380D01*
X143414476Y-87476380D02*
X144081142Y-87476380D01*
X143652571Y-88476380D01*
X145176380Y-87428761D02*
X144319238Y-88714476D01*
X145462095Y-87571619D02*
X145509714Y-87524000D01*
X145604952Y-87476380D01*
X145843047Y-87476380D01*
X145938285Y-87524000D01*
X145985904Y-87571619D01*
X146033523Y-87666857D01*
X146033523Y-87762095D01*
X145985904Y-87904952D01*
X145414476Y-88476380D01*
X146033523Y-88476380D01*
X146652571Y-87476380D02*
X146747809Y-87476380D01*
X146843047Y-87524000D01*
X146890666Y-87571619D01*
X146938285Y-87666857D01*
X146985904Y-87857333D01*
X146985904Y-88095428D01*
X146938285Y-88285904D01*
X146890666Y-88381142D01*
X146843047Y-88428761D01*
X146747809Y-88476380D01*
X146652571Y-88476380D01*
X146557333Y-88428761D01*
X146509714Y-88381142D01*
X146462095Y-88285904D01*
X146414476Y-88095428D01*
X146414476Y-87857333D01*
X146462095Y-87666857D01*
X146509714Y-87571619D01*
X146557333Y-87524000D01*
X146652571Y-87476380D01*
X147366857Y-87571619D02*
X147414476Y-87524000D01*
X147509714Y-87476380D01*
X147747809Y-87476380D01*
X147843047Y-87524000D01*
X147890666Y-87571619D01*
X147938285Y-87666857D01*
X147938285Y-87762095D01*
X147890666Y-87904952D01*
X147319238Y-88476380D01*
X147938285Y-88476380D01*
X148319238Y-87571619D02*
X148366857Y-87524000D01*
X148462095Y-87476380D01*
X148700190Y-87476380D01*
X148795428Y-87524000D01*
X148843047Y-87571619D01*
X148890666Y-87666857D01*
X148890666Y-87762095D01*
X148843047Y-87904952D01*
X148271619Y-88476380D01*
X148890666Y-88476380D01*
X140128571Y-90254380D02*
X139795238Y-89778190D01*
X139557142Y-90254380D02*
X139557142Y-89254380D01*
X139938095Y-89254380D01*
X140033333Y-89302000D01*
X140080952Y-89349619D01*
X140128571Y-89444857D01*
X140128571Y-89587714D01*
X140080952Y-89682952D01*
X140033333Y-89730571D01*
X139938095Y-89778190D01*
X139557142Y-89778190D01*
X140557142Y-89730571D02*
X140890476Y-89730571D01*
X141033333Y-90254380D02*
X140557142Y-90254380D01*
X140557142Y-89254380D01*
X141033333Y-89254380D01*
X141319047Y-89254380D02*
X141652380Y-90254380D01*
X141985714Y-89254380D01*
X142319047Y-90159142D02*
X142366666Y-90206761D01*
X142319047Y-90254380D01*
X142271428Y-90206761D01*
X142319047Y-90159142D01*
X142319047Y-90254380D01*
X142319047Y-89635333D02*
X142366666Y-89682952D01*
X142319047Y-89730571D01*
X142271428Y-89682952D01*
X142319047Y-89635333D01*
X142319047Y-89730571D01*
X143414285Y-89254380D02*
X143747619Y-90254380D01*
X144080952Y-89254380D01*
X144604761Y-89254380D02*
X144700000Y-89254380D01*
X144795238Y-89302000D01*
X144842857Y-89349619D01*
X144890476Y-89444857D01*
X144938095Y-89635333D01*
X144938095Y-89873428D01*
X144890476Y-90063904D01*
X144842857Y-90159142D01*
X144795238Y-90206761D01*
X144700000Y-90254380D01*
X144604761Y-90254380D01*
X144509523Y-90206761D01*
X144461904Y-90159142D01*
X144414285Y-90063904D01*
X144366666Y-89873428D01*
X144366666Y-89635333D01*
X144414285Y-89444857D01*
X144461904Y-89349619D01*
X144509523Y-89302000D01*
X144604761Y-89254380D01*
X145890476Y-90254380D02*
X145319047Y-90254380D01*
X145604761Y-90254380D02*
X145604761Y-89254380D01*
X145509523Y-89397238D01*
X145414285Y-89492476D01*
X145319047Y-89540095D01*
X150613714Y-102430571D02*
X150947047Y-102430571D01*
X151089904Y-102954380D02*
X150613714Y-102954380D01*
X150613714Y-101954380D01*
X151089904Y-101954380D01*
X150899428Y-100906571D02*
X151042285Y-100954190D01*
X151089904Y-101001809D01*
X151137523Y-101097047D01*
X151137523Y-101239904D01*
X151089904Y-101335142D01*
X151042285Y-101382761D01*
X150947047Y-101430380D01*
X150566095Y-101430380D01*
X150566095Y-100430380D01*
X150899428Y-100430380D01*
X150994666Y-100478000D01*
X151042285Y-100525619D01*
X151089904Y-100620857D01*
X151089904Y-100716095D01*
X151042285Y-100811333D01*
X150994666Y-100858952D01*
X150899428Y-100906571D01*
X150566095Y-100906571D01*
X151137523Y-99811142D02*
X151089904Y-99858761D01*
X150947047Y-99906380D01*
X150851809Y-99906380D01*
X150708952Y-99858761D01*
X150613714Y-99763523D01*
X150566095Y-99668285D01*
X150518476Y-99477809D01*
X150518476Y-99334952D01*
X150566095Y-99144476D01*
X150613714Y-99049238D01*
X150708952Y-98954000D01*
X150851809Y-98906380D01*
X150947047Y-98906380D01*
X151089904Y-98954000D01*
X151137523Y-99001619D01*
X150701047Y-57107428D02*
X151462952Y-57107428D01*
X151082000Y-57488380D02*
X151082000Y-56726476D01*
D11*
%TO.C,R3*%
X156370000Y-98330000D02*
X156370000Y-98660000D01*
X162910000Y-98330000D02*
X156370000Y-98330000D01*
X162910000Y-98660000D02*
X162910000Y-98330000D01*
X156370000Y-101070000D02*
X156370000Y-100740000D01*
X162910000Y-101070000D02*
X156370000Y-101070000D01*
X162910000Y-100740000D02*
X162910000Y-101070000D01*
D12*
%TO.C,BT1*%
X138050000Y-132015000D02*
X141400000Y-132015000D01*
X138050000Y-137985000D02*
X141400000Y-137985000D01*
X138050000Y-132015000D02*
X138050000Y-137985000D01*
X163950000Y-135000000D02*
G75*
G03*
X163950000Y-135000000I-11450000J0D01*
G01*
D11*
%TO.C,D1*%
X151210000Y-53670000D02*
X151210000Y-53670000D01*
X151210000Y-53540000D02*
X151210000Y-53670000D01*
X151210000Y-53540000D02*
X151210000Y-53540000D01*
X151210000Y-53670000D02*
X151210000Y-53540000D01*
X153750000Y-53670000D02*
X153750000Y-53670000D01*
X153750000Y-53540000D02*
X153750000Y-53670000D01*
X153750000Y-53540000D02*
X153750000Y-53540000D01*
X153750000Y-53670000D02*
X153750000Y-53540000D01*
X149920000Y-53540000D02*
X149520000Y-53540000D01*
X149920000Y-52420000D02*
X149920000Y-53540000D01*
X149520000Y-52420000D02*
X149920000Y-52420000D01*
X149520000Y-53540000D02*
X149520000Y-52420000D01*
X155040000Y-53540000D02*
X149920000Y-53540000D01*
X149920000Y-53540000D02*
X149920000Y-47380000D01*
X155040000Y-53540000D02*
X155040000Y-47380000D01*
X149920000Y-47380000D02*
G75*
G02*
X155040000Y-47380000I2560000J0D01*
G01*
D13*
%TO.C,PB1*%
X162150000Y-67121400D02*
X157482600Y-67121400D01*
X163146800Y-64886200D02*
X163146800Y-62778000D01*
X157040800Y-64875200D02*
X157040800Y-62780000D01*
X157457200Y-60517400D02*
X162750000Y-60527200D01*
X163146800Y-64879600D02*
X163396800Y-64879600D01*
%TO.C,PB2*%
X147906800Y-64879600D02*
X148156800Y-64879600D01*
X142217200Y-60517400D02*
X147510000Y-60527200D01*
X141800800Y-64875200D02*
X141800800Y-62780000D01*
X147906800Y-64886200D02*
X147906800Y-62778000D01*
X146910000Y-67121400D02*
X142242600Y-67121400D01*
%TO.C,PB3*%
X146910000Y-79821400D02*
X142242600Y-79821400D01*
X147906800Y-77586200D02*
X147906800Y-75478000D01*
X141800800Y-77575200D02*
X141800800Y-75480000D01*
X142217200Y-73217400D02*
X147510000Y-73227200D01*
X147906800Y-77579600D02*
X148156800Y-77579600D01*
%TO.C,PB4*%
X163146800Y-77579600D02*
X163396800Y-77579600D01*
X157457200Y-73217400D02*
X162750000Y-73227200D01*
X157040800Y-77575200D02*
X157040800Y-75480000D01*
X163146800Y-77586200D02*
X163146800Y-75478000D01*
X162150000Y-79821400D02*
X157482600Y-79821400D01*
%TO.C,PB5*%
X162150000Y-92521400D02*
X157482600Y-92521400D01*
X163146800Y-90286200D02*
X163146800Y-88178000D01*
X157040800Y-90275200D02*
X157040800Y-88180000D01*
X157457200Y-85917400D02*
X162750000Y-85927200D01*
X163146800Y-90279600D02*
X163396800Y-90279600D01*
%TO.C,Q1*%
X149888000Y-103350000D02*
X149588000Y-103500000D01*
X149888000Y-103050000D02*
X149888000Y-103350000D01*
X149888000Y-98650000D02*
X149888000Y-98950000D01*
X149888000Y-98650000D02*
X149588000Y-98500000D01*
D10*
X146738000Y-99050000D02*
G75*
G03*
X146688000Y-102900000I1900000J-1950000D01*
G01*
D11*
%TO.C,R1*%
X156390000Y-105060000D02*
X156390000Y-104730000D01*
X156390000Y-104730000D02*
X162930000Y-104730000D01*
X162930000Y-104730000D02*
X162930000Y-105060000D01*
X156390000Y-107140000D02*
X156390000Y-107470000D01*
X156390000Y-107470000D02*
X162930000Y-107470000D01*
X162930000Y-107470000D02*
X162930000Y-107140000D01*
%TO.C,R2*%
X162910000Y-103940000D02*
X162910000Y-104270000D01*
X162910000Y-104270000D02*
X156370000Y-104270000D01*
X156370000Y-104270000D02*
X156370000Y-103940000D01*
X162910000Y-101860000D02*
X162910000Y-101530000D01*
X162910000Y-101530000D02*
X156370000Y-101530000D01*
X156370000Y-101530000D02*
X156370000Y-101860000D01*
%TO.C,R4*%
X156370000Y-95130000D02*
X156370000Y-95460000D01*
X162910000Y-95130000D02*
X156370000Y-95130000D01*
X162910000Y-95460000D02*
X162910000Y-95130000D01*
X156370000Y-97870000D02*
X156370000Y-97540000D01*
X162910000Y-97870000D02*
X156370000Y-97870000D01*
X162910000Y-97540000D02*
X162910000Y-97870000D01*
D14*
%TO.C,U1*%
X141280000Y-109006000D02*
G75*
G03*
X141280000Y-109006000I-254000J0D01*
G01*
X141534000Y-119420000D02*
X148646000Y-119420000D01*
X141534000Y-109260000D02*
X148646000Y-109260000D01*
%TO.C,R3*%
D10*
X165823333Y-100152380D02*
X165490000Y-99676190D01*
X165251904Y-100152380D02*
X165251904Y-99152380D01*
X165632857Y-99152380D01*
X165728095Y-99200000D01*
X165775714Y-99247619D01*
X165823333Y-99342857D01*
X165823333Y-99485714D01*
X165775714Y-99580952D01*
X165728095Y-99628571D01*
X165632857Y-99676190D01*
X165251904Y-99676190D01*
X166156666Y-99152380D02*
X166775714Y-99152380D01*
X166442380Y-99533333D01*
X166585238Y-99533333D01*
X166680476Y-99580952D01*
X166728095Y-99628571D01*
X166775714Y-99723809D01*
X166775714Y-99961904D01*
X166728095Y-100057142D01*
X166680476Y-100104761D01*
X166585238Y-100152380D01*
X166299523Y-100152380D01*
X166204285Y-100104761D01*
X166156666Y-100057142D01*
%TO.C,BT1*%
X151714285Y-122482571D02*
X151857142Y-122530190D01*
X151904761Y-122577809D01*
X151952380Y-122673047D01*
X151952380Y-122815904D01*
X151904761Y-122911142D01*
X151857142Y-122958761D01*
X151761904Y-123006380D01*
X151380952Y-123006380D01*
X151380952Y-122006380D01*
X151714285Y-122006380D01*
X151809523Y-122054000D01*
X151857142Y-122101619D01*
X151904761Y-122196857D01*
X151904761Y-122292095D01*
X151857142Y-122387333D01*
X151809523Y-122434952D01*
X151714285Y-122482571D01*
X151380952Y-122482571D01*
X152238095Y-122006380D02*
X152809523Y-122006380D01*
X152523809Y-123006380D02*
X152523809Y-122006380D01*
X153666666Y-123006380D02*
X153095238Y-123006380D01*
X153380952Y-123006380D02*
X153380952Y-122006380D01*
X153285714Y-122149238D01*
X153190476Y-122244476D01*
X153095238Y-122292095D01*
X139419047Y-139271428D02*
X140180952Y-139271428D01*
X139800000Y-139652380D02*
X139800000Y-138890476D01*
X165319047Y-135071428D02*
X166080952Y-135071428D01*
%TO.C,D1*%
X147295904Y-53424380D02*
X147295904Y-52424380D01*
X147534000Y-52424380D01*
X147676857Y-52472000D01*
X147772095Y-52567238D01*
X147819714Y-52662476D01*
X147867333Y-52852952D01*
X147867333Y-52995809D01*
X147819714Y-53186285D01*
X147772095Y-53281523D01*
X147676857Y-53376761D01*
X147534000Y-53424380D01*
X147295904Y-53424380D01*
X148819714Y-53424380D02*
X148248285Y-53424380D01*
X148534000Y-53424380D02*
X148534000Y-52424380D01*
X148438761Y-52567238D01*
X148343523Y-52662476D01*
X148248285Y-52710095D01*
%TO.C,J1*%
X159936666Y-108832380D02*
X159936666Y-109546666D01*
X159889047Y-109689523D01*
X159793809Y-109784761D01*
X159650952Y-109832380D01*
X159555714Y-109832380D01*
X160936666Y-109832380D02*
X160365238Y-109832380D01*
X160650952Y-109832380D02*
X160650952Y-108832380D01*
X160555714Y-108975238D01*
X160460476Y-109070476D01*
X160365238Y-109118095D01*
X163036666Y-111412380D02*
X163370000Y-112412380D01*
X163703333Y-111412380D01*
X164608095Y-112317142D02*
X164560476Y-112364761D01*
X164417619Y-112412380D01*
X164322380Y-112412380D01*
X164179523Y-112364761D01*
X164084285Y-112269523D01*
X164036666Y-112174285D01*
X163989047Y-111983809D01*
X163989047Y-111840952D01*
X164036666Y-111650476D01*
X164084285Y-111555238D01*
X164179523Y-111460000D01*
X164322380Y-111412380D01*
X164417619Y-111412380D01*
X164560476Y-111460000D01*
X164608095Y-111507619D01*
X165608095Y-112317142D02*
X165560476Y-112364761D01*
X165417619Y-112412380D01*
X165322380Y-112412380D01*
X165179523Y-112364761D01*
X165084285Y-112269523D01*
X165036666Y-112174285D01*
X164989047Y-111983809D01*
X164989047Y-111840952D01*
X165036666Y-111650476D01*
X165084285Y-111555238D01*
X165179523Y-111460000D01*
X165322380Y-111412380D01*
X165417619Y-111412380D01*
X165560476Y-111460000D01*
X165608095Y-111507619D01*
X154198571Y-112412380D02*
X154198571Y-111412380D01*
X154531904Y-112126666D01*
X154865238Y-111412380D01*
X154865238Y-112412380D01*
X155341428Y-112412380D02*
X155341428Y-111412380D01*
X155770000Y-112364761D02*
X155912857Y-112412380D01*
X156150952Y-112412380D01*
X156246190Y-112364761D01*
X156293809Y-112317142D01*
X156341428Y-112221904D01*
X156341428Y-112126666D01*
X156293809Y-112031428D01*
X156246190Y-111983809D01*
X156150952Y-111936190D01*
X155960476Y-111888571D01*
X155865238Y-111840952D01*
X155817619Y-111793333D01*
X155770000Y-111698095D01*
X155770000Y-111602857D01*
X155817619Y-111507619D01*
X155865238Y-111460000D01*
X155960476Y-111412380D01*
X156198571Y-111412380D01*
X156341428Y-111460000D01*
X156960476Y-111412380D02*
X157150952Y-111412380D01*
X157246190Y-111460000D01*
X157341428Y-111555238D01*
X157389047Y-111745714D01*
X157389047Y-112079047D01*
X157341428Y-112269523D01*
X157246190Y-112364761D01*
X157150952Y-112412380D01*
X156960476Y-112412380D01*
X156865238Y-112364761D01*
X156770000Y-112269523D01*
X156722380Y-112079047D01*
X156722380Y-111745714D01*
X156770000Y-111555238D01*
X156865238Y-111460000D01*
X156960476Y-111412380D01*
X163198571Y-114912380D02*
X163198571Y-113912380D01*
X163531904Y-114626666D01*
X163865238Y-113912380D01*
X163865238Y-114912380D01*
X164531904Y-113912380D02*
X164722380Y-113912380D01*
X164817619Y-113960000D01*
X164912857Y-114055238D01*
X164960476Y-114245714D01*
X164960476Y-114579047D01*
X164912857Y-114769523D01*
X164817619Y-114864761D01*
X164722380Y-114912380D01*
X164531904Y-114912380D01*
X164436666Y-114864761D01*
X164341428Y-114769523D01*
X164293809Y-114579047D01*
X164293809Y-114245714D01*
X164341428Y-114055238D01*
X164436666Y-113960000D01*
X164531904Y-113912380D01*
X165341428Y-114864761D02*
X165484285Y-114912380D01*
X165722380Y-114912380D01*
X165817619Y-114864761D01*
X165865238Y-114817142D01*
X165912857Y-114721904D01*
X165912857Y-114626666D01*
X165865238Y-114531428D01*
X165817619Y-114483809D01*
X165722380Y-114436190D01*
X165531904Y-114388571D01*
X165436666Y-114340952D01*
X165389047Y-114293333D01*
X165341428Y-114198095D01*
X165341428Y-114102857D01*
X165389047Y-114007619D01*
X165436666Y-113960000D01*
X165531904Y-113912380D01*
X165770000Y-113912380D01*
X165912857Y-113960000D01*
X166341428Y-114912380D02*
X166341428Y-113912380D01*
X154784285Y-114864761D02*
X154927142Y-114912380D01*
X155165238Y-114912380D01*
X155260476Y-114864761D01*
X155308095Y-114817142D01*
X155355714Y-114721904D01*
X155355714Y-114626666D01*
X155308095Y-114531428D01*
X155260476Y-114483809D01*
X155165238Y-114436190D01*
X154974761Y-114388571D01*
X154879523Y-114340952D01*
X154831904Y-114293333D01*
X154784285Y-114198095D01*
X154784285Y-114102857D01*
X154831904Y-114007619D01*
X154879523Y-113960000D01*
X154974761Y-113912380D01*
X155212857Y-113912380D01*
X155355714Y-113960000D01*
X156355714Y-114817142D02*
X156308095Y-114864761D01*
X156165238Y-114912380D01*
X156070000Y-114912380D01*
X155927142Y-114864761D01*
X155831904Y-114769523D01*
X155784285Y-114674285D01*
X155736666Y-114483809D01*
X155736666Y-114340952D01*
X155784285Y-114150476D01*
X155831904Y-114055238D01*
X155927142Y-113960000D01*
X156070000Y-113912380D01*
X156165238Y-113912380D01*
X156308095Y-113960000D01*
X156355714Y-114007619D01*
X156784285Y-114912380D02*
X156784285Y-113912380D01*
X157355714Y-114912380D02*
X156927142Y-114340952D01*
X157355714Y-113912380D02*
X156784285Y-114483809D01*
X155722380Y-117612380D02*
X155389047Y-117136190D01*
X155150952Y-117612380D02*
X155150952Y-116612380D01*
X155531904Y-116612380D01*
X155627142Y-116660000D01*
X155674761Y-116707619D01*
X155722380Y-116802857D01*
X155722380Y-116945714D01*
X155674761Y-117040952D01*
X155627142Y-117088571D01*
X155531904Y-117136190D01*
X155150952Y-117136190D01*
X156103333Y-117564761D02*
X156246190Y-117612380D01*
X156484285Y-117612380D01*
X156579523Y-117564761D01*
X156627142Y-117517142D01*
X156674761Y-117421904D01*
X156674761Y-117326666D01*
X156627142Y-117231428D01*
X156579523Y-117183809D01*
X156484285Y-117136190D01*
X156293809Y-117088571D01*
X156198571Y-117040952D01*
X156150952Y-116993333D01*
X156103333Y-116898095D01*
X156103333Y-116802857D01*
X156150952Y-116707619D01*
X156198571Y-116660000D01*
X156293809Y-116612380D01*
X156531904Y-116612380D01*
X156674761Y-116660000D01*
X156960476Y-116612380D02*
X157531904Y-116612380D01*
X157246190Y-117612380D02*
X157246190Y-116612380D01*
X163708095Y-116560000D02*
X163612857Y-116512380D01*
X163470000Y-116512380D01*
X163327142Y-116560000D01*
X163231904Y-116655238D01*
X163184285Y-116750476D01*
X163136666Y-116940952D01*
X163136666Y-117083809D01*
X163184285Y-117274285D01*
X163231904Y-117369523D01*
X163327142Y-117464761D01*
X163470000Y-117512380D01*
X163565238Y-117512380D01*
X163708095Y-117464761D01*
X163755714Y-117417142D01*
X163755714Y-117083809D01*
X163565238Y-117083809D01*
X164184285Y-117512380D02*
X164184285Y-116512380D01*
X164755714Y-117512380D01*
X164755714Y-116512380D01*
X165231904Y-117512380D02*
X165231904Y-116512380D01*
X165470000Y-116512380D01*
X165612857Y-116560000D01*
X165708095Y-116655238D01*
X165755714Y-116750476D01*
X165803333Y-116940952D01*
X165803333Y-117083809D01*
X165755714Y-117274285D01*
X165708095Y-117369523D01*
X165612857Y-117464761D01*
X165470000Y-117512380D01*
X165231904Y-117512380D01*
%TO.C,PB1*%
X158301904Y-68869180D02*
X158301904Y-67869180D01*
X158682857Y-67869180D01*
X158778095Y-67916800D01*
X158825714Y-67964419D01*
X158873333Y-68059657D01*
X158873333Y-68202514D01*
X158825714Y-68297752D01*
X158778095Y-68345371D01*
X158682857Y-68392990D01*
X158301904Y-68392990D01*
X159635238Y-68345371D02*
X159778095Y-68392990D01*
X159825714Y-68440609D01*
X159873333Y-68535847D01*
X159873333Y-68678704D01*
X159825714Y-68773942D01*
X159778095Y-68821561D01*
X159682857Y-68869180D01*
X159301904Y-68869180D01*
X159301904Y-67869180D01*
X159635238Y-67869180D01*
X159730476Y-67916800D01*
X159778095Y-67964419D01*
X159825714Y-68059657D01*
X159825714Y-68154895D01*
X159778095Y-68250133D01*
X159730476Y-68297752D01*
X159635238Y-68345371D01*
X159301904Y-68345371D01*
X160825714Y-68869180D02*
X160254285Y-68869180D01*
X160540000Y-68869180D02*
X160540000Y-67869180D01*
X160444761Y-68012038D01*
X160349523Y-68107276D01*
X160254285Y-68154895D01*
%TO.C,PB2*%
X143061904Y-68869180D02*
X143061904Y-67869180D01*
X143442857Y-67869180D01*
X143538095Y-67916800D01*
X143585714Y-67964419D01*
X143633333Y-68059657D01*
X143633333Y-68202514D01*
X143585714Y-68297752D01*
X143538095Y-68345371D01*
X143442857Y-68392990D01*
X143061904Y-68392990D01*
X144395238Y-68345371D02*
X144538095Y-68392990D01*
X144585714Y-68440609D01*
X144633333Y-68535847D01*
X144633333Y-68678704D01*
X144585714Y-68773942D01*
X144538095Y-68821561D01*
X144442857Y-68869180D01*
X144061904Y-68869180D01*
X144061904Y-67869180D01*
X144395238Y-67869180D01*
X144490476Y-67916800D01*
X144538095Y-67964419D01*
X144585714Y-68059657D01*
X144585714Y-68154895D01*
X144538095Y-68250133D01*
X144490476Y-68297752D01*
X144395238Y-68345371D01*
X144061904Y-68345371D01*
X145014285Y-67964419D02*
X145061904Y-67916800D01*
X145157142Y-67869180D01*
X145395238Y-67869180D01*
X145490476Y-67916800D01*
X145538095Y-67964419D01*
X145585714Y-68059657D01*
X145585714Y-68154895D01*
X145538095Y-68297752D01*
X144966666Y-68869180D01*
X145585714Y-68869180D01*
%TO.C,PB3*%
X143061904Y-81569180D02*
X143061904Y-80569180D01*
X143442857Y-80569180D01*
X143538095Y-80616800D01*
X143585714Y-80664419D01*
X143633333Y-80759657D01*
X143633333Y-80902514D01*
X143585714Y-80997752D01*
X143538095Y-81045371D01*
X143442857Y-81092990D01*
X143061904Y-81092990D01*
X144395238Y-81045371D02*
X144538095Y-81092990D01*
X144585714Y-81140609D01*
X144633333Y-81235847D01*
X144633333Y-81378704D01*
X144585714Y-81473942D01*
X144538095Y-81521561D01*
X144442857Y-81569180D01*
X144061904Y-81569180D01*
X144061904Y-80569180D01*
X144395238Y-80569180D01*
X144490476Y-80616800D01*
X144538095Y-80664419D01*
X144585714Y-80759657D01*
X144585714Y-80854895D01*
X144538095Y-80950133D01*
X144490476Y-80997752D01*
X144395238Y-81045371D01*
X144061904Y-81045371D01*
X144966666Y-80569180D02*
X145585714Y-80569180D01*
X145252380Y-80950133D01*
X145395238Y-80950133D01*
X145490476Y-80997752D01*
X145538095Y-81045371D01*
X145585714Y-81140609D01*
X145585714Y-81378704D01*
X145538095Y-81473942D01*
X145490476Y-81521561D01*
X145395238Y-81569180D01*
X145109523Y-81569180D01*
X145014285Y-81521561D01*
X144966666Y-81473942D01*
%TO.C,PB4*%
X158301904Y-81569180D02*
X158301904Y-80569180D01*
X158682857Y-80569180D01*
X158778095Y-80616800D01*
X158825714Y-80664419D01*
X158873333Y-80759657D01*
X158873333Y-80902514D01*
X158825714Y-80997752D01*
X158778095Y-81045371D01*
X158682857Y-81092990D01*
X158301904Y-81092990D01*
X159635238Y-81045371D02*
X159778095Y-81092990D01*
X159825714Y-81140609D01*
X159873333Y-81235847D01*
X159873333Y-81378704D01*
X159825714Y-81473942D01*
X159778095Y-81521561D01*
X159682857Y-81569180D01*
X159301904Y-81569180D01*
X159301904Y-80569180D01*
X159635238Y-80569180D01*
X159730476Y-80616800D01*
X159778095Y-80664419D01*
X159825714Y-80759657D01*
X159825714Y-80854895D01*
X159778095Y-80950133D01*
X159730476Y-80997752D01*
X159635238Y-81045371D01*
X159301904Y-81045371D01*
X160730476Y-80902514D02*
X160730476Y-81569180D01*
X160492380Y-80521561D02*
X160254285Y-81235847D01*
X160873333Y-81235847D01*
%TO.C,PB5*%
X158301904Y-94269180D02*
X158301904Y-93269180D01*
X158682857Y-93269180D01*
X158778095Y-93316800D01*
X158825714Y-93364419D01*
X158873333Y-93459657D01*
X158873333Y-93602514D01*
X158825714Y-93697752D01*
X158778095Y-93745371D01*
X158682857Y-93792990D01*
X158301904Y-93792990D01*
X159635238Y-93745371D02*
X159778095Y-93792990D01*
X159825714Y-93840609D01*
X159873333Y-93935847D01*
X159873333Y-94078704D01*
X159825714Y-94173942D01*
X159778095Y-94221561D01*
X159682857Y-94269180D01*
X159301904Y-94269180D01*
X159301904Y-93269180D01*
X159635238Y-93269180D01*
X159730476Y-93316800D01*
X159778095Y-93364419D01*
X159825714Y-93459657D01*
X159825714Y-93554895D01*
X159778095Y-93650133D01*
X159730476Y-93697752D01*
X159635238Y-93745371D01*
X159301904Y-93745371D01*
X160778095Y-93269180D02*
X160301904Y-93269180D01*
X160254285Y-93745371D01*
X160301904Y-93697752D01*
X160397142Y-93650133D01*
X160635238Y-93650133D01*
X160730476Y-93697752D01*
X160778095Y-93745371D01*
X160825714Y-93840609D01*
X160825714Y-94078704D01*
X160778095Y-94173942D01*
X160730476Y-94221561D01*
X160635238Y-94269180D01*
X160397142Y-94269180D01*
X160301904Y-94221561D01*
X160254285Y-94173942D01*
%TO.C,Q1*%
X148192761Y-97715619D02*
X148097523Y-97668000D01*
X148002285Y-97572761D01*
X147859428Y-97429904D01*
X147764190Y-97382285D01*
X147668952Y-97382285D01*
X147716571Y-97620380D02*
X147621333Y-97572761D01*
X147526095Y-97477523D01*
X147478476Y-97287047D01*
X147478476Y-96953714D01*
X147526095Y-96763238D01*
X147621333Y-96668000D01*
X147716571Y-96620380D01*
X147907047Y-96620380D01*
X148002285Y-96668000D01*
X148097523Y-96763238D01*
X148145142Y-96953714D01*
X148145142Y-97287047D01*
X148097523Y-97477523D01*
X148002285Y-97572761D01*
X147907047Y-97620380D01*
X147716571Y-97620380D01*
X149097523Y-97620380D02*
X148526095Y-97620380D01*
X148811809Y-97620380D02*
X148811809Y-96620380D01*
X148716571Y-96763238D01*
X148621333Y-96858476D01*
X148526095Y-96906095D01*
%TO.C,R1*%
X165833333Y-106552380D02*
X165500000Y-106076190D01*
X165261904Y-106552380D02*
X165261904Y-105552380D01*
X165642857Y-105552380D01*
X165738095Y-105600000D01*
X165785714Y-105647619D01*
X165833333Y-105742857D01*
X165833333Y-105885714D01*
X165785714Y-105980952D01*
X165738095Y-106028571D01*
X165642857Y-106076190D01*
X165261904Y-106076190D01*
X166785714Y-106552380D02*
X166214285Y-106552380D01*
X166500000Y-106552380D02*
X166500000Y-105552380D01*
X166404761Y-105695238D01*
X166309523Y-105790476D01*
X166214285Y-105838095D01*
%TO.C,R2*%
X165823333Y-103352380D02*
X165490000Y-102876190D01*
X165251904Y-103352380D02*
X165251904Y-102352380D01*
X165632857Y-102352380D01*
X165728095Y-102400000D01*
X165775714Y-102447619D01*
X165823333Y-102542857D01*
X165823333Y-102685714D01*
X165775714Y-102780952D01*
X165728095Y-102828571D01*
X165632857Y-102876190D01*
X165251904Y-102876190D01*
X166204285Y-102447619D02*
X166251904Y-102400000D01*
X166347142Y-102352380D01*
X166585238Y-102352380D01*
X166680476Y-102400000D01*
X166728095Y-102447619D01*
X166775714Y-102542857D01*
X166775714Y-102638095D01*
X166728095Y-102780952D01*
X166156666Y-103352380D01*
X166775714Y-103352380D01*
%TO.C,R4*%
X165823333Y-96952380D02*
X165490000Y-96476190D01*
X165251904Y-96952380D02*
X165251904Y-95952380D01*
X165632857Y-95952380D01*
X165728095Y-96000000D01*
X165775714Y-96047619D01*
X165823333Y-96142857D01*
X165823333Y-96285714D01*
X165775714Y-96380952D01*
X165728095Y-96428571D01*
X165632857Y-96476190D01*
X165251904Y-96476190D01*
X166680476Y-96285714D02*
X166680476Y-96952380D01*
X166442380Y-95904761D02*
X166204285Y-96619047D01*
X166823333Y-96619047D01*
%TO.C,U1*%
X144224095Y-108050380D02*
X144224095Y-108859904D01*
X144271714Y-108955142D01*
X144319333Y-109002761D01*
X144414571Y-109050380D01*
X144605047Y-109050380D01*
X144700285Y-109002761D01*
X144747904Y-108955142D01*
X144795523Y-108859904D01*
X144795523Y-108050380D01*
X145795523Y-109050380D02*
X145224095Y-109050380D01*
X145509809Y-109050380D02*
X145509809Y-108050380D01*
X145414571Y-108193238D01*
X145319333Y-108288476D01*
X145224095Y-108336095D01*
%TD*%
M02*
